M48
;GenerationSoftware,Autodesk,EAGLE,9.7.0*%
;CreationDate,2025-02-25T18:30:20Z*%
FMAT,2
ICI,OFF
METRIC,TZ,000.000
T9C0.300
T8C0.350
T7C0.635
T6C0.650
T5C0.710
T4C0.850
T3C0.990
T2C1.050
T1C1.100
%
G90
M71
T1
X12275Y9500
T2
X24575Y9500
T3
X117935Y12750
X117935Y6250
X122435Y12750
X122435Y6250
T4
X24575Y7800
X24575Y11200
T5
X77865Y3560
X77865Y4830
X79135Y3560
X79135Y4830
X80405Y3560
X80405Y4830
X81675Y3560
X81675Y4830
X82945Y3560
X82945Y4830
T6
X5052Y6510
X5052Y12290
T7
G00X927Y13718
M15
G01X1816Y13718
M16
X1372Y13718
G00X927Y5082
M15
G01X1816Y5082
M16
X1372Y5082
G00X5118Y5082
M15
G01X6007Y5082
M16
X5563Y5082
G00X5118Y13718
M15
G01X6007Y13718
M16
X5563Y13718
T8
G05
X120000Y10000
X124000Y10000
X122000Y8000
X126000Y8000
X120000Y4000
X124000Y4000
X116000Y4000
X118000Y2000
X122000Y2000
X126000Y2000
X114000Y2000
X79000Y8500
X73700Y2600
X86800Y4900
X54000Y6000
X58000Y6000
X62000Y6000
X66000Y6000
X64000Y4000
X60000Y4000
X56000Y4000
X66000Y10000
X66000Y14000
X1800Y17091
X104700Y15700
X104700Y13400
X104700Y12200
X103382Y10138
X102400Y9700
X97732Y10007
X98718Y10559
X99800Y7900
X100900Y7900
X102200Y8000
X104500Y8800
X105400Y9700
X106100Y10700
X106400Y12000
X106500Y13100
X106400Y15000
X104600Y14700
X102862Y14985
X103400Y15800
X101300Y15900
X101100Y14900
X85400Y8400
X86600Y2200
X79600Y2000
X6612Y3611
X47100Y15100
X47100Y12400
X47000Y10007
X19700Y5500
X11100Y16000
X14000Y16000
X18000Y16000
X22000Y16000
X26000Y16000
X12000Y14000
X16000Y14000
X20000Y14000
X10000Y12000
X14000Y12000
X18000Y12000
X10000Y10000
X2000Y2000
X11000Y2000
X64000Y12000
X68000Y12000
X60000Y17606
X63900Y17606
X68000Y17606
X72000Y17606
X76000Y17606
X80000Y17606
X84000Y17606
X88000Y17600
X114000Y17606
X118000Y17606
X122000Y17606
X126000Y17606
X124000Y16000
X120000Y16000
X116000Y16000
X120000Y14000
X124000Y14000
T9
X10200Y14400
X9300Y5700
X13500Y1900
X14700Y1900
X15900Y1900
X29500Y15700
X32800Y16600
X28900Y12900
X28000Y2400
X33500Y3400
X37400Y9200
X33500Y10200
X36900Y17400
X41500Y17600
X47800Y16400
X38200Y13400
X42100Y13300
X46000Y13500
X41500Y5400
X42700Y5606
X36400Y3400
X44200Y2600
X43200Y2600
X48500Y2600
X49400Y2600
X56200Y11900
X56300Y14500
X56300Y10000
X67800Y8900
X72100Y8200
X70200Y5500
X73500Y11000
X74600Y11000
X86000Y14600
X89200Y14600
X94500Y14900
X92100Y14900
X92900Y8600
X88200Y8800
X95800Y6094
X103300Y13100
X103900Y14000
X103800Y11200
X103900Y8000
X94100Y4900
X96900Y12344
X116000Y10800
X108000Y2300
X95000Y6300
X95100Y5200
X103900Y4300
X41500Y7200
X101600Y1369
X30600Y3930
X95050Y8500
X99500Y7000
X114700Y14000
X82900Y1409
X102459Y1409
X81100Y1600
X103318Y1491
X97400Y2482
X100700Y1400
X98350Y6965
X97600Y3996
X98889Y14789
X105431Y4061
X25730Y2254
X35700Y2300
X51600Y7460
X79000Y13600
X73100Y13400
X101100Y4500
X106131Y3400
X29800Y7900
X38100Y14700
X39300Y15900
X96700Y7440
X96850Y10700
X92591Y11396
X96850Y9600
X91733Y11564
X109990Y3670
X90467Y11114
X23500Y4600
X94150Y12182
X58700Y16500
X58700Y14300
X27300Y10700
X93201Y12001
X96700Y6100
X96700Y4015
X15400Y5500
X22700Y5500
X36700Y12200
X25900Y14235
X4210Y3110
X35500Y11500
X92900Y15600
X97500Y18291
X100800Y11300
X96100Y14700
X32000Y3382
X91360Y18009
X91500Y10400
X92900Y12900
X7600Y11800
X7600Y6400
X95050Y9600
X86248Y9348
X95950Y9082
X87000Y9818
X106590Y5970
X68900Y5500
X107990Y3670
X108990Y3670
X110990Y3670
X111990Y3670
X88280Y12820
X88280Y13570
X88280Y12070
X36140Y7760
X36140Y8510
X36140Y7010
X49810Y6660
X49060Y6660
X50560Y6660
X111990Y4670
X111990Y5670
X111990Y6670
X111990Y7670
X111990Y8670
X111990Y9670
X111990Y10670
X111990Y11670
X111990Y12670
X111990Y13670
X111990Y14670
X111990Y15670
X110990Y15670
X109990Y15670
X108990Y15670
X107990Y15670
X106990Y15670
X94150Y13650
M30