G04 EAGLE Gerber RS-274X export*
G75*
%MOMM*%
%FSLAX34Y34*%
%LPD*%
%INTop Copper*%
%IPPOS*%
%AMOC8*
5,1,8,0,0,1.08239X$1,22.5*%
G01*
G04 Define Apertures*
%ADD10C,1.358000*%
%ADD11C,1.575000*%
%ADD12C,1.650000*%
%ADD13R,0.629100X0.560000*%
%ADD14R,0.560000X0.629100*%
%ADD15R,0.600000X0.600000*%
%ADD16R,0.400000X0.400000*%
%ADD17C,0.808000*%
%ADD18R,0.420000X0.640000*%
%ADD19C,1.218000*%
%ADD20R,0.600000X0.540000*%
%ADD21R,0.540000X0.600000*%
%ADD22R,2.811800X0.911800*%
%ADD23R,0.650000X1.100000*%
%ADD24R,0.900000X0.400000*%
%ADD25R,0.400000X0.900000*%
%ADD26R,0.535100X0.644000*%
%ADD27R,0.644000X0.535100*%
%ADD28R,0.798700X0.973900*%
%ADD29R,0.973900X0.798700*%
%ADD30C,1.498000*%
%ADD31C,1.270000*%
%ADD32R,0.500000X0.500000*%
%ADD33R,0.600000X1.100000*%
%ADD34R,0.600000X1.400000*%
%ADD35R,0.600000X0.240000*%
%ADD36R,1.650000X2.400000*%
%ADD37R,0.250000X0.500000*%
%ADD38R,1.150000X0.600000*%
%ADD39R,1.150000X0.300000*%
%ADD40C,1.143000*%
%ADD41R,0.610000X0.350000*%
%ADD42R,0.350000X0.610000*%
%ADD43R,1.000000X0.700000*%
%ADD44R,0.600000X0.700000*%
%ADD45C,0.706400*%
%ADD46C,0.200000*%
%ADD47C,0.254000*%
%ADD48C,0.756400*%
%ADD49C,0.152400*%
%ADD50C,0.381000*%
%ADD51C,0.508000*%
%ADD52C,1.016000*%
%ADD53C,0.177800*%
%ADD54C,1.016000*%
%ADD55C,0.406400*%
%ADD56C,0.127000*%
%ADD57C,0.635000*%
%ADD58C,0.812800*%
G36*
X244808Y12366D02*
X244412Y12286D01*
X242678Y12286D01*
X242297Y12360D01*
X241960Y12584D01*
X225258Y29286D01*
X219802Y29286D01*
X219436Y29354D01*
X219095Y29572D01*
X218866Y29906D01*
X218786Y30302D01*
X218786Y30960D01*
X218854Y31326D01*
X219072Y31667D01*
X219406Y31896D01*
X219802Y31976D01*
X220131Y31976D01*
X221024Y32869D01*
X221024Y41131D01*
X220131Y42024D01*
X212869Y42024D01*
X211976Y41131D01*
X211976Y32869D01*
X212869Y31976D01*
X213198Y31976D01*
X213564Y31908D01*
X213905Y31690D01*
X214134Y31356D01*
X214214Y30960D01*
X214214Y30302D01*
X214146Y29936D01*
X213928Y29595D01*
X213594Y29366D01*
X213198Y29286D01*
X190650Y29286D01*
X190268Y29360D01*
X189931Y29584D01*
X188675Y30840D01*
X188464Y31147D01*
X188377Y31542D01*
X188452Y31940D01*
X188675Y32277D01*
X189063Y32665D01*
X189063Y33928D01*
X184387Y38604D01*
X182902Y38604D01*
X182536Y38672D01*
X182195Y38890D01*
X181967Y39224D01*
X181886Y39620D01*
X181886Y41105D01*
X177210Y45781D01*
X175947Y45781D01*
X174749Y44584D01*
X174427Y44366D01*
X174031Y44286D01*
X170368Y44286D01*
X169986Y44360D01*
X169649Y44584D01*
X169632Y44601D01*
X169414Y44923D01*
X169334Y45320D01*
X169334Y56161D01*
X154209Y71286D01*
X110678Y71286D01*
X110297Y71360D01*
X109960Y71584D01*
X88734Y92810D01*
X81302Y92810D01*
X80936Y92878D01*
X80595Y93096D01*
X80366Y93430D01*
X80286Y93826D01*
X80286Y98947D01*
X76753Y102480D01*
X76549Y102772D01*
X76456Y103166D01*
X76524Y103564D01*
X76742Y103905D01*
X77075Y104134D01*
X77472Y104214D01*
X79447Y104214D01*
X86652Y111419D01*
X86652Y122014D01*
X86486Y122253D01*
X86392Y122646D01*
X85901Y137707D01*
X85969Y138106D01*
X86187Y138447D01*
X86520Y138676D01*
X86685Y138709D01*
X87063Y139087D01*
X87370Y139298D01*
X87765Y139385D01*
X88163Y139311D01*
X88500Y139087D01*
X89847Y137740D01*
X92813Y137740D01*
X92813Y149260D01*
X89847Y149260D01*
X88500Y147913D01*
X88193Y147702D01*
X87798Y147615D01*
X87400Y147689D01*
X87063Y147913D01*
X86732Y148244D01*
X80118Y148244D01*
X79226Y147351D01*
X79226Y139649D01*
X80118Y138756D01*
X80309Y138756D01*
X80644Y138699D01*
X80992Y138492D01*
X81231Y138167D01*
X81325Y137773D01*
X81772Y124053D01*
X81710Y123669D01*
X81497Y123325D01*
X81168Y123091D01*
X80773Y123004D01*
X80375Y123078D01*
X80038Y123301D01*
X79741Y123599D01*
X77314Y124604D01*
X74686Y124604D01*
X72259Y123599D01*
X71657Y122997D01*
X71335Y122779D01*
X70939Y122699D01*
X70572Y122699D01*
X70206Y122767D01*
X69865Y122985D01*
X69636Y123319D01*
X69556Y123715D01*
X69556Y125238D01*
X60504Y125238D01*
X60504Y126762D01*
X69556Y126762D01*
X69556Y130052D01*
X68068Y131540D01*
X67091Y131540D01*
X66732Y131605D01*
X66390Y131821D01*
X66159Y132152D01*
X66075Y132548D01*
X66152Y132945D01*
X66280Y133253D01*
X66358Y133405D01*
X66826Y134150D01*
X67024Y134559D01*
X67359Y135519D01*
X67460Y135962D01*
X67574Y136973D01*
X67574Y137427D01*
X67460Y138438D01*
X67359Y138881D01*
X67024Y139841D01*
X66826Y140250D01*
X66310Y141072D01*
X66231Y141224D01*
X66208Y141281D01*
X64172Y143317D01*
X61511Y144419D01*
X57679Y144419D01*
X57327Y144482D01*
X56983Y144694D01*
X56749Y145024D01*
X56663Y145419D01*
X56737Y145816D01*
X56960Y146153D01*
X68905Y158098D01*
X69227Y158316D01*
X69624Y158396D01*
X83468Y158396D01*
X85895Y159401D01*
X86183Y159689D01*
X86490Y159900D01*
X86885Y159987D01*
X87282Y159912D01*
X87619Y159689D01*
X87994Y159315D01*
X91084Y159315D01*
X91084Y170686D01*
X87994Y170686D01*
X87619Y170311D01*
X87312Y170100D01*
X86917Y170014D01*
X86520Y170088D01*
X86183Y170311D01*
X85895Y170599D01*
X83468Y171604D01*
X65154Y171604D01*
X62726Y170599D01*
X36209Y144082D01*
X35887Y143864D01*
X35491Y143784D01*
X21336Y143784D01*
X20947Y143861D01*
X19601Y144419D01*
X11176Y144419D01*
X10810Y144487D01*
X10469Y144705D01*
X10240Y145039D01*
X10160Y145435D01*
X10160Y178824D01*
X10228Y179190D01*
X10446Y179531D01*
X10780Y179760D01*
X11176Y179840D01*
X425761Y179840D01*
X426113Y179777D01*
X426457Y179565D01*
X426691Y179235D01*
X426777Y178840D01*
X426703Y178443D01*
X426480Y178106D01*
X426256Y177882D01*
X426256Y171268D01*
X427306Y170218D01*
X427517Y169911D01*
X427603Y169516D01*
X427529Y169119D01*
X427306Y168782D01*
X426256Y167732D01*
X426256Y161118D01*
X426273Y161101D01*
X426491Y160779D01*
X426571Y160382D01*
X426571Y156474D01*
X426508Y156123D01*
X426296Y155779D01*
X425966Y155545D01*
X425571Y155458D01*
X425174Y155532D01*
X424837Y155756D01*
X424552Y156040D01*
X421262Y156040D01*
X421262Y136960D01*
X424552Y136960D01*
X425271Y137678D01*
X425593Y137896D01*
X425989Y137976D01*
X433631Y137976D01*
X434524Y138869D01*
X434524Y154131D01*
X433727Y154929D01*
X433509Y155251D01*
X433429Y155647D01*
X433429Y159210D01*
X433497Y159576D01*
X433715Y159916D01*
X434049Y160145D01*
X434445Y160226D01*
X434851Y160226D01*
X435744Y161118D01*
X435744Y167732D01*
X434694Y168782D01*
X434484Y169089D01*
X434397Y169484D01*
X434471Y169881D01*
X434694Y170218D01*
X435324Y170848D01*
X435646Y171066D01*
X436043Y171146D01*
X439457Y171146D01*
X439839Y171072D01*
X440176Y170848D01*
X440806Y170218D01*
X441017Y169911D01*
X441103Y169516D01*
X441029Y169119D01*
X440806Y168782D01*
X439756Y167732D01*
X439756Y161118D01*
X440649Y160226D01*
X443692Y160226D01*
X443845Y160181D01*
X443928Y160200D01*
X444154Y160226D01*
X448351Y160226D01*
X448474Y160348D01*
X448796Y160566D01*
X449193Y160646D01*
X449281Y160646D01*
X449632Y160583D01*
X449976Y160371D01*
X450210Y160041D01*
X450296Y159646D01*
X450222Y159249D01*
X449999Y158912D01*
X448740Y157653D01*
X448740Y154687D01*
X460260Y154687D01*
X460260Y157653D01*
X459322Y158591D01*
X459118Y158884D01*
X459024Y159277D01*
X459092Y159676D01*
X459310Y160016D01*
X459644Y160245D01*
X460040Y160326D01*
X468051Y160326D01*
X468944Y161218D01*
X468944Y167832D01*
X467894Y168882D01*
X467684Y169189D01*
X467597Y169584D01*
X467671Y169981D01*
X467894Y170318D01*
X468944Y171368D01*
X468944Y171394D01*
X469011Y171757D01*
X469228Y172098D01*
X469560Y172328D01*
X469956Y172410D01*
X580534Y172809D01*
X580919Y172735D01*
X581256Y172511D01*
X583590Y170177D01*
X583801Y169870D01*
X583887Y169475D01*
X583813Y169077D01*
X583590Y168740D01*
X582714Y167864D01*
X581944Y166006D01*
X581944Y163994D01*
X582714Y162136D01*
X583647Y161202D01*
X583851Y160910D01*
X583944Y160516D01*
X583877Y160118D01*
X583659Y159777D01*
X583325Y159548D01*
X582929Y159468D01*
X560191Y159468D01*
X559824Y159536D01*
X559484Y159754D01*
X559255Y160088D01*
X559175Y160484D01*
X559175Y161851D01*
X558282Y162744D01*
X551668Y162744D01*
X550618Y161694D01*
X550311Y161484D01*
X549916Y161397D01*
X549519Y161471D01*
X549182Y161694D01*
X548132Y162744D01*
X541518Y162744D01*
X540626Y161851D01*
X540626Y154149D01*
X541544Y153230D01*
X541774Y152876D01*
X541841Y152477D01*
X541795Y151125D01*
X541727Y150794D01*
X541509Y150453D01*
X541176Y150224D01*
X540779Y150144D01*
X540618Y150144D01*
X539712Y149238D01*
X539657Y148944D01*
X539439Y148603D01*
X539106Y148374D01*
X538710Y148294D01*
X536282Y148294D01*
X535901Y148368D01*
X535564Y148592D01*
X534930Y149226D01*
X534726Y149518D01*
X534633Y149912D01*
X534700Y150310D01*
X534918Y150651D01*
X535252Y150880D01*
X535528Y150936D01*
X537040Y152448D01*
X537040Y154738D01*
X522960Y154738D01*
X522960Y152448D01*
X524469Y150939D01*
X524703Y150897D01*
X525047Y150685D01*
X525281Y150355D01*
X525368Y149960D01*
X525294Y149563D01*
X525070Y149226D01*
X523976Y148131D01*
X523976Y142869D01*
X524869Y141976D01*
X535131Y141976D01*
X535564Y142408D01*
X535886Y142626D01*
X536282Y142706D01*
X538710Y142706D01*
X539076Y142638D01*
X539416Y142420D01*
X539645Y142086D01*
X539726Y141690D01*
X539726Y141549D01*
X540618Y140656D01*
X547232Y140656D01*
X547563Y140987D01*
X547870Y141198D01*
X548265Y141285D01*
X548663Y141211D01*
X549000Y140987D01*
X550347Y139640D01*
X553313Y139640D01*
X553313Y151160D01*
X550347Y151160D01*
X549104Y149917D01*
X548780Y149699D01*
X548384Y149619D01*
X547987Y149701D01*
X547654Y149930D01*
X547437Y150271D01*
X547370Y150670D01*
X547425Y152275D01*
X547493Y152606D01*
X547711Y152947D01*
X548044Y153176D01*
X548053Y153177D01*
X549182Y154306D01*
X549489Y154517D01*
X549884Y154603D01*
X550281Y154529D01*
X550618Y154306D01*
X551668Y153256D01*
X558282Y153256D01*
X559236Y154210D01*
X559243Y154246D01*
X559461Y154587D01*
X559794Y154816D01*
X560191Y154896D01*
X578210Y154896D01*
X578561Y154833D01*
X578905Y154621D01*
X579139Y154291D01*
X579226Y153896D01*
X579152Y153499D01*
X578929Y153162D01*
X570714Y144947D01*
X570714Y136368D01*
X570640Y135986D01*
X570416Y135649D01*
X569851Y135084D01*
X569529Y134866D01*
X569132Y134786D01*
X559191Y134786D01*
X558824Y134854D01*
X558484Y135072D01*
X558255Y135406D01*
X558175Y135802D01*
X558175Y136351D01*
X557282Y137244D01*
X550668Y137244D01*
X549618Y136194D01*
X549311Y135984D01*
X548916Y135897D01*
X548519Y135971D01*
X548182Y136194D01*
X547132Y137244D01*
X540518Y137244D01*
X539626Y136351D01*
X539626Y128649D01*
X540551Y127723D01*
X540781Y127370D01*
X540848Y126972D01*
X540788Y125127D01*
X540720Y124794D01*
X540502Y124453D01*
X540168Y124224D01*
X539772Y124144D01*
X539618Y124144D01*
X538712Y123238D01*
X538657Y122944D01*
X538439Y122603D01*
X538106Y122374D01*
X537710Y122294D01*
X535282Y122294D01*
X534901Y122368D01*
X534564Y122592D01*
X533930Y123226D01*
X533726Y123518D01*
X533633Y123912D01*
X533700Y124310D01*
X533918Y124651D01*
X534252Y124880D01*
X534528Y124936D01*
X536040Y126448D01*
X536040Y128738D01*
X521960Y128738D01*
X521960Y126448D01*
X523469Y124939D01*
X523703Y124897D01*
X524047Y124685D01*
X524281Y124355D01*
X524368Y123960D01*
X524294Y123563D01*
X524070Y123226D01*
X522976Y122131D01*
X522976Y116869D01*
X523869Y115976D01*
X534131Y115976D01*
X534564Y116408D01*
X534886Y116626D01*
X535282Y116706D01*
X537710Y116706D01*
X538076Y116638D01*
X538416Y116420D01*
X538645Y116086D01*
X538726Y115690D01*
X538726Y115549D01*
X539618Y114656D01*
X546232Y114656D01*
X546563Y114987D01*
X546870Y115198D01*
X547265Y115285D01*
X547663Y115211D01*
X548000Y114987D01*
X549347Y113640D01*
X550211Y113640D01*
X550563Y113577D01*
X550907Y113365D01*
X551141Y113035D01*
X551227Y112640D01*
X551153Y112243D01*
X550930Y111906D01*
X549618Y110594D01*
X549311Y110384D01*
X548916Y110297D01*
X548519Y110371D01*
X548182Y110594D01*
X547132Y111644D01*
X540518Y111644D01*
X539626Y110751D01*
X539626Y103049D01*
X540210Y102464D01*
X540446Y102096D01*
X540507Y101696D01*
X540405Y99611D01*
X540338Y99294D01*
X540120Y98953D01*
X539787Y98724D01*
X539676Y98702D01*
X538726Y97751D01*
X538726Y97710D01*
X538657Y97344D01*
X538439Y97003D01*
X538106Y96774D01*
X537710Y96694D01*
X535382Y96694D01*
X535001Y96768D01*
X534664Y96992D01*
X533930Y97726D01*
X533726Y98018D01*
X533633Y98412D01*
X533700Y98810D01*
X533918Y99151D01*
X534252Y99380D01*
X534528Y99436D01*
X536040Y100948D01*
X536040Y103238D01*
X521960Y103238D01*
X521960Y100948D01*
X523469Y99439D01*
X523703Y99397D01*
X524047Y99185D01*
X524281Y98855D01*
X524368Y98460D01*
X524294Y98063D01*
X524070Y97726D01*
X522976Y96631D01*
X522976Y91369D01*
X523869Y90476D01*
X534131Y90476D01*
X534464Y90808D01*
X534786Y91026D01*
X535182Y91106D01*
X537710Y91106D01*
X538076Y91038D01*
X538416Y90820D01*
X538645Y90486D01*
X538726Y90090D01*
X538726Y90049D01*
X539618Y89156D01*
X546232Y89156D01*
X546563Y89487D01*
X546870Y89698D01*
X547265Y89785D01*
X547663Y89711D01*
X548000Y89487D01*
X549347Y88140D01*
X552313Y88140D01*
X552313Y99660D01*
X549347Y99660D01*
X548000Y98313D01*
X547693Y98102D01*
X547298Y98015D01*
X546900Y98089D01*
X546563Y98313D01*
X546284Y98592D01*
X546049Y98960D01*
X545988Y99359D01*
X546077Y101189D01*
X546144Y101506D01*
X546362Y101847D01*
X546695Y102076D01*
X547092Y102156D01*
X547132Y102156D01*
X548182Y103206D01*
X548489Y103417D01*
X548884Y103503D01*
X549281Y103429D01*
X549618Y103206D01*
X550668Y102156D01*
X557282Y102156D01*
X558175Y103049D01*
X558175Y103598D01*
X558243Y103964D01*
X558461Y104305D01*
X558794Y104534D01*
X559191Y104614D01*
X570847Y104614D01*
X580286Y114053D01*
X580286Y140889D01*
X580346Y141233D01*
X580556Y141579D01*
X580883Y141815D01*
X581278Y141905D01*
X581676Y141834D01*
X582015Y141613D01*
X582241Y141278D01*
X582714Y140136D01*
X584136Y138714D01*
X585994Y137944D01*
X588006Y137944D01*
X589864Y138714D01*
X591321Y140171D01*
X591475Y140405D01*
X591808Y140634D01*
X592205Y140714D01*
X601947Y140714D01*
X606687Y145454D01*
X607009Y145672D01*
X607406Y145752D01*
X706756Y145752D01*
X707107Y145689D01*
X707451Y145477D01*
X707685Y145147D01*
X707772Y144752D01*
X707697Y144355D01*
X707474Y144018D01*
X700714Y137257D01*
X700714Y112690D01*
X700640Y112309D01*
X700416Y111972D01*
X699726Y111281D01*
X699726Y110290D01*
X699658Y109924D01*
X699440Y109583D01*
X699106Y109354D01*
X698710Y109274D01*
X692719Y109274D01*
X692028Y108584D01*
X691706Y108366D01*
X691310Y108286D01*
X683760Y108286D01*
X683394Y108354D01*
X683053Y108572D01*
X682824Y108906D01*
X682744Y109302D01*
X682744Y110382D01*
X681851Y111275D01*
X674149Y111275D01*
X673256Y110382D01*
X673256Y103768D01*
X673587Y103437D01*
X673798Y103130D01*
X673885Y102735D01*
X673811Y102337D01*
X673587Y102000D01*
X672240Y100653D01*
X672240Y97687D01*
X683760Y97687D01*
X683760Y100653D01*
X682433Y101980D01*
X682229Y102272D01*
X682136Y102666D01*
X682204Y103064D01*
X682422Y103405D01*
X682755Y103634D01*
X683151Y103714D01*
X690810Y103714D01*
X691176Y103646D01*
X691517Y103428D01*
X691746Y103094D01*
X691826Y102698D01*
X691826Y88619D01*
X692719Y87726D01*
X698710Y87726D01*
X699076Y87658D01*
X699417Y87440D01*
X699646Y87106D01*
X699726Y86710D01*
X699726Y85719D01*
X699908Y85536D01*
X700126Y85214D01*
X700206Y84818D01*
X700206Y80186D01*
X700138Y79820D01*
X699920Y79479D01*
X699586Y79250D01*
X699190Y79170D01*
X698223Y79170D01*
X697442Y78388D01*
X697152Y78186D01*
X696759Y78091D01*
X693914Y77991D01*
X693496Y78064D01*
X693159Y78288D01*
X692277Y79170D01*
X684723Y79170D01*
X683880Y78327D01*
X683558Y78109D01*
X683161Y78029D01*
X522331Y78029D01*
X521950Y78103D01*
X521613Y78327D01*
X519741Y80199D01*
X517314Y81204D01*
X514686Y81204D01*
X512259Y80199D01*
X510387Y78327D01*
X510065Y78109D01*
X509669Y78029D01*
X503247Y78029D01*
X502866Y78103D01*
X502529Y78327D01*
X501731Y79124D01*
X494469Y79124D01*
X493576Y78231D01*
X493576Y74010D01*
X493511Y73651D01*
X493295Y73309D01*
X492964Y73078D01*
X492568Y72994D01*
X492171Y73071D01*
X491909Y73180D01*
X491362Y73180D01*
X491362Y65838D01*
X484020Y65838D01*
X484020Y65291D01*
X485022Y62873D01*
X486873Y61022D01*
X488292Y60434D01*
X488598Y60236D01*
X488832Y59906D01*
X488919Y59511D01*
X488845Y59114D01*
X488622Y58777D01*
X486666Y56822D01*
X486344Y56604D01*
X485948Y56524D01*
X484052Y56524D01*
X483671Y56598D01*
X483334Y56822D01*
X480381Y59775D01*
X480163Y60097D01*
X480083Y60493D01*
X480083Y61190D01*
X479190Y62083D01*
X449810Y62083D01*
X449548Y61822D01*
X449226Y61604D01*
X448830Y61524D01*
X440045Y61524D01*
X439732Y61496D01*
X439472Y61425D01*
X439246Y61318D01*
X438877Y61032D01*
X432954Y55110D01*
X432752Y54868D01*
X432619Y54634D01*
X432535Y54398D01*
X432476Y53936D01*
X432476Y50953D01*
X432413Y50602D01*
X432201Y50257D01*
X431871Y50024D01*
X431476Y49937D01*
X431079Y50011D01*
X430742Y50234D01*
X430232Y50744D01*
X423618Y50744D01*
X422736Y49862D01*
X422414Y49644D01*
X422017Y49564D01*
X419483Y49564D01*
X419101Y49638D01*
X418764Y49862D01*
X418382Y50244D01*
X411540Y50244D01*
X411174Y50312D01*
X410833Y50530D01*
X410604Y50864D01*
X410524Y51260D01*
X410524Y55955D01*
X410496Y56268D01*
X410425Y56528D01*
X410318Y56754D01*
X410032Y57123D01*
X407822Y59334D01*
X407604Y59656D01*
X407524Y60052D01*
X407524Y62444D01*
X407592Y62810D01*
X407810Y63151D01*
X408144Y63380D01*
X408540Y63460D01*
X409694Y63460D01*
X410060Y63392D01*
X410401Y63174D01*
X410630Y62840D01*
X410710Y62444D01*
X410710Y59948D01*
X412198Y58460D01*
X413738Y58460D01*
X413738Y64262D01*
X415262Y64262D01*
X415262Y58460D01*
X418738Y58460D01*
X418738Y64262D01*
X420262Y64262D01*
X420262Y58460D01*
X421802Y58460D01*
X423290Y59948D01*
X423290Y62444D01*
X423358Y62810D01*
X423576Y63151D01*
X423910Y63380D01*
X424306Y63460D01*
X426302Y63460D01*
X426805Y63962D01*
X427127Y64180D01*
X427523Y64260D01*
X430238Y64260D01*
X430238Y68762D01*
X436540Y68762D01*
X436540Y69460D01*
X436608Y69826D01*
X436826Y70167D01*
X437160Y70396D01*
X437556Y70476D01*
X480955Y70476D01*
X481268Y70504D01*
X481528Y70575D01*
X481772Y70691D01*
X481991Y70848D01*
X482179Y71040D01*
X482330Y71264D01*
X482439Y71510D01*
X482504Y71779D01*
X482524Y72038D01*
X482524Y79955D01*
X482496Y80268D01*
X482425Y80528D01*
X482318Y80754D01*
X482032Y81123D01*
X480381Y82775D01*
X480163Y83097D01*
X480160Y83113D01*
X479117Y84156D01*
X479112Y84157D01*
X478775Y84381D01*
X475110Y88046D01*
X474868Y88248D01*
X474634Y88381D01*
X474398Y88465D01*
X473936Y88524D01*
X449045Y88524D01*
X448732Y88496D01*
X448472Y88425D01*
X448246Y88318D01*
X447877Y88032D01*
X440666Y80822D01*
X440344Y80604D01*
X439948Y80524D01*
X437556Y80524D01*
X437190Y80592D01*
X436849Y80810D01*
X436620Y81144D01*
X436540Y81540D01*
X436540Y82238D01*
X430238Y82238D01*
X430238Y83762D01*
X436540Y83762D01*
X436540Y87238D01*
X430238Y87238D01*
X430238Y91740D01*
X427523Y91740D01*
X427142Y91814D01*
X426805Y92038D01*
X426302Y92540D01*
X424306Y92540D01*
X423940Y92608D01*
X423599Y92826D01*
X423370Y93160D01*
X423290Y93556D01*
X423290Y96052D01*
X421802Y97540D01*
X420262Y97540D01*
X420262Y91738D01*
X418738Y91738D01*
X418738Y97540D01*
X415262Y97540D01*
X415262Y91738D01*
X413738Y91738D01*
X413738Y97540D01*
X412198Y97540D01*
X410710Y96052D01*
X410710Y93556D01*
X410642Y93190D01*
X410424Y92849D01*
X410090Y92620D01*
X409694Y92540D01*
X407698Y92540D01*
X406756Y91598D01*
X406488Y91406D01*
X406097Y91302D01*
X405697Y91359D01*
X405398Y91465D01*
X404936Y91524D01*
X400045Y91524D01*
X399732Y91496D01*
X399472Y91425D01*
X399246Y91318D01*
X398877Y91032D01*
X397954Y90110D01*
X397752Y89868D01*
X397619Y89634D01*
X397535Y89398D01*
X397476Y88936D01*
X397476Y85540D01*
X397408Y85174D01*
X397190Y84833D01*
X396856Y84604D01*
X396460Y84524D01*
X391602Y84524D01*
X391235Y84592D01*
X390895Y84810D01*
X390666Y85144D01*
X390586Y85540D01*
X390586Y88784D01*
X379215Y88784D01*
X379215Y85694D01*
X379658Y85250D01*
X379869Y84943D01*
X379956Y84548D01*
X379881Y84151D01*
X379658Y83813D01*
X378954Y83110D01*
X378752Y82868D01*
X378619Y82634D01*
X378515Y82343D01*
X378480Y82206D01*
X378262Y81865D01*
X377929Y81636D01*
X377533Y81556D01*
X374020Y81556D01*
X373639Y81630D01*
X373302Y81854D01*
X373031Y82124D01*
X368810Y82124D01*
X368451Y82189D01*
X368109Y82405D01*
X367878Y82736D01*
X367794Y83132D01*
X367871Y83529D01*
X367980Y83791D01*
X367980Y84338D01*
X354820Y84338D01*
X354820Y83791D01*
X354884Y83637D01*
X354961Y83288D01*
X354896Y82889D01*
X354681Y82547D01*
X354349Y82316D01*
X353953Y82232D01*
X353557Y82309D01*
X352884Y82588D01*
X339989Y82588D01*
X339608Y82662D01*
X339271Y82886D01*
X339267Y82890D01*
X339050Y83212D01*
X339026Y83329D01*
X338992Y83363D01*
X338781Y83670D01*
X338694Y84065D01*
X338768Y84463D01*
X338992Y84800D01*
X339986Y85794D01*
X339986Y88884D01*
X328615Y88884D01*
X328615Y85794D01*
X329608Y84800D01*
X329819Y84493D01*
X329906Y84098D01*
X329832Y83700D01*
X329608Y83363D01*
X329606Y83361D01*
X329553Y83096D01*
X329321Y82536D01*
X329112Y82218D01*
X328779Y81989D01*
X328383Y81909D01*
X313290Y81909D01*
X312924Y81977D01*
X312583Y82195D01*
X312354Y82529D01*
X312274Y82925D01*
X312274Y82931D01*
X311381Y83824D01*
X303584Y83824D01*
X303406Y83700D01*
X303012Y83607D01*
X302614Y83674D01*
X302273Y83892D01*
X302044Y84226D01*
X301964Y84622D01*
X301964Y90538D01*
X302038Y90919D01*
X302262Y91256D01*
X302674Y91669D01*
X302674Y103176D01*
X302758Y103580D01*
X302989Y103912D01*
X306522Y107276D01*
X306826Y107476D01*
X307222Y107556D01*
X310132Y107556D01*
X311182Y108606D01*
X311489Y108817D01*
X311884Y108903D01*
X312281Y108829D01*
X312618Y108606D01*
X313804Y107420D01*
X314020Y107291D01*
X314259Y106964D01*
X314351Y106570D01*
X314372Y105870D01*
X314304Y105474D01*
X314086Y105133D01*
X313753Y104904D01*
X313357Y104824D01*
X313219Y104824D01*
X312326Y103931D01*
X312326Y91669D01*
X313219Y90776D01*
X320981Y90776D01*
X321874Y91669D01*
X321874Y103931D01*
X320981Y104824D01*
X320980Y104824D01*
X320642Y104882D01*
X320295Y105089D01*
X320057Y105416D01*
X319965Y105810D01*
X319936Y106759D01*
X320010Y107170D01*
X320233Y107507D01*
X321175Y108449D01*
X321175Y108490D01*
X321243Y108856D01*
X321461Y109197D01*
X321794Y109426D01*
X322191Y109506D01*
X332560Y109506D01*
X332926Y109438D01*
X333267Y109220D01*
X333496Y108886D01*
X333576Y108490D01*
X333576Y106869D01*
X334469Y105976D01*
X339731Y105976D01*
X340624Y106869D01*
X340624Y117131D01*
X339731Y118024D01*
X334469Y118024D01*
X333576Y117131D01*
X333576Y116110D01*
X333508Y115744D01*
X333290Y115403D01*
X332956Y115174D01*
X332560Y115094D01*
X322191Y115094D01*
X321824Y115162D01*
X321484Y115380D01*
X321255Y115714D01*
X321175Y116110D01*
X321175Y116151D01*
X320092Y117234D01*
X319874Y117556D01*
X319794Y117953D01*
X319794Y125560D01*
X319862Y125926D01*
X320080Y126267D01*
X320414Y126496D01*
X320810Y126576D01*
X322131Y126576D01*
X323024Y127469D01*
X323024Y132731D01*
X322131Y133624D01*
X311869Y133624D01*
X310976Y132731D01*
X310976Y127469D01*
X311869Y126576D01*
X313190Y126576D01*
X313556Y126508D01*
X313897Y126290D01*
X314126Y125956D01*
X314206Y125560D01*
X314206Y118003D01*
X314132Y117621D01*
X313908Y117284D01*
X312618Y115994D01*
X312311Y115784D01*
X311916Y115697D01*
X311519Y115771D01*
X311182Y115994D01*
X310132Y117044D01*
X303518Y117044D01*
X302626Y116151D01*
X302626Y113471D01*
X302542Y113067D01*
X302310Y112735D01*
X296823Y107509D01*
X296640Y107389D01*
X295513Y106263D01*
X295495Y106245D01*
X294229Y105039D01*
X294219Y105025D01*
X293126Y103931D01*
X293126Y91669D01*
X293538Y91256D01*
X293756Y90934D01*
X293836Y90538D01*
X293836Y82361D01*
X293759Y81972D01*
X292944Y80006D01*
X292944Y79256D01*
X292881Y78905D01*
X292669Y78561D01*
X292339Y78327D01*
X291944Y78240D01*
X291547Y78315D01*
X291210Y78538D01*
X287483Y82264D01*
X283912Y82264D01*
X283531Y82338D01*
X283194Y82562D01*
X282831Y82924D01*
X277369Y82924D01*
X276371Y81927D01*
X276049Y81709D01*
X275653Y81629D01*
X269430Y81629D01*
X269325Y81634D01*
X268105Y81761D01*
X268019Y81709D01*
X267820Y81669D01*
X266938Y80788D01*
X266860Y80717D01*
X266466Y80397D01*
X266222Y80250D01*
X265826Y80170D01*
X262523Y80170D01*
X261784Y79430D01*
X261487Y79224D01*
X261093Y79133D01*
X255055Y78967D01*
X254654Y79038D01*
X254315Y79258D01*
X254089Y79594D01*
X252798Y82710D01*
X250348Y85160D01*
X250338Y85166D01*
X250329Y85179D01*
X250317Y85191D01*
X250319Y85193D01*
X250102Y85494D01*
X250012Y85889D01*
X250083Y86287D01*
X250303Y86626D01*
X250638Y86851D01*
X251074Y87032D01*
X253718Y89676D01*
X255149Y93130D01*
X255149Y96870D01*
X253718Y100324D01*
X251074Y102968D01*
X250638Y103149D01*
X250339Y103340D01*
X250102Y103668D01*
X250012Y104062D01*
X250082Y104460D01*
X250302Y104799D01*
X250317Y104809D01*
X250317Y104809D01*
X252798Y107290D01*
X254064Y110346D01*
X254064Y113654D01*
X252798Y116710D01*
X250460Y119048D01*
X247404Y120314D01*
X244096Y120314D01*
X241040Y119048D01*
X238702Y116710D01*
X237436Y113654D01*
X237436Y110346D01*
X238702Y107290D01*
X241152Y104840D01*
X241162Y104834D01*
X241171Y104821D01*
X241183Y104809D01*
X241181Y104807D01*
X241399Y104506D01*
X241488Y104111D01*
X241417Y103713D01*
X241197Y103375D01*
X240862Y103149D01*
X240426Y102968D01*
X237782Y100324D01*
X236351Y96870D01*
X236351Y93130D01*
X236876Y91863D01*
X236953Y91490D01*
X236879Y91092D01*
X236656Y90755D01*
X232163Y86263D01*
X231871Y86059D01*
X231477Y85966D01*
X231079Y86034D01*
X230738Y86251D01*
X230509Y86585D01*
X230429Y86981D01*
X230429Y132159D01*
X230503Y132540D01*
X230727Y132877D01*
X236473Y138623D01*
X236795Y138841D01*
X237191Y138921D01*
X254858Y138921D01*
X255239Y138847D01*
X255576Y138623D01*
X256136Y138064D01*
X257994Y137294D01*
X260006Y137294D01*
X261864Y138064D01*
X262688Y138888D01*
X262964Y139084D01*
X263356Y139185D01*
X267652Y139399D01*
X268084Y139326D01*
X268421Y139103D01*
X268806Y138718D01*
X269017Y138411D01*
X269103Y138016D01*
X269029Y137619D01*
X268806Y137282D01*
X267756Y136232D01*
X267756Y129618D01*
X268649Y128726D01*
X269198Y128726D01*
X269564Y128657D01*
X269905Y128439D01*
X270134Y128106D01*
X270214Y127710D01*
X270214Y111785D01*
X270140Y111404D01*
X269916Y111067D01*
X268714Y109864D01*
X267944Y108006D01*
X267944Y105994D01*
X268714Y104136D01*
X270136Y102714D01*
X271994Y101944D01*
X274006Y101944D01*
X275864Y102714D01*
X277286Y104136D01*
X278056Y105994D01*
X278056Y108006D01*
X277286Y109864D01*
X275864Y111286D01*
X275413Y111473D01*
X275095Y111682D01*
X274866Y112015D01*
X274786Y112412D01*
X274786Y127710D01*
X274854Y128076D01*
X275072Y128416D01*
X275406Y128645D01*
X275802Y128726D01*
X276351Y128726D01*
X277244Y129618D01*
X277244Y131671D01*
X277312Y132037D01*
X277530Y132378D01*
X277864Y132607D01*
X278260Y132687D01*
X294337Y132687D01*
X294718Y132613D01*
X295055Y132389D01*
X296070Y131374D01*
X296274Y131082D01*
X296367Y130688D01*
X296300Y130290D01*
X296082Y129949D01*
X295748Y129720D01*
X295472Y129664D01*
X293960Y128152D01*
X293960Y125862D01*
X308040Y125862D01*
X308040Y128152D01*
X306531Y129661D01*
X306297Y129703D01*
X305953Y129915D01*
X305719Y130245D01*
X305632Y130640D01*
X305706Y131037D01*
X305930Y131374D01*
X307024Y132469D01*
X307024Y137731D01*
X306131Y138624D01*
X295869Y138624D01*
X295055Y137811D01*
X294733Y137593D01*
X294337Y137513D01*
X289429Y137513D01*
X289063Y137581D01*
X288722Y137799D01*
X288493Y138133D01*
X288413Y138529D01*
X288413Y140740D01*
X288481Y141106D01*
X288699Y141447D01*
X289033Y141676D01*
X289182Y141706D01*
X289563Y142087D01*
X289870Y142298D01*
X290265Y142385D01*
X290663Y142311D01*
X291000Y142087D01*
X292347Y140740D01*
X295313Y140740D01*
X295313Y152260D01*
X292347Y152260D01*
X291000Y150913D01*
X290693Y150702D01*
X290298Y150615D01*
X289900Y150689D01*
X289563Y150913D01*
X289232Y151244D01*
X282618Y151244D01*
X281726Y150351D01*
X281726Y142649D01*
X282629Y141745D01*
X282937Y141688D01*
X283278Y141470D01*
X283507Y141136D01*
X283587Y140740D01*
X283587Y138529D01*
X283519Y138163D01*
X283301Y137822D01*
X282967Y137593D01*
X282571Y137513D01*
X277442Y137513D01*
X277091Y137576D01*
X276746Y137788D01*
X276513Y138118D01*
X276426Y138513D01*
X276500Y138910D01*
X276723Y139247D01*
X277244Y139768D01*
X277244Y146382D01*
X276351Y147275D01*
X268649Y147275D01*
X267916Y146542D01*
X267640Y146346D01*
X267249Y146246D01*
X262943Y146030D01*
X262511Y146103D01*
X262174Y146327D01*
X261864Y146636D01*
X260006Y147406D01*
X257994Y147406D01*
X256136Y146636D01*
X255576Y146077D01*
X255254Y145859D01*
X254858Y145779D01*
X233930Y145779D01*
X223571Y135420D01*
X223571Y59142D01*
X223497Y58761D01*
X223273Y58424D01*
X222714Y57864D01*
X221944Y56006D01*
X221944Y53994D01*
X222714Y52136D01*
X223273Y51576D01*
X223491Y51254D01*
X223571Y50858D01*
X223571Y35580D01*
X245130Y14020D01*
X245334Y13728D01*
X245427Y13334D01*
X245360Y12936D01*
X245142Y12595D01*
X244808Y12366D01*
G37*
%LPC*%
G36*
X387815Y135416D02*
X399186Y135416D01*
X399186Y136599D01*
X399234Y136908D01*
X399431Y137261D01*
X399751Y137509D01*
X400141Y137613D01*
X400542Y137556D01*
X400602Y137535D01*
X401064Y137476D01*
X413955Y137476D01*
X414268Y137504D01*
X414528Y137575D01*
X414765Y137687D01*
X415185Y137786D01*
X415583Y137712D01*
X415920Y137488D01*
X416448Y136960D01*
X419738Y136960D01*
X419738Y156040D01*
X416448Y156040D01*
X415729Y155322D01*
X415407Y155104D01*
X415011Y155024D01*
X413552Y155024D01*
X413171Y155098D01*
X412834Y155322D01*
X410575Y157580D01*
X410371Y157873D01*
X410278Y158266D01*
X410346Y158665D01*
X410564Y159005D01*
X410897Y159234D01*
X411294Y159315D01*
X412584Y159315D01*
X412584Y170686D01*
X409431Y170686D01*
X408941Y170811D01*
X408633Y171073D01*
X408451Y171434D01*
X408425Y171528D01*
X408318Y171754D01*
X408032Y172123D01*
X406110Y174046D01*
X405868Y174248D01*
X405634Y174381D01*
X405398Y174465D01*
X404936Y174524D01*
X391045Y174524D01*
X390732Y174496D01*
X390472Y174425D01*
X390246Y174318D01*
X389877Y174032D01*
X386954Y171110D01*
X386752Y170868D01*
X386619Y170634D01*
X386535Y170398D01*
X386476Y169936D01*
X386476Y160709D01*
X386399Y160320D01*
X386396Y160314D01*
X386396Y158972D01*
X386322Y158591D01*
X386098Y158254D01*
X381746Y153902D01*
X381424Y153684D01*
X381028Y153604D01*
X379686Y153604D01*
X379680Y153601D01*
X379291Y153524D01*
X365045Y153524D01*
X364732Y153496D01*
X364472Y153425D01*
X364246Y153318D01*
X363877Y153032D01*
X361954Y151110D01*
X361752Y150868D01*
X361619Y150634D01*
X361535Y150398D01*
X361476Y149936D01*
X361476Y143045D01*
X361504Y142732D01*
X361575Y142472D01*
X361682Y142246D01*
X361968Y141877D01*
X363890Y139954D01*
X364132Y139752D01*
X364366Y139619D01*
X364602Y139535D01*
X365064Y139476D01*
X386799Y139476D01*
X387165Y139408D01*
X387505Y139190D01*
X387734Y138856D01*
X387815Y138460D01*
X387815Y135416D01*
G37*
G36*
X414108Y165762D02*
X418686Y165762D01*
X418686Y169198D01*
X417198Y170686D01*
X414108Y170686D01*
X414108Y165762D01*
G37*
G36*
X92608Y165762D02*
X97186Y165762D01*
X97186Y169198D01*
X95698Y170686D01*
X92608Y170686D01*
X92608Y165762D01*
G37*
G36*
X414108Y159315D02*
X417198Y159315D01*
X418686Y160802D01*
X418686Y164238D01*
X414108Y164238D01*
X414108Y159315D01*
G37*
G36*
X92608Y159315D02*
X95698Y159315D01*
X97186Y160802D01*
X97186Y164238D01*
X92608Y164238D01*
X92608Y159315D01*
G37*
G36*
X530762Y156262D02*
X537040Y156262D01*
X537040Y158552D01*
X535552Y160040D01*
X530762Y160040D01*
X530762Y156262D01*
G37*
G36*
X522960Y156262D02*
X529238Y156262D01*
X529238Y160040D01*
X524448Y160040D01*
X522960Y158552D01*
X522960Y156262D01*
G37*
G36*
X469945Y145694D02*
X472055Y145694D01*
X474006Y146502D01*
X475412Y147908D01*
X475734Y148126D01*
X476131Y148206D01*
X480710Y148206D01*
X481076Y148138D01*
X481416Y147920D01*
X481645Y147586D01*
X481726Y147190D01*
X481726Y146849D01*
X482618Y145956D01*
X489232Y145956D01*
X490282Y147006D01*
X490589Y147217D01*
X490984Y147303D01*
X491381Y147229D01*
X491718Y147006D01*
X492768Y145956D01*
X499382Y145956D01*
X500275Y146849D01*
X500275Y146890D01*
X500343Y147256D01*
X500561Y147597D01*
X500894Y147826D01*
X501291Y147906D01*
X507518Y147906D01*
X507899Y147832D01*
X508236Y147608D01*
X508869Y146976D01*
X519131Y146976D01*
X520024Y147869D01*
X520024Y153131D01*
X519131Y154024D01*
X508869Y154024D01*
X508636Y153792D01*
X508314Y153574D01*
X507918Y153494D01*
X501291Y153494D01*
X500924Y153562D01*
X500584Y153780D01*
X500355Y154114D01*
X500275Y154510D01*
X500275Y154551D01*
X499382Y155444D01*
X492768Y155444D01*
X491718Y154394D01*
X491411Y154184D01*
X491016Y154097D01*
X490619Y154171D01*
X490282Y154394D01*
X489232Y155444D01*
X482618Y155444D01*
X481666Y154492D01*
X481657Y154444D01*
X481439Y154103D01*
X481106Y153874D01*
X480710Y153794D01*
X476131Y153794D01*
X475749Y153868D01*
X475412Y154092D01*
X474006Y155498D01*
X472055Y156306D01*
X469945Y156306D01*
X467994Y155498D01*
X466502Y154006D01*
X465694Y152055D01*
X465694Y149945D01*
X466502Y147994D01*
X467994Y146502D01*
X469945Y145694D01*
G37*
G36*
X455262Y148710D02*
X458772Y148710D01*
X460260Y150197D01*
X460260Y153163D01*
X455262Y153163D01*
X455262Y148710D01*
G37*
G36*
X450228Y148710D02*
X453738Y148710D01*
X453738Y153163D01*
X448740Y153163D01*
X448740Y150197D01*
X450228Y148710D01*
G37*
G36*
X296837Y147262D02*
X301291Y147262D01*
X301291Y150772D01*
X299803Y152260D01*
X296837Y152260D01*
X296837Y147262D01*
G37*
G36*
X554837Y146162D02*
X559291Y146162D01*
X559291Y149672D01*
X557803Y151160D01*
X554837Y151160D01*
X554837Y146162D01*
G37*
G36*
X94337Y144262D02*
X98791Y144262D01*
X98791Y147772D01*
X97303Y149260D01*
X94337Y149260D01*
X94337Y144262D01*
G37*
G36*
X327710Y142762D02*
X332163Y142762D01*
X332163Y147760D01*
X329197Y147760D01*
X327710Y146272D01*
X327710Y142762D01*
G37*
G36*
X353994Y109944D02*
X356006Y109944D01*
X357864Y110714D01*
X359286Y112136D01*
X360056Y113994D01*
X360056Y116006D01*
X359286Y117864D01*
X357829Y119321D01*
X357595Y119475D01*
X357366Y119808D01*
X357286Y120205D01*
X357286Y136947D01*
X350947Y143286D01*
X348291Y143286D01*
X347924Y143354D01*
X347584Y143572D01*
X347355Y143906D01*
X347275Y144302D01*
X347275Y145851D01*
X346382Y146744D01*
X339768Y146744D01*
X339437Y146413D01*
X339130Y146202D01*
X338735Y146115D01*
X338337Y146189D01*
X338000Y146413D01*
X336653Y147760D01*
X333687Y147760D01*
X333687Y141238D01*
X327710Y141238D01*
X327710Y137728D01*
X329004Y136433D01*
X329215Y136126D01*
X329302Y135731D01*
X329228Y135333D01*
X329004Y134996D01*
X327560Y133552D01*
X327560Y128762D01*
X332862Y128762D01*
X332862Y120960D01*
X335152Y120960D01*
X336661Y122469D01*
X336703Y122703D01*
X336915Y123047D01*
X337245Y123281D01*
X337640Y123368D01*
X338037Y123294D01*
X338374Y123070D01*
X339469Y121976D01*
X344731Y121976D01*
X345624Y122869D01*
X345624Y133195D01*
X345500Y133391D01*
X345440Y133791D01*
X345572Y136294D01*
X345639Y136606D01*
X345857Y136947D01*
X346190Y137176D01*
X346330Y137204D01*
X347542Y138416D01*
X347864Y138634D01*
X348261Y138714D01*
X348632Y138714D01*
X349014Y138640D01*
X349351Y138416D01*
X352416Y135351D01*
X352634Y135029D01*
X352714Y134632D01*
X352714Y120205D01*
X352643Y119831D01*
X352422Y119492D01*
X352175Y119325D01*
X350714Y117864D01*
X349944Y116006D01*
X349944Y113994D01*
X350714Y112136D01*
X352136Y110714D01*
X353994Y109944D01*
G37*
G36*
X296837Y140740D02*
X299803Y140740D01*
X301291Y142228D01*
X301291Y145738D01*
X296837Y145738D01*
X296837Y140740D01*
G37*
G36*
X554837Y139640D02*
X557803Y139640D01*
X559291Y141128D01*
X559291Y144638D01*
X554837Y144638D01*
X554837Y139640D01*
G37*
G36*
X94337Y137740D02*
X97303Y137740D01*
X98791Y139228D01*
X98791Y142738D01*
X94337Y142738D01*
X94337Y137740D01*
G37*
G36*
X442240Y134337D02*
X447238Y134337D01*
X447238Y138791D01*
X443728Y138791D01*
X442240Y137303D01*
X442240Y134337D01*
G37*
G36*
X448762Y134337D02*
X453760Y134337D01*
X453760Y137303D01*
X452272Y138791D01*
X448762Y138791D01*
X448762Y134337D01*
G37*
G36*
X521960Y130262D02*
X528238Y130262D01*
X528238Y134040D01*
X523448Y134040D01*
X521960Y132552D01*
X521960Y130262D01*
G37*
G36*
X529762Y130262D02*
X536040Y130262D01*
X536040Y132552D01*
X534552Y134040D01*
X529762Y134040D01*
X529762Y130262D01*
G37*
G36*
X394262Y129314D02*
X397698Y129314D01*
X399186Y130802D01*
X399186Y133892D01*
X394262Y133892D01*
X394262Y129314D01*
G37*
G36*
X389302Y129314D02*
X392738Y129314D01*
X392738Y133892D01*
X387815Y133892D01*
X387815Y130802D01*
X389302Y129314D01*
G37*
G36*
X426369Y112976D02*
X433631Y112976D01*
X434524Y113869D01*
X434524Y117055D01*
X434592Y117421D01*
X434810Y117762D01*
X435144Y117991D01*
X435540Y118071D01*
X445914Y118071D01*
X446383Y117957D01*
X446680Y117802D01*
X447380Y118024D01*
X447686Y118071D01*
X448420Y118071D01*
X448657Y118308D01*
X449069Y118558D01*
X449388Y118659D01*
X449398Y118678D01*
X449570Y118916D01*
X449903Y119145D01*
X450300Y119226D01*
X451851Y119226D01*
X452744Y120118D01*
X452744Y126732D01*
X452413Y127063D01*
X452202Y127370D01*
X452115Y127765D01*
X452189Y128163D01*
X452413Y128500D01*
X453760Y129847D01*
X453760Y132813D01*
X442240Y132813D01*
X442240Y129847D01*
X443587Y128500D01*
X443798Y128193D01*
X443885Y127798D01*
X443811Y127400D01*
X443587Y127063D01*
X443256Y126732D01*
X443256Y125945D01*
X443188Y125579D01*
X442970Y125238D01*
X442636Y125009D01*
X442240Y124929D01*
X435540Y124929D01*
X435174Y124997D01*
X434833Y125215D01*
X434604Y125549D01*
X434524Y125945D01*
X434524Y129131D01*
X433631Y130024D01*
X426369Y130024D01*
X425476Y129131D01*
X425476Y113869D01*
X426369Y112976D01*
G37*
G36*
X407369Y112976D02*
X414631Y112976D01*
X415524Y113869D01*
X415524Y129131D01*
X414631Y130024D01*
X407369Y130024D01*
X406476Y129131D01*
X406476Y125945D01*
X406408Y125579D01*
X406190Y125238D01*
X405856Y125009D01*
X405460Y124929D01*
X371642Y124929D01*
X371261Y125003D01*
X370924Y125227D01*
X369864Y126286D01*
X368006Y127056D01*
X365994Y127056D01*
X364136Y126286D01*
X362714Y124864D01*
X361944Y123006D01*
X361944Y120994D01*
X362714Y119136D01*
X364136Y117714D01*
X365994Y116944D01*
X368006Y116944D01*
X369864Y117714D01*
X369924Y117773D01*
X370246Y117991D01*
X370642Y118071D01*
X405460Y118071D01*
X405826Y118003D01*
X406167Y117785D01*
X406396Y117451D01*
X406476Y117055D01*
X406476Y113869D01*
X407369Y112976D01*
G37*
G36*
X469945Y118694D02*
X472055Y118694D01*
X474006Y119502D01*
X475412Y120908D01*
X475734Y121126D01*
X476131Y121206D01*
X479710Y121206D01*
X480076Y121138D01*
X480416Y120920D01*
X480551Y120723D01*
X481618Y119656D01*
X488232Y119656D01*
X489282Y120706D01*
X489589Y120917D01*
X489984Y121003D01*
X490381Y120929D01*
X490718Y120706D01*
X491768Y119656D01*
X498382Y119656D01*
X499275Y120549D01*
X499275Y120590D01*
X499343Y120956D01*
X499561Y121297D01*
X499894Y121526D01*
X500291Y121606D01*
X506818Y121606D01*
X507199Y121532D01*
X507536Y121308D01*
X507869Y120976D01*
X518131Y120976D01*
X519024Y121869D01*
X519024Y127131D01*
X518131Y128024D01*
X507869Y128024D01*
X507336Y127492D01*
X507014Y127274D01*
X506618Y127194D01*
X500291Y127194D01*
X499924Y127262D01*
X499584Y127480D01*
X499355Y127814D01*
X499275Y128210D01*
X499275Y128251D01*
X498382Y129144D01*
X491768Y129144D01*
X490718Y128094D01*
X490411Y127884D01*
X490016Y127797D01*
X489619Y127871D01*
X489282Y128094D01*
X488232Y129144D01*
X481618Y129144D01*
X480726Y128251D01*
X480726Y127810D01*
X480657Y127444D01*
X480439Y127103D01*
X480106Y126874D01*
X479710Y126794D01*
X476131Y126794D01*
X475749Y126868D01*
X475412Y127092D01*
X474006Y128498D01*
X472055Y129306D01*
X469945Y129306D01*
X467994Y128498D01*
X466502Y127006D01*
X465694Y125055D01*
X465694Y122945D01*
X466502Y120994D01*
X467994Y119502D01*
X469945Y118694D01*
G37*
G36*
X329048Y120960D02*
X331338Y120960D01*
X331338Y127238D01*
X327560Y127238D01*
X327560Y122448D01*
X329048Y120960D01*
G37*
G36*
X301762Y120560D02*
X306552Y120560D01*
X308040Y122048D01*
X308040Y124338D01*
X301762Y124338D01*
X301762Y120560D01*
G37*
G36*
X295448Y120560D02*
X300238Y120560D01*
X300238Y124338D01*
X293960Y124338D01*
X293960Y122048D01*
X295448Y120560D01*
G37*
G36*
X529762Y104762D02*
X536040Y104762D01*
X536040Y107052D01*
X534552Y108540D01*
X529762Y108540D01*
X529762Y104762D01*
G37*
G36*
X521960Y104762D02*
X528238Y104762D01*
X528238Y108540D01*
X523448Y108540D01*
X521960Y107052D01*
X521960Y104762D01*
G37*
G36*
X481618Y94456D02*
X488232Y94456D01*
X489282Y95506D01*
X489589Y95717D01*
X489984Y95803D01*
X490381Y95729D01*
X490718Y95506D01*
X491768Y94456D01*
X498382Y94456D01*
X499275Y95349D01*
X499275Y95390D01*
X499343Y95756D01*
X499561Y96097D01*
X499894Y96326D01*
X500291Y96406D01*
X506518Y96406D01*
X506899Y96332D01*
X507236Y96108D01*
X507869Y95476D01*
X518131Y95476D01*
X519024Y96369D01*
X519024Y101631D01*
X518131Y102524D01*
X507869Y102524D01*
X507636Y102292D01*
X507314Y102074D01*
X506918Y101994D01*
X500291Y101994D01*
X499924Y102062D01*
X499584Y102280D01*
X499355Y102614D01*
X499275Y103010D01*
X499275Y103051D01*
X498382Y103944D01*
X491768Y103944D01*
X490718Y102894D01*
X490411Y102684D01*
X490016Y102597D01*
X489619Y102671D01*
X489282Y102894D01*
X488232Y103944D01*
X481618Y103944D01*
X480726Y103051D01*
X480726Y103010D01*
X480657Y102644D01*
X480439Y102303D01*
X480106Y102074D01*
X479710Y101994D01*
X475624Y101994D01*
X475251Y102065D01*
X474912Y102286D01*
X474686Y102621D01*
X474498Y103074D01*
X473006Y104566D01*
X471055Y105374D01*
X468945Y105374D01*
X466994Y104566D01*
X465502Y103074D01*
X464694Y101123D01*
X464694Y99013D01*
X465502Y97062D01*
X466994Y95570D01*
X468945Y94762D01*
X471055Y94762D01*
X473006Y95570D01*
X473544Y96108D01*
X473866Y96326D01*
X474263Y96406D01*
X479710Y96406D01*
X480076Y96338D01*
X480416Y96120D01*
X480645Y95786D01*
X480726Y95390D01*
X480726Y95349D01*
X481618Y94456D01*
G37*
G36*
X120806Y85226D02*
X124694Y85226D01*
X128287Y86714D01*
X131036Y89463D01*
X132524Y93056D01*
X132524Y96944D01*
X131036Y100537D01*
X128287Y103286D01*
X124694Y104774D01*
X120806Y104774D01*
X117213Y103286D01*
X114464Y100537D01*
X112976Y96944D01*
X112976Y93056D01*
X114464Y89463D01*
X117213Y86714D01*
X120806Y85226D01*
G37*
G36*
X553837Y94662D02*
X558291Y94662D01*
X558291Y98172D01*
X556803Y99660D01*
X553837Y99660D01*
X553837Y94662D01*
G37*
G36*
X673728Y91710D02*
X677238Y91710D01*
X677238Y96163D01*
X672240Y96163D01*
X672240Y93197D01*
X673728Y91710D01*
G37*
G36*
X678762Y91710D02*
X682272Y91710D01*
X683760Y93197D01*
X683760Y96163D01*
X678762Y96163D01*
X678762Y91710D01*
G37*
G36*
X328615Y90408D02*
X333538Y90408D01*
X333538Y94986D01*
X330102Y94986D01*
X328615Y93498D01*
X328615Y90408D01*
G37*
G36*
X335062Y90408D02*
X339986Y90408D01*
X339986Y93498D01*
X338498Y94986D01*
X335062Y94986D01*
X335062Y90408D01*
G37*
G36*
X385662Y90308D02*
X390586Y90308D01*
X390586Y93398D01*
X389098Y94886D01*
X385662Y94886D01*
X385662Y90308D01*
G37*
G36*
X379215Y90308D02*
X384138Y90308D01*
X384138Y94886D01*
X380702Y94886D01*
X379215Y93398D01*
X379215Y90308D01*
G37*
G36*
X553837Y88140D02*
X556803Y88140D01*
X558291Y89628D01*
X558291Y93138D01*
X553837Y93138D01*
X553837Y88140D01*
G37*
G36*
X431762Y88762D02*
X436540Y88762D01*
X436540Y90252D01*
X435052Y91740D01*
X431762Y91740D01*
X431762Y88762D01*
G37*
G36*
X354820Y85862D02*
X360638Y85862D01*
X360638Y91680D01*
X360091Y91680D01*
X357673Y90678D01*
X355822Y88827D01*
X354820Y86409D01*
X354820Y85862D01*
G37*
G36*
X362162Y85862D02*
X367980Y85862D01*
X367980Y86409D01*
X366978Y88827D01*
X365127Y90678D01*
X362709Y91680D01*
X362162Y91680D01*
X362162Y85862D01*
G37*
G36*
X484020Y67362D02*
X489838Y67362D01*
X489838Y73180D01*
X489291Y73180D01*
X486873Y72178D01*
X485022Y70327D01*
X484020Y67909D01*
X484020Y67362D01*
G37*
G36*
X431762Y64260D02*
X435052Y64260D01*
X436540Y65748D01*
X436540Y67238D01*
X431762Y67238D01*
X431762Y64260D01*
G37*
G36*
X193869Y31976D02*
X201131Y31976D01*
X202024Y32869D01*
X202024Y41131D01*
X201035Y42120D01*
X200738Y42310D01*
X200509Y42644D01*
X200429Y43040D01*
X200429Y50504D01*
X200503Y50886D01*
X200727Y51223D01*
X201498Y51994D01*
X202306Y53945D01*
X202306Y56055D01*
X201498Y58006D01*
X200006Y59498D01*
X198055Y60306D01*
X195945Y60306D01*
X193994Y59498D01*
X192502Y58006D01*
X191694Y56055D01*
X191694Y53945D01*
X192502Y51994D01*
X193273Y51223D01*
X193491Y50901D01*
X193571Y50504D01*
X193571Y42147D01*
X193497Y41766D01*
X193273Y41429D01*
X192976Y41131D01*
X192976Y32869D01*
X193869Y31976D01*
G37*
%LPD*%
G36*
X1053206Y10240D02*
X1052810Y10160D01*
X1049846Y10160D01*
X1049495Y10223D01*
X1049151Y10435D01*
X1048917Y10765D01*
X1048830Y11160D01*
X1048904Y11557D01*
X1049127Y11894D01*
X1050186Y12953D01*
X1050186Y18610D01*
X1050254Y18976D01*
X1050472Y19316D01*
X1050806Y19545D01*
X1051202Y19626D01*
X1051751Y19626D01*
X1052644Y20518D01*
X1052644Y27132D01*
X1051594Y28182D01*
X1051384Y28489D01*
X1051297Y28884D01*
X1051371Y29281D01*
X1051594Y29618D01*
X1052644Y30668D01*
X1052644Y37282D01*
X1051751Y38175D01*
X1051202Y38175D01*
X1050836Y38243D01*
X1050495Y38461D01*
X1050266Y38794D01*
X1050186Y39191D01*
X1050186Y45944D01*
X1050254Y46310D01*
X1050472Y46651D01*
X1050806Y46880D01*
X1051202Y46960D01*
X1054238Y46960D01*
X1054238Y57040D01*
X1051406Y57040D01*
X1051232Y56920D01*
X1050837Y56833D01*
X1050439Y56908D01*
X1050102Y57131D01*
X1048549Y58684D01*
X1043947Y63286D01*
X1038040Y63286D01*
X1037674Y63354D01*
X1037333Y63572D01*
X1037104Y63906D01*
X1037068Y64088D01*
X1036131Y65024D01*
X1032132Y65024D01*
X1031781Y65087D01*
X1031437Y65299D01*
X1031203Y65629D01*
X1031116Y66024D01*
X1031190Y66421D01*
X1031414Y66758D01*
X1031524Y66869D01*
X1031524Y73131D01*
X1030631Y74024D01*
X1024369Y74024D01*
X1023476Y73131D01*
X1023476Y66869D01*
X1023586Y66758D01*
X1023790Y66466D01*
X1023883Y66072D01*
X1023816Y65674D01*
X1023598Y65333D01*
X1023264Y65104D01*
X1022868Y65024D01*
X1021132Y65024D01*
X1020781Y65087D01*
X1020437Y65299D01*
X1020203Y65629D01*
X1020116Y66024D01*
X1020190Y66421D01*
X1020414Y66758D01*
X1020524Y66869D01*
X1020524Y73131D01*
X1019631Y74024D01*
X1013369Y74024D01*
X1012476Y73131D01*
X1012476Y66869D01*
X1012586Y66758D01*
X1012790Y66466D01*
X1012883Y66072D01*
X1012816Y65674D01*
X1012598Y65333D01*
X1012264Y65104D01*
X1011868Y65024D01*
X1010132Y65024D01*
X1009781Y65087D01*
X1009437Y65299D01*
X1009203Y65629D01*
X1009116Y66024D01*
X1009190Y66421D01*
X1009414Y66758D01*
X1009524Y66869D01*
X1009524Y73131D01*
X1008631Y74024D01*
X1002369Y74024D01*
X1001476Y73131D01*
X1001476Y72685D01*
X1001416Y72342D01*
X1001206Y71996D01*
X1000879Y71760D01*
X1000484Y71670D01*
X1000086Y71741D01*
X999747Y71961D01*
X999521Y72296D01*
X999286Y72864D01*
X997864Y74286D01*
X996006Y75056D01*
X993994Y75056D01*
X992092Y74268D01*
X991849Y74104D01*
X991453Y74024D01*
X991369Y74024D01*
X990476Y73131D01*
X990476Y72492D01*
X990399Y72103D01*
X990116Y71422D01*
X989924Y71121D01*
X989596Y70885D01*
X989202Y70795D01*
X988804Y70866D01*
X988465Y71086D01*
X988239Y71422D01*
X987768Y72559D01*
X987604Y72801D01*
X987541Y73114D01*
X986631Y74024D01*
X986355Y74024D01*
X985966Y74101D01*
X984506Y74706D01*
X982494Y74706D01*
X981034Y74101D01*
X980645Y74024D01*
X980369Y74024D01*
X979460Y73115D01*
X979402Y72816D01*
X979234Y72562D01*
X978444Y70656D01*
X978444Y68645D01*
X979214Y66786D01*
X979242Y66758D01*
X979446Y66466D01*
X979539Y66072D01*
X979471Y65674D01*
X979253Y65333D01*
X978920Y65104D01*
X978523Y65024D01*
X974869Y65024D01*
X973976Y64131D01*
X973976Y62478D01*
X973916Y62135D01*
X973706Y61789D01*
X973379Y61552D01*
X972984Y61462D01*
X972586Y61533D01*
X972247Y61754D01*
X972021Y62089D01*
X971283Y63873D01*
X969873Y65283D01*
X968006Y66056D01*
X965994Y66056D01*
X964929Y65615D01*
X964572Y65538D01*
X964174Y65606D01*
X963833Y65824D01*
X963604Y66157D01*
X963524Y66553D01*
X963524Y68851D01*
X963589Y69209D01*
X963805Y69552D01*
X964136Y69783D01*
X964532Y69867D01*
X964929Y69789D01*
X965994Y69348D01*
X968006Y69348D01*
X969864Y70118D01*
X971286Y71540D01*
X972056Y73398D01*
X972056Y75410D01*
X971286Y77268D01*
X970329Y78226D01*
X970125Y78518D01*
X970032Y78912D01*
X970099Y79310D01*
X970317Y79651D01*
X970651Y79880D01*
X971047Y79960D01*
X972052Y79960D01*
X973540Y81448D01*
X973540Y84238D01*
X963404Y84238D01*
X963392Y84174D01*
X963174Y83833D01*
X962840Y83604D01*
X962444Y83524D01*
X956572Y83524D01*
X956206Y83592D01*
X955865Y83810D01*
X955636Y84144D01*
X955556Y84540D01*
X955556Y85459D01*
X955621Y85817D01*
X955837Y86160D01*
X956168Y86391D01*
X956564Y86475D01*
X956961Y86397D01*
X958494Y85762D01*
X960506Y85762D01*
X962043Y86399D01*
X962432Y86476D01*
X962444Y86476D01*
X962810Y86408D01*
X963151Y86190D01*
X963380Y85856D01*
X963399Y85762D01*
X973540Y85762D01*
X973540Y88552D01*
X972031Y90061D01*
X971797Y90103D01*
X971453Y90315D01*
X971219Y90645D01*
X971132Y91040D01*
X971206Y91437D01*
X971430Y91774D01*
X972783Y93127D01*
X973556Y94994D01*
X973556Y97006D01*
X972783Y98873D01*
X971373Y100283D01*
X970700Y100561D01*
X970400Y100754D01*
X970163Y101081D01*
X970073Y101476D01*
X970144Y101874D01*
X970365Y102213D01*
X970700Y102439D01*
X971373Y102717D01*
X972783Y104127D01*
X973556Y105994D01*
X973556Y108006D01*
X972783Y109873D01*
X971373Y111283D01*
X969506Y112056D01*
X967494Y112056D01*
X965627Y111283D01*
X965258Y110914D01*
X964966Y110710D01*
X964572Y110617D01*
X964174Y110684D01*
X963833Y110902D01*
X963604Y111236D01*
X963524Y111632D01*
X963524Y115631D01*
X962430Y116726D01*
X962226Y117018D01*
X962133Y117412D01*
X962200Y117810D01*
X962418Y118151D01*
X962752Y118380D01*
X963028Y118436D01*
X964540Y119948D01*
X964540Y122738D01*
X954404Y122738D01*
X954392Y122674D01*
X954174Y122333D01*
X953840Y122104D01*
X953444Y122024D01*
X947566Y122024D01*
X947192Y122095D01*
X946853Y122316D01*
X946627Y122651D01*
X946246Y123571D01*
X946170Y123928D01*
X946237Y124326D01*
X946455Y124667D01*
X946789Y124896D01*
X947185Y124976D01*
X953444Y124976D01*
X953810Y124908D01*
X954151Y124690D01*
X954380Y124356D01*
X954399Y124262D01*
X958738Y124262D01*
X958738Y128540D01*
X955540Y128540D01*
X955174Y128608D01*
X954833Y128826D01*
X954604Y129160D01*
X954524Y129556D01*
X954524Y132131D01*
X953430Y133226D01*
X953226Y133518D01*
X953133Y133912D01*
X953200Y134310D01*
X953418Y134651D01*
X953752Y134880D01*
X954028Y134936D01*
X955561Y136469D01*
X955603Y136703D01*
X955815Y137047D01*
X956145Y137281D01*
X956540Y137368D01*
X956937Y137294D01*
X957274Y137070D01*
X958369Y135976D01*
X962368Y135976D01*
X962719Y135913D01*
X963063Y135701D01*
X963297Y135371D01*
X963384Y134976D01*
X963310Y134579D01*
X963086Y134242D01*
X962976Y134131D01*
X962976Y129556D01*
X962908Y129190D01*
X962690Y128849D01*
X962356Y128620D01*
X961960Y128540D01*
X960262Y128540D01*
X960262Y124262D01*
X964540Y124262D01*
X964540Y125960D01*
X964608Y126326D01*
X964826Y126667D01*
X965160Y126896D01*
X965556Y126976D01*
X970131Y126976D01*
X971024Y127869D01*
X971024Y134131D01*
X970914Y134242D01*
X970710Y134534D01*
X970617Y134928D01*
X970684Y135326D01*
X970902Y135667D01*
X971236Y135896D01*
X971632Y135976D01*
X973368Y135976D01*
X973719Y135913D01*
X974063Y135701D01*
X974297Y135371D01*
X974384Y134976D01*
X974310Y134579D01*
X974086Y134242D01*
X973976Y134131D01*
X973976Y127869D01*
X974869Y126976D01*
X978868Y126976D01*
X979219Y126913D01*
X979563Y126701D01*
X979797Y126371D01*
X979884Y125976D01*
X979810Y125579D01*
X979586Y125242D01*
X979476Y125131D01*
X979476Y118869D01*
X980369Y117976D01*
X986631Y117976D01*
X987524Y118869D01*
X987524Y125131D01*
X987414Y125242D01*
X987210Y125534D01*
X987117Y125928D01*
X987184Y126326D01*
X987402Y126667D01*
X987736Y126896D01*
X988132Y126976D01*
X989868Y126976D01*
X990219Y126913D01*
X990563Y126701D01*
X990797Y126371D01*
X990884Y125976D01*
X990810Y125579D01*
X990586Y125242D01*
X990476Y125131D01*
X990476Y118869D01*
X991408Y117937D01*
X991564Y117908D01*
X991905Y117690D01*
X992134Y117356D01*
X992214Y116960D01*
X992214Y115053D01*
X996553Y110714D01*
X1002795Y110714D01*
X1003169Y110643D01*
X1003508Y110422D01*
X1003675Y110175D01*
X1005136Y108714D01*
X1006994Y107944D01*
X1009006Y107944D01*
X1010864Y108714D01*
X1012286Y110136D01*
X1013056Y111994D01*
X1013056Y114006D01*
X1012286Y115864D01*
X1010864Y117286D01*
X1010151Y117582D01*
X1009833Y117790D01*
X1009604Y118124D01*
X1009524Y118520D01*
X1009524Y125131D01*
X1009414Y125242D01*
X1009210Y125534D01*
X1009117Y125928D01*
X1009184Y126326D01*
X1009402Y126667D01*
X1009736Y126896D01*
X1010132Y126976D01*
X1011868Y126976D01*
X1012219Y126913D01*
X1012563Y126701D01*
X1012797Y126371D01*
X1012884Y125976D01*
X1012810Y125579D01*
X1012586Y125242D01*
X1012476Y125131D01*
X1012476Y118869D01*
X1013369Y117976D01*
X1019631Y117976D01*
X1020524Y118869D01*
X1020524Y124944D01*
X1020592Y125310D01*
X1020810Y125651D01*
X1021144Y125880D01*
X1021238Y125899D01*
X1021238Y131762D01*
X1022762Y131762D01*
X1022762Y125904D01*
X1022826Y125892D01*
X1023167Y125674D01*
X1023396Y125340D01*
X1023476Y124944D01*
X1023476Y118869D01*
X1024369Y117976D01*
X1030631Y117976D01*
X1031524Y118869D01*
X1031524Y124944D01*
X1031592Y125310D01*
X1031810Y125651D01*
X1032144Y125880D01*
X1032238Y125899D01*
X1032238Y131762D01*
X1038040Y131762D01*
X1038040Y133944D01*
X1038108Y134310D01*
X1038280Y134579D01*
X1037738Y134579D01*
X1037738Y145040D01*
X1034948Y145040D01*
X1033718Y143811D01*
X1033411Y143600D01*
X1033016Y143513D01*
X1032619Y143587D01*
X1032282Y143811D01*
X1031052Y145040D01*
X1028262Y145040D01*
X1028262Y139238D01*
X1026738Y139238D01*
X1026738Y145040D01*
X1023948Y145040D01*
X1022718Y143811D01*
X1022411Y143600D01*
X1022016Y143513D01*
X1021619Y143587D01*
X1021282Y143811D01*
X1020052Y145040D01*
X1017262Y145040D01*
X1017262Y139238D01*
X1015738Y139238D01*
X1015738Y145040D01*
X1012948Y145040D01*
X1011439Y143531D01*
X1011397Y143297D01*
X1011185Y142953D01*
X1010855Y142719D01*
X1010460Y142632D01*
X1010063Y142706D01*
X1009726Y142930D01*
X1008631Y144024D01*
X1002369Y144024D01*
X1001476Y143131D01*
X1001476Y136869D01*
X1001586Y136758D01*
X1001790Y136466D01*
X1001883Y136072D01*
X1001816Y135674D01*
X1001598Y135333D01*
X1001264Y135104D01*
X1000868Y135024D01*
X999132Y135024D01*
X998781Y135087D01*
X998437Y135299D01*
X998203Y135629D01*
X998116Y136024D01*
X998190Y136421D01*
X998414Y136758D01*
X998524Y136869D01*
X998524Y143131D01*
X997631Y144024D01*
X991369Y144024D01*
X990476Y143131D01*
X990476Y136869D01*
X990586Y136758D01*
X990790Y136466D01*
X990883Y136072D01*
X990816Y135674D01*
X990598Y135333D01*
X990264Y135104D01*
X989868Y135024D01*
X988132Y135024D01*
X987781Y135087D01*
X987437Y135299D01*
X987203Y135629D01*
X987116Y136024D01*
X987190Y136421D01*
X987414Y136758D01*
X987524Y136869D01*
X987524Y143131D01*
X986631Y144024D01*
X980369Y144024D01*
X979476Y143131D01*
X979476Y136869D01*
X979586Y136758D01*
X979790Y136466D01*
X979883Y136072D01*
X979816Y135674D01*
X979598Y135333D01*
X979264Y135104D01*
X978868Y135024D01*
X977132Y135024D01*
X976781Y135087D01*
X976437Y135299D01*
X976203Y135629D01*
X976116Y136024D01*
X976190Y136421D01*
X976414Y136758D01*
X976524Y136869D01*
X976524Y143131D01*
X976184Y143472D01*
X975966Y143794D01*
X975886Y144190D01*
X975886Y158960D01*
X975954Y159326D01*
X976172Y159667D01*
X976506Y159896D01*
X976902Y159976D01*
X977231Y159976D01*
X978124Y160869D01*
X978124Y163190D01*
X978192Y163556D01*
X978410Y163897D01*
X978744Y164126D01*
X979140Y164206D01*
X981499Y164206D01*
X981865Y164138D01*
X982205Y163920D01*
X982434Y163586D01*
X982515Y163190D01*
X982515Y161016D01*
X993886Y161016D01*
X993886Y164106D01*
X992892Y165100D01*
X992681Y165407D01*
X992594Y165802D01*
X992668Y166200D01*
X992870Y166503D01*
X992870Y173377D01*
X991977Y174270D01*
X984423Y174270D01*
X983531Y173377D01*
X983531Y171349D01*
X983484Y171046D01*
X983289Y170691D01*
X982971Y170441D01*
X981902Y169903D01*
X981445Y169794D01*
X979140Y169794D01*
X978774Y169862D01*
X978433Y170080D01*
X978204Y170414D01*
X978124Y170810D01*
X978124Y173131D01*
X977231Y174024D01*
X969969Y174024D01*
X969076Y173131D01*
X969076Y160869D01*
X969969Y159976D01*
X970298Y159976D01*
X970664Y159908D01*
X971005Y159690D01*
X971234Y159356D01*
X971314Y158960D01*
X971314Y150600D01*
X971251Y150249D01*
X971039Y149905D01*
X970709Y149671D01*
X970314Y149584D01*
X969917Y149658D01*
X969580Y149881D01*
X962184Y157277D01*
X961966Y157599D01*
X961886Y157996D01*
X961886Y158960D01*
X961954Y159326D01*
X962172Y159667D01*
X962506Y159896D01*
X962902Y159976D01*
X963231Y159976D01*
X964124Y160869D01*
X964124Y173131D01*
X963231Y174024D01*
X955969Y174024D01*
X955076Y173131D01*
X955076Y170810D01*
X955008Y170444D01*
X954790Y170103D01*
X954456Y169874D01*
X954060Y169794D01*
X952349Y169794D01*
X951851Y169925D01*
X949887Y171031D01*
X949679Y171186D01*
X949450Y171520D01*
X949370Y171916D01*
X949370Y174177D01*
X948477Y175070D01*
X940923Y175070D01*
X940031Y174177D01*
X940031Y167305D01*
X940219Y167030D01*
X940306Y166635D01*
X940232Y166237D01*
X940008Y165900D01*
X939015Y164906D01*
X939015Y161816D01*
X950386Y161816D01*
X950386Y163059D01*
X950508Y163543D01*
X950768Y163853D01*
X951128Y164037D01*
X951599Y164169D01*
X951872Y164206D01*
X954060Y164206D01*
X954426Y164138D01*
X954767Y163920D01*
X954996Y163586D01*
X955076Y163190D01*
X955076Y160869D01*
X955969Y159976D01*
X956298Y159976D01*
X956664Y159908D01*
X957005Y159690D01*
X957234Y159356D01*
X957314Y158960D01*
X957314Y155681D01*
X959587Y153408D01*
X959795Y153108D01*
X959884Y152714D01*
X959814Y152316D01*
X959593Y151977D01*
X959258Y151751D01*
X958136Y151286D01*
X956714Y149864D01*
X955944Y148006D01*
X955944Y145994D01*
X956002Y145855D01*
X956078Y145514D01*
X956017Y145115D01*
X955804Y144771D01*
X955474Y144537D01*
X955079Y144450D01*
X954682Y144524D01*
X954345Y144747D01*
X954052Y145040D01*
X951262Y145040D01*
X951262Y139238D01*
X949738Y139238D01*
X949738Y145040D01*
X946948Y145040D01*
X945460Y143552D01*
X945460Y141853D01*
X945395Y141494D01*
X945179Y141152D01*
X944848Y140921D01*
X944452Y140837D01*
X944055Y140914D01*
X942506Y141556D01*
X940494Y141556D01*
X938636Y140786D01*
X937214Y139364D01*
X936444Y137506D01*
X936444Y135494D01*
X937232Y133592D01*
X937396Y133349D01*
X937476Y132953D01*
X937476Y132810D01*
X937408Y132444D01*
X937190Y132103D01*
X936856Y131874D01*
X936460Y131794D01*
X933777Y131794D01*
X933396Y131868D01*
X933059Y132092D01*
X931864Y133286D01*
X930006Y134056D01*
X927994Y134056D01*
X926890Y133599D01*
X926534Y133522D01*
X926135Y133590D01*
X925795Y133808D01*
X925566Y134141D01*
X925486Y134537D01*
X925486Y137284D01*
X914115Y137284D01*
X914115Y134194D01*
X914589Y133719D01*
X914807Y133395D01*
X914887Y132999D01*
X914806Y132603D01*
X914577Y132270D01*
X914236Y132052D01*
X913837Y131985D01*
X911377Y132068D01*
X911060Y132130D01*
X910716Y132342D01*
X910482Y132672D01*
X910396Y133067D01*
X910470Y133464D01*
X910693Y133802D01*
X911186Y134294D01*
X911186Y137384D01*
X899815Y137384D01*
X899815Y134294D01*
X900745Y133363D01*
X900949Y133071D01*
X901042Y132677D01*
X900974Y132279D01*
X900756Y131938D01*
X900423Y131709D01*
X900027Y131629D01*
X895947Y131629D01*
X895566Y131703D01*
X895229Y131927D01*
X894431Y132724D01*
X890210Y132724D01*
X889851Y132789D01*
X889509Y133005D01*
X889278Y133336D01*
X889194Y133732D01*
X889271Y134129D01*
X889380Y134391D01*
X889380Y134938D01*
X876220Y134938D01*
X876220Y134391D01*
X876329Y134129D01*
X876405Y133772D01*
X876338Y133374D01*
X876120Y133033D01*
X875786Y132804D01*
X875390Y132724D01*
X871169Y132724D01*
X870371Y131927D01*
X870049Y131709D01*
X869653Y131629D01*
X866573Y131629D01*
X866222Y131692D01*
X865878Y131904D01*
X865644Y132234D01*
X865558Y132629D01*
X865632Y133026D01*
X865780Y133250D01*
X865780Y136378D01*
X859332Y136378D01*
X859332Y142480D01*
X855897Y142480D01*
X854409Y140993D01*
X854409Y140414D01*
X854346Y140063D01*
X854134Y139718D01*
X853804Y139485D01*
X853409Y139398D01*
X853012Y139472D01*
X852674Y139695D01*
X851531Y140838D01*
X844269Y140838D01*
X843771Y140341D01*
X843449Y140124D01*
X843053Y140043D01*
X795717Y140043D01*
X795336Y140118D01*
X794999Y140341D01*
X793741Y141599D01*
X791314Y142604D01*
X788686Y142604D01*
X786259Y141599D01*
X784401Y139741D01*
X783396Y137314D01*
X783396Y134686D01*
X784401Y132259D01*
X786259Y130401D01*
X788686Y129396D01*
X791314Y129396D01*
X793741Y130401D01*
X795599Y132259D01*
X795722Y132558D01*
X795931Y132876D01*
X796265Y133105D01*
X796661Y133185D01*
X842803Y133185D01*
X843154Y133123D01*
X843498Y132910D01*
X843732Y132581D01*
X843819Y132186D01*
X843745Y131788D01*
X843521Y131451D01*
X843376Y131306D01*
X843376Y124643D01*
X844269Y123750D01*
X851531Y123750D01*
X851796Y124015D01*
X852155Y124247D01*
X852555Y124312D01*
X854837Y124223D01*
X855179Y124149D01*
X855516Y123926D01*
X856318Y123124D01*
X863871Y123124D01*
X864824Y124077D01*
X864832Y124121D01*
X865050Y124462D01*
X865384Y124691D01*
X865780Y124771D01*
X869653Y124771D01*
X870034Y124697D01*
X870371Y124473D01*
X871169Y123676D01*
X875390Y123676D01*
X875749Y123611D01*
X876091Y123395D01*
X876322Y123064D01*
X876406Y122668D01*
X876329Y122271D01*
X876220Y122009D01*
X876220Y121462D01*
X889380Y121462D01*
X889380Y122009D01*
X889271Y122271D01*
X889195Y122628D01*
X889262Y123026D01*
X889480Y123367D01*
X889814Y123596D01*
X890210Y123676D01*
X894431Y123676D01*
X895229Y124473D01*
X895551Y124691D01*
X895947Y124771D01*
X900661Y124771D01*
X901043Y124697D01*
X901380Y124473D01*
X901830Y124023D01*
X902034Y123731D01*
X902127Y123337D01*
X902059Y122939D01*
X901841Y122598D01*
X901508Y122369D01*
X901111Y122289D01*
X900055Y122289D01*
X894723Y116958D01*
X894401Y116740D01*
X894005Y116660D01*
X889769Y116660D01*
X889411Y116725D01*
X889068Y116941D01*
X888837Y117272D01*
X888753Y117668D01*
X888831Y118065D01*
X889380Y119391D01*
X889380Y119938D01*
X876220Y119938D01*
X876220Y119391D01*
X876769Y118065D01*
X876846Y117708D01*
X876778Y117310D01*
X876561Y116969D01*
X876227Y116740D01*
X875831Y116660D01*
X787925Y116660D01*
X787544Y116734D01*
X787207Y116958D01*
X744697Y159468D01*
X591071Y159468D01*
X590720Y159531D01*
X590376Y159743D01*
X590142Y160073D01*
X590055Y160468D01*
X590129Y160865D01*
X590353Y161202D01*
X591286Y162136D01*
X592056Y163994D01*
X592056Y166006D01*
X591286Y167864D01*
X589829Y169321D01*
X589595Y169475D01*
X589366Y169808D01*
X589286Y170205D01*
X589286Y170947D01*
X584479Y175754D01*
X584464Y175775D01*
X583513Y176720D01*
X582844Y177389D01*
X581901Y177386D01*
X580555Y177386D01*
X580531Y177381D01*
X469964Y176982D01*
X469594Y177050D01*
X469253Y177268D01*
X469024Y177602D01*
X468948Y177978D01*
X468820Y178106D01*
X468616Y178398D01*
X468523Y178792D01*
X468591Y179190D01*
X468809Y179531D01*
X469142Y179760D01*
X469539Y179840D01*
X904710Y179840D01*
X905076Y179772D01*
X905417Y179554D01*
X905646Y179220D01*
X905726Y178824D01*
X905726Y178528D01*
X906925Y175634D01*
X909140Y173419D01*
X912034Y172220D01*
X915166Y172220D01*
X918060Y173419D01*
X920275Y175634D01*
X921474Y178528D01*
X921474Y178824D01*
X921542Y179190D01*
X921760Y179531D01*
X922094Y179760D01*
X922490Y179840D01*
X925698Y179840D01*
X926064Y179772D01*
X926405Y179554D01*
X926634Y179220D01*
X926714Y178824D01*
X926714Y161205D01*
X926643Y160831D01*
X926422Y160492D01*
X926175Y160325D01*
X924714Y158864D01*
X923944Y157006D01*
X923944Y154994D01*
X924714Y153136D01*
X926136Y151714D01*
X927994Y150944D01*
X930006Y150944D01*
X931864Y151714D01*
X933286Y153136D01*
X934056Y154994D01*
X934056Y157006D01*
X933286Y158864D01*
X931829Y160321D01*
X931595Y160475D01*
X931366Y160808D01*
X931286Y161205D01*
X931286Y176632D01*
X931360Y177014D01*
X931584Y177351D01*
X933775Y179542D01*
X934097Y179760D01*
X934494Y179840D01*
X970501Y179840D01*
X970882Y179766D01*
X971219Y179542D01*
X972136Y178626D01*
X973994Y177856D01*
X976006Y177856D01*
X977864Y178626D01*
X978781Y179542D01*
X979103Y179760D01*
X979499Y179840D01*
X1268324Y179840D01*
X1268690Y179772D01*
X1269031Y179554D01*
X1269260Y179220D01*
X1269340Y178824D01*
X1269340Y11176D01*
X1269272Y10810D01*
X1269054Y10469D01*
X1268720Y10240D01*
X1268324Y10160D01*
X1120564Y10160D01*
X1120213Y10223D01*
X1119869Y10435D01*
X1119635Y10765D01*
X1119548Y11160D01*
X1119622Y11557D01*
X1119846Y11894D01*
X1149394Y41443D01*
X1149394Y106715D01*
X1149462Y107081D01*
X1149680Y107421D01*
X1150014Y107650D01*
X1150410Y107731D01*
X1152101Y107731D01*
X1152994Y108623D01*
X1152994Y117873D01*
X1152101Y118766D01*
X1141099Y118766D01*
X1140207Y117873D01*
X1140207Y108623D01*
X1141099Y107731D01*
X1142790Y107731D01*
X1143156Y107662D01*
X1143497Y107444D01*
X1143726Y107111D01*
X1143806Y106715D01*
X1143806Y44178D01*
X1143732Y43797D01*
X1143508Y43460D01*
X1113140Y13092D01*
X1112818Y12874D01*
X1112422Y12794D01*
X1069744Y12794D01*
X1069371Y12865D01*
X1069032Y13086D01*
X1068806Y13421D01*
X1068375Y14460D01*
X1067255Y15580D01*
X1067051Y15873D01*
X1066958Y16266D01*
X1067026Y16665D01*
X1067244Y17005D01*
X1067578Y17234D01*
X1067974Y17315D01*
X1069884Y17315D01*
X1069884Y28686D01*
X1066794Y28686D01*
X1065854Y27746D01*
X1065562Y27542D01*
X1065168Y27449D01*
X1064770Y27517D01*
X1064429Y27735D01*
X1064200Y28068D01*
X1064120Y28464D01*
X1064120Y29237D01*
X1064194Y29618D01*
X1064418Y29955D01*
X1065598Y31136D01*
X1066368Y32994D01*
X1066368Y35006D01*
X1065598Y36864D01*
X1064176Y38286D01*
X1062318Y39056D01*
X1060306Y39056D01*
X1058448Y38286D01*
X1057026Y36864D01*
X1056256Y35006D01*
X1056256Y32994D01*
X1057026Y31136D01*
X1058234Y29927D01*
X1058452Y29605D01*
X1058532Y29209D01*
X1058532Y28686D01*
X1058464Y28319D01*
X1058246Y27979D01*
X1057912Y27750D01*
X1057524Y27671D01*
X1056630Y26777D01*
X1056630Y19223D01*
X1057535Y18318D01*
X1057742Y18018D01*
X1057832Y17624D01*
X1057761Y17226D01*
X1057541Y16887D01*
X1057267Y16702D01*
X1055025Y14460D01*
X1053826Y11566D01*
X1053826Y11176D01*
X1053758Y10810D01*
X1053540Y10469D01*
X1053206Y10240D01*
G37*
%LPC*%
G36*
X1141315Y161608D02*
X1146238Y161608D01*
X1146238Y166186D01*
X1142802Y166186D01*
X1141315Y164698D01*
X1141315Y161608D01*
G37*
G36*
X1147762Y161608D02*
X1152686Y161608D01*
X1152686Y164698D01*
X1151198Y166186D01*
X1147762Y166186D01*
X1147762Y161608D01*
G37*
G36*
X940502Y155714D02*
X943938Y155714D01*
X943938Y160292D01*
X939015Y160292D01*
X939015Y157202D01*
X940502Y155714D01*
G37*
G36*
X945462Y155714D02*
X948898Y155714D01*
X950386Y157202D01*
X950386Y160292D01*
X945462Y160292D01*
X945462Y155714D01*
G37*
G36*
X1177557Y53486D02*
X1181143Y53486D01*
X1184456Y54858D01*
X1186992Y57394D01*
X1188364Y60707D01*
X1188364Y64293D01*
X1186992Y67606D01*
X1184456Y70142D01*
X1182263Y71050D01*
X1181945Y71259D01*
X1181716Y71592D01*
X1181636Y71989D01*
X1181636Y118011D01*
X1181707Y118385D01*
X1181928Y118724D01*
X1182263Y118950D01*
X1184456Y119858D01*
X1186992Y122394D01*
X1188364Y125707D01*
X1188364Y129293D01*
X1186992Y132606D01*
X1184456Y135142D01*
X1181143Y136514D01*
X1177557Y136514D01*
X1174244Y135142D01*
X1171708Y132606D01*
X1170800Y130413D01*
X1170591Y130095D01*
X1170258Y129866D01*
X1169861Y129786D01*
X1154010Y129786D01*
X1153643Y129854D01*
X1153303Y130072D01*
X1153074Y130406D01*
X1152994Y130802D01*
X1152994Y134177D01*
X1152101Y135070D01*
X1151673Y135070D01*
X1151322Y135132D01*
X1150977Y135345D01*
X1150744Y135674D01*
X1150657Y136069D01*
X1150731Y136467D01*
X1150954Y136804D01*
X1151286Y137136D01*
X1152056Y138994D01*
X1152056Y141006D01*
X1151286Y142864D01*
X1149829Y144321D01*
X1149595Y144475D01*
X1149366Y144808D01*
X1149286Y145205D01*
X1149286Y145814D01*
X1149354Y146180D01*
X1149572Y146521D01*
X1149906Y146750D01*
X1150302Y146830D01*
X1150777Y146830D01*
X1151670Y147723D01*
X1151670Y154595D01*
X1151481Y154870D01*
X1151394Y155265D01*
X1151468Y155663D01*
X1151692Y156000D01*
X1152686Y156994D01*
X1152686Y160084D01*
X1141315Y160084D01*
X1141315Y156994D01*
X1142308Y156000D01*
X1142519Y155693D01*
X1142606Y155298D01*
X1142532Y154900D01*
X1142331Y154597D01*
X1142331Y147723D01*
X1143223Y146830D01*
X1143698Y146830D01*
X1144064Y146762D01*
X1144405Y146544D01*
X1144634Y146210D01*
X1144714Y145814D01*
X1144714Y145205D01*
X1144643Y144831D01*
X1144422Y144492D01*
X1144175Y144325D01*
X1142714Y142864D01*
X1141944Y141006D01*
X1141944Y138994D01*
X1142714Y137136D01*
X1143046Y136804D01*
X1143250Y136511D01*
X1143343Y136118D01*
X1143275Y135719D01*
X1143057Y135379D01*
X1142724Y135150D01*
X1142327Y135070D01*
X1141099Y135070D01*
X1140207Y134177D01*
X1140207Y124927D01*
X1141099Y124035D01*
X1152101Y124035D01*
X1152983Y124916D01*
X1153305Y125134D01*
X1153701Y125214D01*
X1169861Y125214D01*
X1170235Y125143D01*
X1170574Y124922D01*
X1170800Y124587D01*
X1171708Y122394D01*
X1174244Y119858D01*
X1176437Y118950D01*
X1176755Y118741D01*
X1176984Y118408D01*
X1177064Y118011D01*
X1177064Y71989D01*
X1176993Y71615D01*
X1176772Y71276D01*
X1176437Y71050D01*
X1174244Y70142D01*
X1171708Y67606D01*
X1170336Y64293D01*
X1170336Y60707D01*
X1171708Y57394D01*
X1174244Y54858D01*
X1177557Y53486D01*
G37*
G36*
X984002Y154914D02*
X987438Y154914D01*
X987438Y159492D01*
X982515Y159492D01*
X982515Y156402D01*
X984002Y154914D01*
G37*
G36*
X988962Y154914D02*
X992398Y154914D01*
X993886Y156402D01*
X993886Y159492D01*
X988962Y159492D01*
X988962Y154914D01*
G37*
G36*
X1049960Y140762D02*
X1054238Y140762D01*
X1054238Y145040D01*
X1051448Y145040D01*
X1049960Y143552D01*
X1049960Y140762D01*
G37*
G36*
X1055762Y134960D02*
X1058552Y134960D01*
X1060061Y136469D01*
X1060103Y136703D01*
X1060315Y137047D01*
X1060645Y137281D01*
X1061040Y137368D01*
X1061437Y137294D01*
X1061774Y137070D01*
X1062869Y135976D01*
X1069131Y135976D01*
X1070226Y137070D01*
X1070518Y137274D01*
X1070912Y137367D01*
X1071310Y137300D01*
X1071651Y137082D01*
X1071880Y136748D01*
X1071936Y136472D01*
X1073448Y134960D01*
X1076238Y134960D01*
X1076238Y145040D01*
X1073448Y145040D01*
X1071939Y143531D01*
X1071897Y143297D01*
X1071685Y142953D01*
X1071355Y142719D01*
X1070960Y142632D01*
X1070563Y142706D01*
X1070226Y142930D01*
X1069131Y144024D01*
X1062869Y144024D01*
X1061774Y142930D01*
X1061482Y142726D01*
X1061088Y142633D01*
X1060690Y142700D01*
X1060349Y142918D01*
X1060120Y143252D01*
X1060064Y143528D01*
X1058552Y145040D01*
X1055762Y145040D01*
X1055762Y134960D01*
G37*
G36*
X1039262Y140762D02*
X1043540Y140762D01*
X1043540Y143552D01*
X1042052Y145040D01*
X1039262Y145040D01*
X1039262Y140762D01*
G37*
G36*
X1077762Y140762D02*
X1082040Y140762D01*
X1082040Y143552D01*
X1080552Y145040D01*
X1077762Y145040D01*
X1077762Y140762D01*
G37*
G36*
X899815Y138908D02*
X904738Y138908D01*
X904738Y143486D01*
X901302Y143486D01*
X899815Y141998D01*
X899815Y138908D01*
G37*
G36*
X906262Y138908D02*
X911186Y138908D01*
X911186Y141998D01*
X909698Y143486D01*
X906262Y143486D01*
X906262Y138908D01*
G37*
G36*
X914115Y138808D02*
X919038Y138808D01*
X919038Y143386D01*
X915602Y143386D01*
X914115Y141898D01*
X914115Y138808D01*
G37*
G36*
X920562Y138808D02*
X925486Y138808D01*
X925486Y141898D01*
X923998Y143386D01*
X920562Y143386D01*
X920562Y138808D01*
G37*
G36*
X860856Y137902D02*
X865780Y137902D01*
X865780Y140993D01*
X864292Y142480D01*
X860856Y142480D01*
X860856Y137902D01*
G37*
G36*
X883562Y136462D02*
X889380Y136462D01*
X889380Y137009D01*
X888378Y139427D01*
X886527Y141278D01*
X884109Y142280D01*
X883562Y142280D01*
X883562Y136462D01*
G37*
G36*
X876220Y136462D02*
X882038Y136462D01*
X882038Y142280D01*
X881491Y142280D01*
X879073Y141278D01*
X877222Y139427D01*
X876220Y137009D01*
X876220Y136462D01*
G37*
G36*
X1039262Y134960D02*
X1042052Y134960D01*
X1043540Y136448D01*
X1043540Y139238D01*
X1039262Y139238D01*
X1039262Y134960D01*
G37*
G36*
X1051448Y134960D02*
X1054238Y134960D01*
X1054238Y139238D01*
X1049960Y139238D01*
X1049960Y136448D01*
X1051448Y134960D01*
G37*
G36*
X1077762Y134960D02*
X1080552Y134960D01*
X1082040Y136448D01*
X1082040Y139238D01*
X1077762Y139238D01*
X1077762Y134960D01*
G37*
G36*
X1225112Y128262D02*
X1234380Y128262D01*
X1234380Y129495D01*
X1232853Y133182D01*
X1230032Y136003D01*
X1226345Y137530D01*
X1225112Y137530D01*
X1225112Y128262D01*
G37*
G36*
X1214320Y128262D02*
X1223588Y128262D01*
X1223588Y137530D01*
X1222355Y137530D01*
X1218668Y136003D01*
X1215847Y133182D01*
X1214320Y129495D01*
X1214320Y128262D01*
G37*
G36*
X1033762Y125960D02*
X1036552Y125960D01*
X1038040Y127448D01*
X1038040Y130238D01*
X1033762Y130238D01*
X1033762Y125960D01*
G37*
G36*
X1222355Y117470D02*
X1223588Y117470D01*
X1223588Y126738D01*
X1214320Y126738D01*
X1214320Y125505D01*
X1215847Y121818D01*
X1218668Y118997D01*
X1222355Y117470D01*
G37*
G36*
X1225112Y117470D02*
X1226345Y117470D01*
X1230032Y118997D01*
X1232853Y121818D01*
X1234380Y125505D01*
X1234380Y126738D01*
X1225112Y126738D01*
X1225112Y117470D01*
G37*
G36*
X1039262Y113262D02*
X1043540Y113262D01*
X1043540Y116052D01*
X1042052Y117540D01*
X1039262Y117540D01*
X1039262Y113262D01*
G37*
G36*
X1033460Y113262D02*
X1037738Y113262D01*
X1037738Y117540D01*
X1034948Y117540D01*
X1033460Y116052D01*
X1033460Y113262D01*
G37*
G36*
X1034948Y107460D02*
X1037738Y107460D01*
X1037738Y111738D01*
X1033460Y111738D01*
X1033460Y108948D01*
X1034948Y107460D01*
G37*
G36*
X1039262Y107460D02*
X1042052Y107460D01*
X1043540Y108948D01*
X1043540Y111738D01*
X1039262Y111738D01*
X1039262Y107460D01*
G37*
G36*
X1039262Y80262D02*
X1043540Y80262D01*
X1043540Y83052D01*
X1042052Y84540D01*
X1039262Y84540D01*
X1039262Y80262D01*
G37*
G36*
X1033460Y80262D02*
X1037738Y80262D01*
X1037738Y84540D01*
X1034948Y84540D01*
X1033460Y83052D01*
X1033460Y80262D01*
G37*
G36*
X1034948Y74460D02*
X1037738Y74460D01*
X1037738Y78738D01*
X1033460Y78738D01*
X1033460Y75948D01*
X1034948Y74460D01*
G37*
G36*
X1039262Y74460D02*
X1042052Y74460D01*
X1043540Y75948D01*
X1043540Y78738D01*
X1039262Y78738D01*
X1039262Y74460D01*
G37*
G36*
X1214320Y63262D02*
X1223588Y63262D01*
X1223588Y72530D01*
X1222355Y72530D01*
X1218668Y71003D01*
X1215847Y68182D01*
X1214320Y64495D01*
X1214320Y63262D01*
G37*
G36*
X1225112Y63262D02*
X1234380Y63262D01*
X1234380Y64495D01*
X1232853Y68182D01*
X1230032Y71003D01*
X1226345Y72530D01*
X1225112Y72530D01*
X1225112Y63262D01*
G37*
G36*
X1222355Y52470D02*
X1223588Y52470D01*
X1223588Y61738D01*
X1214320Y61738D01*
X1214320Y60505D01*
X1215847Y56818D01*
X1218668Y53997D01*
X1222355Y52470D01*
G37*
G36*
X1225112Y52470D02*
X1226345Y52470D01*
X1230032Y53997D01*
X1232853Y56818D01*
X1234380Y60505D01*
X1234380Y61738D01*
X1225112Y61738D01*
X1225112Y52470D01*
G37*
G36*
X1066762Y46960D02*
X1069552Y46960D01*
X1070782Y48189D01*
X1071089Y48400D01*
X1071484Y48487D01*
X1071881Y48413D01*
X1072218Y48189D01*
X1073448Y46960D01*
X1076238Y46960D01*
X1076238Y57040D01*
X1073448Y57040D01*
X1072218Y55811D01*
X1071911Y55600D01*
X1071516Y55513D01*
X1071119Y55587D01*
X1070782Y55811D01*
X1069552Y57040D01*
X1066762Y57040D01*
X1066762Y46960D01*
G37*
G36*
X1055762Y46960D02*
X1058552Y46960D01*
X1059782Y48189D01*
X1060089Y48400D01*
X1060484Y48487D01*
X1060881Y48413D01*
X1061218Y48189D01*
X1062448Y46960D01*
X1065238Y46960D01*
X1065238Y57040D01*
X1062448Y57040D01*
X1061218Y55811D01*
X1060911Y55600D01*
X1060516Y55513D01*
X1060119Y55587D01*
X1059782Y55811D01*
X1058552Y57040D01*
X1055762Y57040D01*
X1055762Y46960D01*
G37*
G36*
X1077762Y52762D02*
X1082040Y52762D01*
X1082040Y55552D01*
X1080552Y57040D01*
X1077762Y57040D01*
X1077762Y52762D01*
G37*
G36*
X1077762Y46960D02*
X1080552Y46960D01*
X1082040Y48448D01*
X1082040Y51238D01*
X1077762Y51238D01*
X1077762Y46960D01*
G37*
G36*
X1071408Y23762D02*
X1075986Y23762D01*
X1075986Y27198D01*
X1074498Y28686D01*
X1071408Y28686D01*
X1071408Y23762D01*
G37*
G36*
X1071408Y17315D02*
X1074498Y17315D01*
X1075986Y18802D01*
X1075986Y22238D01*
X1071408Y22238D01*
X1071408Y17315D01*
G37*
%LPD*%
G36*
X568929Y109266D02*
X568532Y109186D01*
X559191Y109186D01*
X558824Y109254D01*
X558484Y109472D01*
X558255Y109806D01*
X558175Y110202D01*
X558175Y110751D01*
X557282Y111644D01*
X557259Y111644D01*
X556908Y111707D01*
X556564Y111919D01*
X556330Y112249D01*
X556244Y112644D01*
X556318Y113041D01*
X556541Y113378D01*
X558291Y115128D01*
X558291Y118638D01*
X552313Y118638D01*
X552313Y125160D01*
X549347Y125160D01*
X548097Y123910D01*
X547774Y123692D01*
X547378Y123612D01*
X546982Y123693D01*
X546648Y123922D01*
X546431Y124263D01*
X546363Y124661D01*
X546433Y126773D01*
X546500Y127106D01*
X546718Y127447D01*
X547050Y127675D01*
X548182Y128806D01*
X548489Y129017D01*
X548884Y129103D01*
X549281Y129029D01*
X549618Y128806D01*
X550668Y127756D01*
X557282Y127756D01*
X558175Y128649D01*
X558175Y129198D01*
X558243Y129564D01*
X558461Y129905D01*
X558794Y130134D01*
X559191Y130214D01*
X571447Y130214D01*
X573980Y132747D01*
X574272Y132951D01*
X574666Y133044D01*
X575064Y132976D01*
X575405Y132758D01*
X575634Y132425D01*
X575714Y132028D01*
X575714Y116368D01*
X575640Y115986D01*
X575416Y115649D01*
X569251Y109484D01*
X568929Y109266D01*
G37*
%LPC*%
G36*
X553837Y120162D02*
X558291Y120162D01*
X558291Y123672D01*
X556803Y125160D01*
X553837Y125160D01*
X553837Y120162D01*
G37*
%LPD*%
G36*
X730458Y93874D02*
X730062Y93794D01*
X725190Y93794D01*
X724824Y93862D01*
X724483Y94080D01*
X724254Y94414D01*
X724174Y94810D01*
X724174Y108381D01*
X723281Y109274D01*
X717290Y109274D01*
X716924Y109342D01*
X716583Y109560D01*
X716354Y109894D01*
X716274Y110290D01*
X716274Y111281D01*
X715584Y111972D01*
X715366Y112294D01*
X715286Y112690D01*
X715286Y114632D01*
X715360Y115014D01*
X715584Y115351D01*
X717266Y117033D01*
X717279Y117106D01*
X717497Y117447D01*
X717831Y117676D01*
X718227Y117756D01*
X718232Y117756D01*
X719282Y118806D01*
X719589Y119017D01*
X719984Y119103D01*
X720381Y119029D01*
X720718Y118806D01*
X721768Y117756D01*
X728382Y117756D01*
X729399Y118773D01*
X729721Y118991D01*
X730118Y119071D01*
X732420Y119071D01*
X734123Y120773D01*
X734445Y120991D01*
X734841Y121071D01*
X741659Y121071D01*
X742040Y120997D01*
X742377Y120773D01*
X757273Y105877D01*
X757491Y105555D01*
X757571Y105159D01*
X757571Y96841D01*
X757497Y96460D01*
X757273Y96123D01*
X755907Y94756D01*
X755636Y94562D01*
X755244Y94460D01*
X754625Y94426D01*
X754218Y94487D01*
X753874Y94700D01*
X753640Y95029D01*
X753553Y95424D01*
X753627Y95822D01*
X753851Y96159D01*
X754186Y96494D01*
X754186Y99584D01*
X747738Y99584D01*
X747738Y105686D01*
X744302Y105686D01*
X742718Y104102D01*
X742411Y103891D01*
X742016Y103805D01*
X741619Y103879D01*
X741282Y104102D01*
X740198Y105186D01*
X736762Y105186D01*
X736762Y99084D01*
X730315Y99084D01*
X730315Y95994D01*
X730780Y95528D01*
X730984Y95236D01*
X731077Y94842D01*
X731009Y94444D01*
X730791Y94103D01*
X730458Y93874D01*
G37*
%LPC*%
G36*
X749262Y101108D02*
X754186Y101108D01*
X754186Y104198D01*
X752698Y105686D01*
X749262Y105686D01*
X749262Y101108D01*
G37*
G36*
X730315Y100608D02*
X735238Y100608D01*
X735238Y105186D01*
X731802Y105186D01*
X730315Y103698D01*
X730315Y100608D01*
G37*
%LPD*%
G36*
X686046Y18000D02*
X685650Y17920D01*
X401686Y17920D01*
X401320Y17988D01*
X400979Y18206D01*
X400750Y18540D01*
X400670Y18936D01*
X400670Y23777D01*
X400351Y24096D01*
X400147Y24389D01*
X400054Y24782D01*
X400121Y25181D01*
X400339Y25521D01*
X400673Y25750D01*
X401069Y25831D01*
X401501Y25831D01*
X402394Y26723D01*
X402394Y28815D01*
X402462Y29181D01*
X402680Y29521D01*
X403013Y29750D01*
X403410Y29831D01*
X410085Y29831D01*
X410782Y30527D01*
X411089Y30738D01*
X411484Y30824D01*
X411881Y30750D01*
X412218Y30527D01*
X412915Y29831D01*
X419777Y29831D01*
X420678Y30731D01*
X420738Y31056D01*
X420956Y31397D01*
X421290Y31626D01*
X421686Y31706D01*
X433657Y31706D01*
X435325Y33373D01*
X435592Y33566D01*
X435983Y33669D01*
X436383Y33612D01*
X436602Y33535D01*
X437064Y33476D01*
X447799Y33476D01*
X448165Y33408D01*
X448505Y33190D01*
X448734Y32856D01*
X448815Y32460D01*
X448815Y29516D01*
X460186Y29516D01*
X460186Y32460D01*
X460254Y32826D01*
X460472Y33167D01*
X460805Y33396D01*
X461202Y33476D01*
X464799Y33476D01*
X465165Y33408D01*
X465505Y33190D01*
X465734Y32856D01*
X465815Y32460D01*
X465815Y29416D01*
X477186Y29416D01*
X477186Y32460D01*
X477254Y32826D01*
X477472Y33167D01*
X477805Y33396D01*
X478202Y33476D01*
X478955Y33476D01*
X479268Y33504D01*
X479528Y33575D01*
X479754Y33682D01*
X480123Y33968D01*
X483334Y37178D01*
X483656Y37396D01*
X484052Y37476D01*
X498955Y37476D01*
X499268Y37504D01*
X499528Y37575D01*
X499754Y37682D01*
X500123Y37968D01*
X502046Y39890D01*
X502248Y40132D01*
X502381Y40366D01*
X502465Y40602D01*
X502524Y41064D01*
X502524Y54448D01*
X502598Y54829D01*
X502624Y54868D01*
X502624Y59190D01*
X502689Y59549D01*
X502905Y59891D01*
X503236Y60122D01*
X503632Y60206D01*
X504029Y60129D01*
X504291Y60020D01*
X504838Y60020D01*
X504838Y67362D01*
X512180Y67362D01*
X512180Y67514D01*
X512245Y67872D01*
X512461Y68215D01*
X512792Y68446D01*
X513188Y68530D01*
X513585Y68452D01*
X514686Y67996D01*
X517314Y67996D01*
X519741Y69001D01*
X521613Y70873D01*
X521935Y71091D01*
X522331Y71171D01*
X682527Y71171D01*
X682878Y71108D01*
X683222Y70896D01*
X683456Y70566D01*
X683542Y70171D01*
X683468Y69774D01*
X683245Y69437D01*
X682815Y69006D01*
X682815Y65916D01*
X694186Y65916D01*
X694186Y69006D01*
X693778Y69414D01*
X693589Y69674D01*
X693483Y70064D01*
X693536Y70465D01*
X693742Y70813D01*
X694067Y71053D01*
X694460Y71148D01*
X696023Y71203D01*
X696410Y71141D01*
X696754Y70929D01*
X696988Y70599D01*
X697075Y70204D01*
X697001Y69806D01*
X696778Y69469D01*
X696315Y69006D01*
X696315Y65916D01*
X707686Y65916D01*
X707686Y69006D01*
X707124Y69568D01*
X706912Y69878D01*
X706826Y70274D01*
X706902Y70671D01*
X707127Y71007D01*
X707464Y71229D01*
X707862Y71302D01*
X724513Y70977D01*
X724687Y70941D01*
X726327Y70941D01*
X726347Y70941D01*
X727763Y70913D01*
X728765Y71915D01*
X728779Y71929D01*
X729971Y73075D01*
X730061Y73211D01*
X739429Y82580D01*
X739429Y85061D01*
X739503Y85443D01*
X739727Y85780D01*
X740611Y86664D01*
X740891Y86862D01*
X741283Y86961D01*
X743524Y87062D01*
X743951Y86989D01*
X744288Y86765D01*
X744723Y86330D01*
X752277Y86330D01*
X753164Y87218D01*
X753436Y87411D01*
X753827Y87514D01*
X757196Y87699D01*
X757252Y87701D01*
X758637Y87701D01*
X758670Y87710D01*
X759603Y88751D01*
X759641Y88792D01*
X764429Y93580D01*
X764429Y105885D01*
X764492Y106236D01*
X764704Y106580D01*
X765034Y106814D01*
X765429Y106901D01*
X765826Y106827D01*
X766163Y106604D01*
X781053Y91714D01*
X857056Y91714D01*
X857430Y91643D01*
X857768Y91422D01*
X857994Y91087D01*
X858191Y90613D01*
X859613Y89191D01*
X861471Y88421D01*
X863483Y88421D01*
X865341Y89191D01*
X866763Y90613D01*
X867590Y92608D01*
X867793Y92920D01*
X868125Y93152D01*
X868520Y93235D01*
X868917Y93158D01*
X868994Y93126D01*
X871006Y93126D01*
X872864Y93896D01*
X874286Y95318D01*
X875056Y97176D01*
X875056Y99188D01*
X874591Y100309D01*
X874515Y100666D01*
X874582Y101064D01*
X874800Y101405D01*
X875134Y101634D01*
X875530Y101714D01*
X907719Y101714D01*
X908592Y102587D01*
X908892Y102795D01*
X909286Y102884D01*
X909684Y102814D01*
X910023Y102593D01*
X910249Y102258D01*
X910714Y101136D01*
X912136Y99714D01*
X913994Y98944D01*
X916006Y98944D01*
X917864Y99714D01*
X919059Y100908D01*
X919381Y101126D01*
X919777Y101206D01*
X923422Y101206D01*
X923803Y101132D01*
X924140Y100908D01*
X937178Y87870D01*
X937396Y87548D01*
X937421Y87424D01*
X938369Y86476D01*
X944428Y86476D01*
X944794Y86408D01*
X945135Y86190D01*
X945364Y85856D01*
X945444Y85460D01*
X945444Y84540D01*
X945376Y84174D01*
X945158Y83833D01*
X944824Y83604D01*
X944428Y83524D01*
X938369Y83524D01*
X938071Y83227D01*
X937749Y83009D01*
X937353Y82929D01*
X932080Y82929D01*
X927877Y78727D01*
X927555Y78509D01*
X927159Y78429D01*
X925447Y78429D01*
X925065Y78503D01*
X924728Y78727D01*
X924592Y78863D01*
X924381Y79170D01*
X924294Y79565D01*
X924368Y79963D01*
X924592Y80300D01*
X925586Y81294D01*
X925586Y84384D01*
X919138Y84384D01*
X919138Y90486D01*
X915702Y90486D01*
X914618Y89402D01*
X914311Y89191D01*
X913916Y89105D01*
X913519Y89179D01*
X913182Y89402D01*
X912298Y90286D01*
X908862Y90286D01*
X908862Y84184D01*
X902415Y84184D01*
X902415Y81094D01*
X903091Y80417D01*
X903295Y80125D01*
X903388Y79731D01*
X903320Y79333D01*
X903102Y78992D01*
X902769Y78763D01*
X902373Y78683D01*
X898927Y78683D01*
X898576Y78746D01*
X898232Y78958D01*
X897998Y79288D01*
X897912Y79683D01*
X897986Y80080D01*
X898209Y80417D01*
X898986Y81194D01*
X898986Y84284D01*
X887615Y84284D01*
X887615Y81194D01*
X888608Y80200D01*
X888819Y79893D01*
X888906Y79498D01*
X888832Y79100D01*
X888608Y78763D01*
X888472Y78627D01*
X888150Y78409D01*
X887753Y78329D01*
X885667Y78329D01*
X885286Y78403D01*
X884949Y78627D01*
X884151Y79424D01*
X877489Y79424D01*
X877218Y79154D01*
X876911Y78943D01*
X876516Y78856D01*
X876119Y78930D01*
X875782Y79154D01*
X875511Y79424D01*
X868849Y79424D01*
X868051Y78627D01*
X867729Y78409D01*
X867333Y78329D01*
X746480Y78329D01*
X686368Y18218D01*
X686046Y18000D01*
G37*
%LPC*%
G36*
X920662Y85908D02*
X925586Y85908D01*
X925586Y88998D01*
X924098Y90486D01*
X920662Y90486D01*
X920662Y85908D01*
G37*
G36*
X894062Y85808D02*
X898986Y85808D01*
X898986Y88898D01*
X897498Y90386D01*
X894062Y90386D01*
X894062Y85808D01*
G37*
G36*
X887615Y85808D02*
X892538Y85808D01*
X892538Y90386D01*
X889102Y90386D01*
X887615Y88898D01*
X887615Y85808D01*
G37*
G36*
X902415Y85708D02*
X907338Y85708D01*
X907338Y90286D01*
X903902Y90286D01*
X902415Y88798D01*
X902415Y85708D01*
G37*
G36*
X506362Y60020D02*
X506909Y60020D01*
X509327Y61022D01*
X511178Y62873D01*
X512180Y65291D01*
X512180Y65838D01*
X506362Y65838D01*
X506362Y60020D01*
G37*
G36*
X702762Y59814D02*
X706198Y59814D01*
X707686Y61302D01*
X707686Y64392D01*
X702762Y64392D01*
X702762Y59814D01*
G37*
G36*
X697802Y59814D02*
X701238Y59814D01*
X701238Y64392D01*
X696315Y64392D01*
X696315Y61302D01*
X697802Y59814D01*
G37*
G36*
X689262Y59814D02*
X692698Y59814D01*
X694186Y61302D01*
X694186Y64392D01*
X689262Y64392D01*
X689262Y59814D01*
G37*
G36*
X684302Y59814D02*
X687738Y59814D01*
X687738Y64392D01*
X682815Y64392D01*
X682815Y61302D01*
X684302Y59814D01*
G37*
G36*
X450302Y23414D02*
X453738Y23414D01*
X453738Y27992D01*
X448815Y27992D01*
X448815Y24902D01*
X450302Y23414D01*
G37*
G36*
X455262Y23414D02*
X458698Y23414D01*
X460186Y24902D01*
X460186Y27992D01*
X455262Y27992D01*
X455262Y23414D01*
G37*
G36*
X467302Y23314D02*
X470738Y23314D01*
X470738Y27892D01*
X465815Y27892D01*
X465815Y24802D01*
X467302Y23314D01*
G37*
G36*
X472262Y23314D02*
X475698Y23314D01*
X477186Y24802D01*
X477186Y27892D01*
X472262Y27892D01*
X472262Y23314D01*
G37*
%LPD*%
G36*
X724943Y77908D02*
X724545Y77835D01*
X707173Y78175D01*
X706812Y78249D01*
X706475Y78472D01*
X706092Y78855D01*
X705874Y79177D01*
X705794Y79574D01*
X705794Y82794D01*
X705862Y83160D01*
X706080Y83501D01*
X706414Y83730D01*
X706810Y83810D01*
X707238Y83810D01*
X707238Y94990D01*
X705198Y94990D01*
X704479Y94272D01*
X704157Y94054D01*
X703761Y93974D01*
X701990Y93974D01*
X701624Y94042D01*
X701283Y94260D01*
X701054Y94594D01*
X700974Y94990D01*
X700974Y102010D01*
X701042Y102376D01*
X701260Y102717D01*
X701594Y102946D01*
X701990Y103026D01*
X714010Y103026D01*
X714376Y102958D01*
X714717Y102740D01*
X714946Y102406D01*
X715026Y102010D01*
X715026Y96006D01*
X714958Y95640D01*
X714740Y95299D01*
X714406Y95070D01*
X714010Y94990D01*
X713762Y94990D01*
X713762Y83810D01*
X715802Y83810D01*
X717290Y85298D01*
X717290Y86710D01*
X717358Y87076D01*
X717576Y87417D01*
X717910Y87646D01*
X718306Y87726D01*
X723281Y87726D01*
X723464Y87908D01*
X723786Y88126D01*
X724182Y88206D01*
X730315Y88206D01*
X730681Y88138D01*
X731021Y87920D01*
X731250Y87586D01*
X731331Y87190D01*
X731331Y86723D01*
X731884Y86170D01*
X732094Y85862D01*
X732181Y85468D01*
X732107Y85070D01*
X731884Y84733D01*
X725283Y78133D01*
X724943Y77908D01*
G37*
%LPC*%
G36*
X708762Y83810D02*
X712238Y83810D01*
X712238Y94990D01*
X708762Y94990D01*
X708762Y83810D01*
G37*
%LPD*%
G36*
X99761Y37779D02*
X99365Y37699D01*
X81715Y37699D01*
X81349Y37767D01*
X81008Y37985D01*
X80779Y38319D01*
X80699Y38715D01*
X80699Y41240D01*
X80767Y41606D01*
X80985Y41947D01*
X81319Y42176D01*
X81715Y42256D01*
X86732Y42256D01*
X87063Y42587D01*
X87370Y42798D01*
X87765Y42885D01*
X88163Y42811D01*
X88500Y42587D01*
X89847Y41240D01*
X92813Y41240D01*
X92813Y52760D01*
X89847Y52760D01*
X88500Y51413D01*
X88193Y51202D01*
X87798Y51115D01*
X87400Y51189D01*
X87063Y51413D01*
X86681Y51795D01*
X86530Y51826D01*
X86197Y52055D01*
X85981Y52396D01*
X85914Y52795D01*
X86389Y66470D01*
X86436Y66689D01*
X86436Y67793D01*
X86437Y67828D01*
X86469Y68764D01*
X85807Y69426D01*
X85783Y69451D01*
X85013Y70276D01*
X84847Y70386D01*
X76447Y78786D01*
X69556Y78786D01*
X69190Y78854D01*
X68849Y79072D01*
X68620Y79406D01*
X68540Y79802D01*
X68540Y83198D01*
X68608Y83564D01*
X68826Y83905D01*
X69160Y84134D01*
X69556Y84214D01*
X71011Y84214D01*
X71689Y84892D01*
X72011Y85110D01*
X72408Y85190D01*
X85156Y85190D01*
X85538Y85116D01*
X85875Y84892D01*
X107101Y63666D01*
X150632Y63666D01*
X151014Y63592D01*
X151351Y63368D01*
X153099Y61620D01*
X153307Y61320D01*
X153396Y60926D01*
X153325Y60528D01*
X153105Y60189D01*
X152770Y59963D01*
X151136Y59286D01*
X149714Y57864D01*
X148944Y56006D01*
X148944Y53994D01*
X149714Y52136D01*
X150533Y51317D01*
X150744Y51009D01*
X150831Y50614D01*
X150756Y50217D01*
X150533Y49880D01*
X149824Y49171D01*
X149538Y48970D01*
X149145Y48874D01*
X147112Y48796D01*
X146692Y48869D01*
X146354Y49092D01*
X145677Y49770D01*
X138123Y49770D01*
X137351Y48998D01*
X137060Y48794D01*
X136667Y48701D01*
X133315Y48588D01*
X132899Y48661D01*
X132562Y48885D01*
X131477Y49970D01*
X129308Y49970D01*
X128926Y50044D01*
X128589Y50268D01*
X128528Y50329D01*
X127880Y50329D01*
X127537Y50389D01*
X126927Y50607D01*
X126544Y50426D01*
X126110Y50329D01*
X118567Y50329D01*
X118186Y50403D01*
X117849Y50627D01*
X117051Y51424D01*
X110389Y51424D01*
X110118Y51154D01*
X109811Y50943D01*
X109416Y50856D01*
X109019Y50930D01*
X108682Y51154D01*
X108411Y51424D01*
X107622Y51424D01*
X107241Y51498D01*
X107089Y51599D01*
X103074Y51599D01*
X102934Y51504D01*
X102538Y51424D01*
X101749Y51424D01*
X100856Y50531D01*
X100856Y49742D01*
X100782Y49361D01*
X100558Y49024D01*
X100525Y48990D01*
X100232Y48786D01*
X99839Y48693D01*
X99440Y48761D01*
X99100Y48979D01*
X98871Y49312D01*
X98791Y49709D01*
X98791Y51272D01*
X97303Y52760D01*
X94337Y52760D01*
X94337Y41240D01*
X97303Y41240D01*
X98647Y42584D01*
X98939Y42788D01*
X99333Y42881D01*
X99731Y42813D01*
X100072Y42595D01*
X100301Y42262D01*
X100381Y41866D01*
X100381Y38715D01*
X100313Y38349D01*
X100095Y38008D01*
X99761Y37779D01*
G37*
G36*
X380694Y18000D02*
X380298Y17920D01*
X363564Y17920D01*
X363206Y17985D01*
X362863Y18201D01*
X362632Y18532D01*
X362549Y18928D01*
X362626Y19325D01*
X363604Y21686D01*
X363604Y24314D01*
X362599Y26741D01*
X360741Y28599D01*
X358314Y29604D01*
X355686Y29604D01*
X353259Y28599D01*
X351387Y26727D01*
X351065Y26509D01*
X350669Y26429D01*
X304841Y26429D01*
X304460Y26503D01*
X304123Y26727D01*
X295727Y35123D01*
X295509Y35445D01*
X295429Y35841D01*
X295429Y73072D01*
X295494Y73430D01*
X295710Y73773D01*
X296041Y74004D01*
X296437Y74088D01*
X296834Y74010D01*
X296994Y73944D01*
X299006Y73944D01*
X300864Y74714D01*
X300992Y74841D01*
X301284Y75045D01*
X301678Y75138D01*
X302076Y75071D01*
X302417Y74853D01*
X302646Y74519D01*
X302726Y74123D01*
X302726Y70669D01*
X303619Y69776D01*
X311381Y69776D01*
X312274Y70669D01*
X312274Y71495D01*
X312342Y71861D01*
X312560Y72202D01*
X312894Y72431D01*
X313290Y72511D01*
X329220Y72511D01*
X329586Y72443D01*
X329927Y72225D01*
X330156Y71891D01*
X330236Y71495D01*
X330236Y64633D01*
X330162Y64251D01*
X329938Y63914D01*
X328718Y62694D01*
X328411Y62484D01*
X328016Y62397D01*
X327619Y62471D01*
X327282Y62694D01*
X326232Y63744D01*
X319618Y63744D01*
X318726Y62851D01*
X318726Y60935D01*
X318642Y60533D01*
X318412Y60201D01*
X318262Y60057D01*
X318262Y60057D01*
X318285Y59023D01*
X318285Y58977D01*
X318261Y57908D01*
X318275Y57843D01*
X318334Y57759D01*
X318414Y57363D01*
X318414Y51353D01*
X320002Y49765D01*
X320213Y49458D01*
X320300Y49063D01*
X320226Y48665D01*
X320002Y48328D01*
X319872Y48198D01*
X319565Y47987D01*
X319170Y47900D01*
X318772Y47974D01*
X318435Y48198D01*
X317193Y49440D01*
X313686Y49440D01*
X313319Y49508D01*
X312979Y49726D01*
X312750Y50060D01*
X312670Y50456D01*
X312670Y50595D01*
X312481Y50870D01*
X312394Y51265D01*
X312468Y51663D01*
X312692Y52000D01*
X313686Y52994D01*
X313686Y56084D01*
X302315Y56084D01*
X302315Y52994D01*
X303308Y52000D01*
X303519Y51693D01*
X303606Y51298D01*
X303532Y50900D01*
X303331Y50597D01*
X303331Y43723D01*
X304223Y42830D01*
X311777Y42830D01*
X312670Y43723D01*
X312670Y43852D01*
X312738Y44218D01*
X312956Y44559D01*
X313289Y44788D01*
X313686Y44868D01*
X314878Y44868D01*
X315260Y44794D01*
X315597Y44570D01*
X317416Y42751D01*
X317634Y42429D01*
X317714Y42032D01*
X317714Y39023D01*
X317643Y38649D01*
X317422Y38310D01*
X317175Y38143D01*
X315714Y36682D01*
X314944Y34824D01*
X314944Y32812D01*
X315714Y30954D01*
X317136Y29532D01*
X318994Y28762D01*
X321006Y28762D01*
X322864Y29532D01*
X324286Y30954D01*
X325056Y32812D01*
X325056Y34824D01*
X324286Y36682D01*
X323347Y37622D01*
X323143Y37914D01*
X323050Y38308D01*
X323117Y38706D01*
X323335Y39047D01*
X323669Y39276D01*
X324065Y39356D01*
X327132Y39356D01*
X327463Y39687D01*
X327770Y39898D01*
X328165Y39985D01*
X328563Y39911D01*
X328900Y39687D01*
X330247Y38340D01*
X333213Y38340D01*
X333213Y49860D01*
X330247Y49860D01*
X328900Y48513D01*
X328593Y48302D01*
X328198Y48215D01*
X327800Y48289D01*
X327463Y48513D01*
X327132Y48844D01*
X327127Y48844D01*
X326761Y48912D01*
X326420Y49130D01*
X326191Y49464D01*
X326111Y49860D01*
X326111Y50122D01*
X323711Y52522D01*
X323507Y52814D01*
X323414Y53208D01*
X323482Y53606D01*
X323700Y53947D01*
X324033Y54176D01*
X324430Y54256D01*
X326232Y54256D01*
X327282Y55306D01*
X327589Y55517D01*
X327984Y55603D01*
X328381Y55529D01*
X328718Y55306D01*
X329768Y54256D01*
X336382Y54256D01*
X337275Y55149D01*
X337275Y56616D01*
X337404Y57113D01*
X337668Y57419D01*
X338130Y57777D01*
X338180Y57969D01*
X338364Y58247D01*
X338364Y59630D01*
X338372Y59758D01*
X338545Y61122D01*
X338444Y61293D01*
X338364Y61689D01*
X338364Y70396D01*
X338432Y70762D01*
X338650Y71103D01*
X338984Y71332D01*
X339380Y71412D01*
X352884Y71412D01*
X353415Y71632D01*
X353772Y71709D01*
X354170Y71641D01*
X354511Y71423D01*
X354740Y71090D01*
X354786Y70862D01*
X367980Y70862D01*
X367980Y71409D01*
X367871Y71671D01*
X367795Y72028D01*
X367862Y72426D01*
X368080Y72767D01*
X368414Y72996D01*
X368810Y73076D01*
X373031Y73076D01*
X374102Y74146D01*
X374424Y74364D01*
X374820Y74444D01*
X377534Y74444D01*
X378024Y74318D01*
X378332Y74057D01*
X378514Y73695D01*
X378575Y73472D01*
X378682Y73246D01*
X378968Y72877D01*
X379890Y71954D01*
X380132Y71752D01*
X380366Y71619D01*
X380602Y71535D01*
X381064Y71476D01*
X390955Y71476D01*
X391268Y71504D01*
X391528Y71575D01*
X391754Y71682D01*
X392123Y71968D01*
X394302Y74146D01*
X394624Y74364D01*
X395020Y74444D01*
X395473Y74444D01*
X395726Y74697D01*
X396018Y74901D01*
X396412Y74994D01*
X396810Y74926D01*
X397151Y74708D01*
X397380Y74375D01*
X397460Y73978D01*
X397460Y73762D01*
X403762Y73762D01*
X403762Y72238D01*
X397460Y72238D01*
X397460Y70998D01*
X397311Y70468D01*
X397035Y70171D01*
X397009Y70153D01*
X396821Y69960D01*
X396670Y69736D01*
X396561Y69490D01*
X396496Y69221D01*
X396476Y68962D01*
X396476Y58045D01*
X396504Y57732D01*
X396575Y57472D01*
X396682Y57246D01*
X396968Y56877D01*
X398941Y54904D01*
X399145Y54611D01*
X399238Y54218D01*
X399170Y53819D01*
X398952Y53479D01*
X398619Y53250D01*
X398222Y53170D01*
X390499Y53170D01*
X389343Y52014D01*
X389021Y51796D01*
X388625Y51716D01*
X386875Y51716D01*
X386494Y51790D01*
X386157Y52014D01*
X385001Y53170D01*
X373999Y53170D01*
X373107Y52277D01*
X373107Y43027D01*
X373999Y42135D01*
X385001Y42135D01*
X386157Y43290D01*
X386479Y43508D01*
X386875Y43588D01*
X388625Y43588D01*
X389006Y43514D01*
X389343Y43290D01*
X390499Y42135D01*
X399819Y42135D01*
X400200Y42060D01*
X400537Y41837D01*
X400895Y41479D01*
X401081Y41224D01*
X401190Y40834D01*
X401276Y39654D01*
X401211Y39214D01*
X400993Y38873D01*
X400659Y38644D01*
X400263Y38564D01*
X394442Y38564D01*
X393041Y37163D01*
X392719Y36946D01*
X392322Y36866D01*
X390499Y36866D01*
X389607Y35973D01*
X389607Y26702D01*
X389538Y26335D01*
X389320Y25995D01*
X388987Y25766D01*
X388591Y25686D01*
X387926Y25686D01*
X387559Y25754D01*
X387219Y25972D01*
X386990Y26305D01*
X386910Y26702D01*
X386910Y30586D01*
X380262Y30586D01*
X380262Y24815D01*
X380298Y24815D01*
X380664Y24746D01*
X381005Y24528D01*
X381234Y24195D01*
X381314Y23799D01*
X381314Y20762D01*
X387416Y20762D01*
X387416Y19238D01*
X381314Y19238D01*
X381314Y18936D01*
X381246Y18570D01*
X381028Y18229D01*
X380694Y18000D01*
G37*
%LPC*%
G36*
X362162Y63520D02*
X362709Y63520D01*
X365127Y64522D01*
X366978Y66373D01*
X367980Y68791D01*
X367980Y69338D01*
X362162Y69338D01*
X362162Y63520D01*
G37*
G36*
X360091Y63520D02*
X360638Y63520D01*
X360638Y69338D01*
X354820Y69338D01*
X354820Y68791D01*
X355822Y66373D01*
X357673Y64522D01*
X360091Y63520D01*
G37*
G36*
X308762Y57608D02*
X313686Y57608D01*
X313686Y60698D01*
X312198Y62186D01*
X308762Y62186D01*
X308762Y57608D01*
G37*
G36*
X302315Y57608D02*
X307238Y57608D01*
X307238Y62186D01*
X303802Y62186D01*
X302315Y60698D01*
X302315Y57608D01*
G37*
G36*
X334737Y44862D02*
X339191Y44862D01*
X339191Y48372D01*
X337703Y49860D01*
X334737Y49860D01*
X334737Y44862D01*
G37*
G36*
X334737Y38340D02*
X337703Y38340D01*
X339191Y39828D01*
X339191Y43338D01*
X334737Y43338D01*
X334737Y38340D01*
G37*
G36*
X372091Y32110D02*
X378738Y32110D01*
X378738Y37882D01*
X373578Y37882D01*
X372091Y36394D01*
X372091Y32110D01*
G37*
G36*
X380262Y32110D02*
X386910Y32110D01*
X386910Y36394D01*
X385422Y37882D01*
X380262Y37882D01*
X380262Y32110D01*
G37*
G36*
X373578Y24815D02*
X378738Y24815D01*
X378738Y30586D01*
X372091Y30586D01*
X372091Y26302D01*
X373578Y24815D01*
G37*
%LPD*%
G36*
X301174Y18000D02*
X300778Y17920D01*
X251350Y17920D01*
X250969Y17994D01*
X250632Y18218D01*
X242744Y26106D01*
X242540Y26398D01*
X242447Y26792D01*
X242515Y27190D01*
X242732Y27531D01*
X243066Y27760D01*
X243462Y27840D01*
X245463Y27840D01*
X245463Y32838D01*
X241010Y32838D01*
X241010Y30293D01*
X240947Y29942D01*
X240734Y29598D01*
X240405Y29364D01*
X240010Y29277D01*
X239612Y29351D01*
X239275Y29574D01*
X230727Y38123D01*
X230509Y38445D01*
X230429Y38841D01*
X230429Y40968D01*
X230492Y41319D01*
X230704Y41663D01*
X231034Y41897D01*
X231429Y41984D01*
X231826Y41910D01*
X232099Y41729D01*
X233994Y40944D01*
X236006Y40944D01*
X237864Y41714D01*
X238524Y42373D01*
X238846Y42591D01*
X239242Y42671D01*
X239982Y42671D01*
X240364Y42597D01*
X240701Y42373D01*
X241718Y41356D01*
X242041Y41356D01*
X242392Y41293D01*
X242736Y41081D01*
X242970Y40751D01*
X243056Y40356D01*
X242982Y39959D01*
X242759Y39622D01*
X241010Y37872D01*
X241010Y34362D01*
X246987Y34362D01*
X246987Y27840D01*
X249953Y27840D01*
X251300Y29187D01*
X251607Y29398D01*
X252002Y29485D01*
X252400Y29411D01*
X252737Y29187D01*
X253068Y28856D01*
X259682Y28856D01*
X260575Y29749D01*
X260575Y30171D01*
X260643Y30537D01*
X260861Y30878D01*
X261194Y31107D01*
X261591Y31187D01*
X265860Y31187D01*
X266226Y31119D01*
X266567Y30901D01*
X266796Y30567D01*
X266876Y30171D01*
X266876Y28369D01*
X267769Y27476D01*
X273031Y27476D01*
X274126Y28570D01*
X274418Y28774D01*
X274812Y28867D01*
X275210Y28800D01*
X275551Y28582D01*
X275780Y28248D01*
X275836Y27972D01*
X277348Y26460D01*
X279638Y26460D01*
X279638Y40540D01*
X277348Y40540D01*
X275839Y39031D01*
X275797Y38797D01*
X275585Y38453D01*
X275255Y38219D01*
X274860Y38132D01*
X274463Y38206D01*
X274126Y38430D01*
X273031Y39524D01*
X267769Y39524D01*
X266876Y38631D01*
X266876Y37029D01*
X266808Y36663D01*
X266590Y36322D01*
X266256Y36093D01*
X265860Y36013D01*
X261591Y36013D01*
X261224Y36081D01*
X260884Y36299D01*
X260655Y36633D01*
X260575Y37029D01*
X260575Y37451D01*
X259682Y38344D01*
X258477Y38344D01*
X258111Y38412D01*
X257770Y38630D01*
X257541Y38964D01*
X257461Y39360D01*
X257461Y40340D01*
X257529Y40706D01*
X257747Y41047D01*
X258081Y41276D01*
X258477Y41356D01*
X258482Y41356D01*
X259375Y42249D01*
X259375Y49951D01*
X258482Y50844D01*
X251868Y50844D01*
X250818Y49794D01*
X250511Y49584D01*
X250116Y49497D01*
X249719Y49571D01*
X249382Y49794D01*
X248332Y50844D01*
X241718Y50844D01*
X240701Y49827D01*
X240379Y49609D01*
X239982Y49529D01*
X239042Y49529D01*
X238661Y49603D01*
X238324Y49827D01*
X237864Y50286D01*
X236006Y51056D01*
X233994Y51056D01*
X232247Y50332D01*
X231906Y50256D01*
X231507Y50317D01*
X231163Y50530D01*
X230929Y50860D01*
X230842Y51255D01*
X230916Y51652D01*
X231139Y51989D01*
X231286Y52136D01*
X232056Y53994D01*
X232056Y56006D01*
X231286Y57864D01*
X230727Y58424D01*
X230509Y58746D01*
X230429Y59142D01*
X230429Y69567D01*
X230492Y69918D01*
X230704Y70262D01*
X231034Y70496D01*
X231429Y70583D01*
X231826Y70509D01*
X232163Y70285D01*
X238141Y64308D01*
X238156Y64293D01*
X239135Y63271D01*
X240550Y63271D01*
X240572Y63271D01*
X261120Y62834D01*
X261479Y62760D01*
X261816Y62537D01*
X262523Y61830D01*
X265683Y61830D01*
X265994Y61781D01*
X266347Y61583D01*
X267936Y60211D01*
X267990Y60160D01*
X268923Y59228D01*
X268958Y59222D01*
X269050Y59170D01*
X270388Y59268D01*
X270463Y59271D01*
X270955Y59271D01*
X271321Y59203D01*
X271662Y58985D01*
X271891Y58651D01*
X271971Y58255D01*
X271971Y55147D01*
X271897Y54766D01*
X271876Y54735D01*
X271876Y44369D01*
X272769Y43476D01*
X278031Y43476D01*
X278924Y44369D01*
X278924Y54729D01*
X278909Y54751D01*
X278829Y55147D01*
X278829Y57460D01*
X278897Y57826D01*
X279115Y58167D01*
X279449Y58396D01*
X279845Y58476D01*
X282831Y58476D01*
X283724Y59369D01*
X283724Y67031D01*
X282831Y67924D01*
X277369Y67924D01*
X276450Y67005D01*
X276408Y66779D01*
X276190Y66438D01*
X275856Y66209D01*
X275460Y66129D01*
X271986Y66129D01*
X271619Y66197D01*
X271279Y66415D01*
X271050Y66749D01*
X270970Y67145D01*
X270970Y69585D01*
X270273Y70282D01*
X270063Y70589D01*
X269976Y70984D01*
X270050Y71381D01*
X270273Y71718D01*
X270970Y72415D01*
X270970Y73755D01*
X271038Y74121D01*
X271256Y74462D01*
X271589Y74691D01*
X271986Y74771D01*
X275653Y74771D01*
X276034Y74697D01*
X276371Y74473D01*
X277369Y73476D01*
X282831Y73476D01*
X283086Y73730D01*
X283393Y73941D01*
X283788Y74028D01*
X284185Y73954D01*
X284522Y73730D01*
X286317Y71936D01*
X286794Y71936D01*
X287175Y71862D01*
X287512Y71638D01*
X288273Y70877D01*
X288491Y70555D01*
X288571Y70159D01*
X288571Y32580D01*
X301496Y19654D01*
X301700Y19362D01*
X301793Y18968D01*
X301726Y18570D01*
X301508Y18229D01*
X301174Y18000D01*
G37*
%LPC*%
G36*
X281162Y34262D02*
X284940Y34262D01*
X284940Y39052D01*
X283452Y40540D01*
X281162Y40540D01*
X281162Y34262D01*
G37*
G36*
X281162Y26460D02*
X283452Y26460D01*
X284940Y27948D01*
X284940Y32738D01*
X281162Y32738D01*
X281162Y26460D01*
G37*
%LPD*%
G36*
X956982Y54726D02*
X956588Y54633D01*
X956190Y54700D01*
X955849Y54918D01*
X955620Y55252D01*
X955564Y55528D01*
X954311Y56782D01*
X954100Y57089D01*
X954013Y57484D01*
X954087Y57881D01*
X954311Y58218D01*
X955540Y59448D01*
X955540Y62238D01*
X945404Y62238D01*
X945392Y62174D01*
X945174Y61833D01*
X944840Y61604D01*
X944444Y61524D01*
X938369Y61524D01*
X937437Y60592D01*
X937408Y60436D01*
X937190Y60095D01*
X936856Y59866D01*
X936460Y59786D01*
X935868Y59786D01*
X935486Y59860D01*
X935149Y60084D01*
X933300Y61933D01*
X933090Y62240D01*
X933003Y62635D01*
X933077Y63032D01*
X933300Y63369D01*
X935742Y65811D01*
X936034Y66015D01*
X936428Y66108D01*
X936826Y66040D01*
X937167Y65822D01*
X937396Y65489D01*
X937406Y65439D01*
X938369Y64476D01*
X944444Y64476D01*
X944810Y64408D01*
X945151Y64190D01*
X945380Y63856D01*
X945399Y63762D01*
X955596Y63762D01*
X955608Y63826D01*
X955826Y64167D01*
X956160Y64396D01*
X956556Y64476D01*
X961447Y64476D01*
X961805Y64411D01*
X962148Y64195D01*
X962379Y63864D01*
X962463Y63468D01*
X962385Y63071D01*
X961944Y62006D01*
X961944Y59994D01*
X962717Y58127D01*
X963086Y57758D01*
X963290Y57466D01*
X963383Y57072D01*
X963316Y56674D01*
X963098Y56333D01*
X962764Y56104D01*
X962368Y56024D01*
X958369Y56024D01*
X957274Y54930D01*
X956982Y54726D01*
G37*
G36*
X910462Y18796D02*
X910462Y9144D01*
X908938Y9144D01*
X908938Y18796D01*
X907932Y18796D01*
X904664Y17443D01*
X902163Y14942D01*
X900810Y11674D01*
X900810Y11176D01*
X900742Y10810D01*
X900524Y10469D01*
X900190Y10240D01*
X899794Y10160D01*
X834366Y10160D01*
X834007Y10225D01*
X833665Y10441D01*
X833434Y10772D01*
X833350Y11168D01*
X833427Y11565D01*
X834056Y13082D01*
X834056Y15094D01*
X833286Y16952D01*
X832030Y18209D01*
X831812Y18531D01*
X831732Y18927D01*
X831732Y27627D01*
X831803Y28000D01*
X832024Y28339D01*
X832359Y28565D01*
X833759Y29145D01*
X835901Y31287D01*
X837060Y34085D01*
X837060Y37115D01*
X835901Y39913D01*
X834582Y41232D01*
X834372Y41539D01*
X834285Y41934D01*
X834359Y42331D01*
X834582Y42668D01*
X835901Y43987D01*
X837060Y46785D01*
X837060Y49815D01*
X835901Y52613D01*
X833759Y54755D01*
X830961Y55914D01*
X827931Y55914D01*
X825133Y54755D01*
X824533Y54155D01*
X824226Y53944D01*
X823831Y53857D01*
X823433Y53931D01*
X823096Y54155D01*
X821635Y55616D01*
X818875Y56759D01*
X818580Y56946D01*
X818341Y57272D01*
X818248Y57666D01*
X818316Y58064D01*
X818534Y58405D01*
X818867Y58634D01*
X819263Y58714D01*
X929632Y58714D01*
X930014Y58640D01*
X930351Y58416D01*
X933553Y55214D01*
X936460Y55214D01*
X936826Y55146D01*
X937167Y54928D01*
X937396Y54594D01*
X937433Y54412D01*
X938369Y53476D01*
X944444Y53476D01*
X944810Y53408D01*
X945151Y53190D01*
X945380Y52856D01*
X945399Y52762D01*
X951262Y52762D01*
X951262Y51238D01*
X945460Y51238D01*
X945460Y48448D01*
X946887Y47020D01*
X947092Y46728D01*
X947185Y46334D01*
X947117Y45936D01*
X946899Y45595D01*
X946565Y45366D01*
X946169Y45286D01*
X942053Y45286D01*
X929914Y33147D01*
X929914Y18255D01*
X929843Y17881D01*
X929622Y17542D01*
X929287Y17316D01*
X927740Y16675D01*
X925525Y14460D01*
X924326Y11566D01*
X924326Y11176D01*
X924258Y10810D01*
X924040Y10469D01*
X923706Y10240D01*
X923310Y10160D01*
X919606Y10160D01*
X919240Y10228D01*
X918899Y10446D01*
X918670Y10780D01*
X918590Y11176D01*
X918590Y11674D01*
X917237Y14942D01*
X914736Y17443D01*
X911468Y18796D01*
X910462Y18796D01*
G37*
G36*
X807633Y10240D02*
X807237Y10160D01*
X700515Y10160D01*
X700164Y10223D01*
X699820Y10435D01*
X699586Y10765D01*
X699500Y11160D01*
X699574Y11557D01*
X699797Y11894D01*
X746319Y58416D01*
X746641Y58634D01*
X747037Y58714D01*
X776129Y58714D01*
X776472Y58654D01*
X776818Y58444D01*
X777054Y58117D01*
X777144Y57722D01*
X777073Y57324D01*
X776853Y56985D01*
X776517Y56759D01*
X773757Y55616D01*
X771330Y53189D01*
X770016Y50017D01*
X770016Y49062D01*
X779408Y49062D01*
X779408Y47538D01*
X770016Y47538D01*
X770016Y46583D01*
X771330Y43412D01*
X772791Y41950D01*
X773002Y41643D01*
X773089Y41248D01*
X773015Y40850D01*
X772791Y40513D01*
X772191Y39913D01*
X771032Y37115D01*
X771032Y34085D01*
X772191Y31287D01*
X774333Y29145D01*
X777131Y27986D01*
X780161Y27986D01*
X782959Y29145D01*
X784278Y30464D01*
X784585Y30674D01*
X784980Y30761D01*
X785377Y30687D01*
X785714Y30464D01*
X787033Y29145D01*
X789831Y27986D01*
X792861Y27986D01*
X795659Y29145D01*
X796978Y30464D01*
X797285Y30674D01*
X797680Y30761D01*
X798077Y30687D01*
X798414Y30464D01*
X799733Y29145D01*
X802531Y27986D01*
X805561Y27986D01*
X808359Y29145D01*
X809678Y30464D01*
X809985Y30674D01*
X810380Y30761D01*
X810777Y30687D01*
X811114Y30464D01*
X812433Y29145D01*
X813833Y28565D01*
X814151Y28356D01*
X814380Y28023D01*
X814460Y27627D01*
X814460Y23114D01*
X814386Y22732D01*
X814162Y22395D01*
X813064Y21297D01*
X812749Y21083D01*
X812353Y20999D01*
X812061Y21056D01*
X809994Y21056D01*
X808136Y20286D01*
X806714Y18864D01*
X805944Y17006D01*
X805944Y14994D01*
X806714Y13136D01*
X807955Y11894D01*
X808159Y11602D01*
X808252Y11208D01*
X808185Y10810D01*
X807967Y10469D01*
X807633Y10240D01*
G37*
G36*
X192191Y10240D02*
X191795Y10160D01*
X11176Y10160D01*
X10810Y10228D01*
X10469Y10446D01*
X10240Y10780D01*
X10160Y11176D01*
X10160Y42565D01*
X10228Y42931D01*
X10446Y43272D01*
X10780Y43501D01*
X11176Y43581D01*
X19601Y43581D01*
X20947Y44139D01*
X21336Y44216D01*
X33560Y44216D01*
X33941Y44142D01*
X34278Y43918D01*
X64795Y13401D01*
X67222Y12396D01*
X76662Y12396D01*
X79089Y13401D01*
X79377Y13689D01*
X79684Y13900D01*
X80079Y13987D01*
X80476Y13912D01*
X80813Y13689D01*
X81188Y13315D01*
X84278Y13315D01*
X84278Y24686D01*
X81188Y24686D01*
X80813Y24311D01*
X80506Y24100D01*
X80111Y24014D01*
X79714Y24088D01*
X79377Y24311D01*
X79089Y24599D01*
X76662Y25604D01*
X71692Y25604D01*
X71311Y25678D01*
X70974Y25902D01*
X55029Y41847D01*
X54825Y42139D01*
X54732Y42533D01*
X54800Y42931D01*
X55018Y43272D01*
X55351Y43501D01*
X55747Y43581D01*
X61511Y43581D01*
X64172Y44683D01*
X66208Y46719D01*
X66231Y46776D01*
X66310Y46928D01*
X66826Y47750D01*
X67024Y48159D01*
X67359Y49119D01*
X67460Y49562D01*
X67574Y50573D01*
X67574Y51027D01*
X67460Y52038D01*
X67359Y52481D01*
X67024Y53441D01*
X66826Y53850D01*
X66358Y54595D01*
X66280Y54747D01*
X66152Y55055D01*
X66075Y55412D01*
X66143Y55810D01*
X66361Y56151D01*
X66695Y56380D01*
X67091Y56460D01*
X68068Y56460D01*
X69567Y57958D01*
X69859Y58163D01*
X70253Y58256D01*
X70651Y58188D01*
X70992Y57970D01*
X71221Y57636D01*
X71301Y57240D01*
X71301Y34054D01*
X77054Y28301D01*
X106946Y28301D01*
X109779Y31134D01*
X109779Y41360D01*
X109847Y41726D01*
X110065Y42067D01*
X110399Y42296D01*
X110795Y42376D01*
X117051Y42376D01*
X117849Y43173D01*
X118171Y43391D01*
X118567Y43471D01*
X122015Y43471D01*
X122381Y43403D01*
X122721Y43185D01*
X122950Y42851D01*
X123031Y42455D01*
X123031Y42205D01*
X123219Y41930D01*
X123306Y41535D01*
X123232Y41137D01*
X123008Y40800D01*
X122015Y39806D01*
X122015Y36716D01*
X133386Y36716D01*
X133386Y39806D01*
X133181Y40010D01*
X132992Y40272D01*
X132886Y40662D01*
X132940Y41063D01*
X133146Y41411D01*
X133472Y41650D01*
X133865Y41744D01*
X135936Y41814D01*
X136321Y41752D01*
X136665Y41540D01*
X136899Y41210D01*
X136986Y40815D01*
X136912Y40417D01*
X136689Y40080D01*
X136215Y39606D01*
X136215Y36516D01*
X142662Y36516D01*
X142662Y30414D01*
X146098Y30414D01*
X147532Y31848D01*
X147839Y32059D01*
X148234Y32145D01*
X148631Y32071D01*
X148968Y31848D01*
X150202Y30614D01*
X153638Y30614D01*
X153638Y36716D01*
X160086Y36716D01*
X160086Y39806D01*
X159092Y40800D01*
X158881Y41107D01*
X158794Y41502D01*
X158868Y41900D01*
X159070Y42203D01*
X159070Y49077D01*
X158127Y50020D01*
X157909Y50342D01*
X157829Y50739D01*
X157829Y51258D01*
X157903Y51639D01*
X158127Y51976D01*
X158286Y52136D01*
X158963Y53770D01*
X159161Y54076D01*
X159490Y54310D01*
X159885Y54397D01*
X160283Y54322D01*
X160620Y54099D01*
X161416Y53303D01*
X161634Y52981D01*
X161714Y52584D01*
X161714Y41742D01*
X164261Y39195D01*
X164478Y38873D01*
X164559Y38477D01*
X164559Y34796D01*
X164484Y34414D01*
X164261Y34077D01*
X162519Y32335D01*
X162519Y31072D01*
X167195Y26396D01*
X168680Y26396D01*
X169046Y26328D01*
X169387Y26110D01*
X169615Y25776D01*
X169696Y25380D01*
X169696Y23895D01*
X174372Y19219D01*
X175635Y19219D01*
X176023Y19607D01*
X176331Y19818D01*
X176725Y19905D01*
X177123Y19830D01*
X177460Y19607D01*
X179549Y17518D01*
X187799Y17518D01*
X190226Y19945D01*
X190518Y20149D01*
X190912Y20242D01*
X191310Y20174D01*
X191651Y19956D01*
X191880Y19623D01*
X191960Y19226D01*
X191960Y17762D01*
X207040Y17762D01*
X207040Y20650D01*
X207108Y21016D01*
X207326Y21357D01*
X207660Y21586D01*
X208056Y21666D01*
X210960Y21666D01*
X211326Y21598D01*
X211667Y21380D01*
X211896Y21046D01*
X211976Y20650D01*
X211976Y12869D01*
X212950Y11894D01*
X213154Y11602D01*
X213247Y11208D01*
X213180Y10810D01*
X212962Y10469D01*
X212628Y10240D01*
X212232Y10160D01*
X207205Y10160D01*
X206854Y10223D01*
X206510Y10435D01*
X206276Y10765D01*
X206189Y11160D01*
X206263Y11557D01*
X206487Y11894D01*
X207040Y12448D01*
X207040Y16238D01*
X191960Y16238D01*
X191960Y12448D01*
X192513Y11894D01*
X192718Y11602D01*
X192811Y11208D01*
X192743Y10810D01*
X192525Y10469D01*
X192191Y10240D01*
G37*
%LPC*%
G36*
X155162Y30614D02*
X158598Y30614D01*
X160086Y32102D01*
X160086Y35192D01*
X155162Y35192D01*
X155162Y30614D01*
G37*
G36*
X128462Y30614D02*
X131898Y30614D01*
X133386Y32102D01*
X133386Y35192D01*
X128462Y35192D01*
X128462Y30614D01*
G37*
G36*
X123502Y30614D02*
X126938Y30614D01*
X126938Y35192D01*
X122015Y35192D01*
X122015Y32102D01*
X123502Y30614D01*
G37*
G36*
X137702Y30414D02*
X141138Y30414D01*
X141138Y34992D01*
X136215Y34992D01*
X136215Y31902D01*
X137702Y30414D01*
G37*
G36*
X85802Y19762D02*
X90380Y19762D01*
X90380Y23198D01*
X88892Y24686D01*
X85802Y24686D01*
X85802Y19762D01*
G37*
G36*
X85802Y13315D02*
X88892Y13315D01*
X90380Y14802D01*
X90380Y18238D01*
X85802Y18238D01*
X85802Y13315D01*
G37*
%LPD*%
G36*
X1019618Y10240D02*
X1019222Y10160D01*
X1012403Y10160D01*
X1012044Y10225D01*
X1011702Y10441D01*
X1011470Y10772D01*
X1011387Y11168D01*
X1011464Y11565D01*
X1012056Y12994D01*
X1012056Y15006D01*
X1011286Y16864D01*
X1009835Y18316D01*
X1009603Y18465D01*
X1009369Y18795D01*
X1009282Y19190D01*
X1009356Y19588D01*
X1009579Y19925D01*
X1009663Y20008D01*
X1009970Y20219D01*
X1010365Y20306D01*
X1010763Y20232D01*
X1011100Y20008D01*
X1012094Y19015D01*
X1015184Y19015D01*
X1015184Y25462D01*
X1021286Y25462D01*
X1021286Y28391D01*
X1021354Y28757D01*
X1021572Y29097D01*
X1021906Y29326D01*
X1022302Y29407D01*
X1024277Y29407D01*
X1025170Y30299D01*
X1025170Y41301D01*
X1024277Y42194D01*
X1018529Y42194D01*
X1018147Y42268D01*
X1017810Y42491D01*
X1016354Y43948D01*
X1016136Y44270D01*
X1016056Y44666D01*
X1016056Y46006D01*
X1015822Y46571D01*
X1015745Y46928D01*
X1015813Y47326D01*
X1016031Y47667D01*
X1016364Y47896D01*
X1016760Y47976D01*
X1019631Y47976D01*
X1020524Y48869D01*
X1020524Y55131D01*
X1020414Y55242D01*
X1020210Y55534D01*
X1020117Y55928D01*
X1020184Y56326D01*
X1020402Y56667D01*
X1020736Y56896D01*
X1021132Y56976D01*
X1022868Y56976D01*
X1023219Y56913D01*
X1023563Y56701D01*
X1023797Y56371D01*
X1023884Y55976D01*
X1023810Y55579D01*
X1023586Y55242D01*
X1023476Y55131D01*
X1023476Y48869D01*
X1024408Y47937D01*
X1024564Y47908D01*
X1024905Y47690D01*
X1025134Y47356D01*
X1025214Y46960D01*
X1025214Y44553D01*
X1029658Y40109D01*
X1029862Y39816D01*
X1029955Y39423D01*
X1029887Y39024D01*
X1029670Y38684D01*
X1029336Y38455D01*
X1029076Y38402D01*
X1028156Y37482D01*
X1028156Y30868D01*
X1029206Y29818D01*
X1029417Y29511D01*
X1029503Y29116D01*
X1029429Y28719D01*
X1029206Y28382D01*
X1028156Y27332D01*
X1028156Y20718D01*
X1029279Y19596D01*
X1029489Y19288D01*
X1029576Y18893D01*
X1029502Y18496D01*
X1029279Y18159D01*
X1029191Y18072D01*
X1028884Y17861D01*
X1028489Y17774D01*
X1028092Y17848D01*
X1027755Y18072D01*
X1027452Y18374D01*
X1025594Y19144D01*
X1023582Y19144D01*
X1022062Y18514D01*
X1021722Y18438D01*
X1021322Y18500D01*
X1020978Y18712D01*
X1020744Y19042D01*
X1020658Y19437D01*
X1020732Y19834D01*
X1020955Y20171D01*
X1021286Y20502D01*
X1021286Y23938D01*
X1016708Y23938D01*
X1016708Y19015D01*
X1019911Y19015D01*
X1020263Y18952D01*
X1020607Y18739D01*
X1020841Y18410D01*
X1020927Y18015D01*
X1020853Y17617D01*
X1020630Y17280D01*
X1020302Y16952D01*
X1019532Y15094D01*
X1019532Y13082D01*
X1020161Y11565D01*
X1020237Y11208D01*
X1020170Y10810D01*
X1019952Y10469D01*
X1019618Y10240D01*
G37*
G36*
X1042117Y11454D02*
X1041720Y11374D01*
X1038706Y11374D01*
X1038347Y11439D01*
X1038005Y11655D01*
X1037774Y11986D01*
X1037690Y12382D01*
X1037767Y12779D01*
X1038232Y13900D01*
X1038232Y15912D01*
X1037462Y17770D01*
X1036797Y18435D01*
X1036587Y18742D01*
X1036500Y19137D01*
X1036574Y19535D01*
X1036797Y19872D01*
X1037644Y20718D01*
X1037644Y27332D01*
X1036594Y28382D01*
X1036384Y28689D01*
X1036297Y29084D01*
X1036371Y29481D01*
X1036594Y29818D01*
X1037644Y30868D01*
X1037644Y37482D01*
X1036751Y38375D01*
X1036202Y38375D01*
X1035836Y38443D01*
X1035495Y38661D01*
X1035266Y38994D01*
X1035186Y39391D01*
X1035186Y41047D01*
X1030084Y46149D01*
X1029866Y46471D01*
X1029786Y46868D01*
X1029786Y46960D01*
X1029854Y47326D01*
X1030072Y47667D01*
X1030406Y47896D01*
X1030588Y47933D01*
X1031726Y49070D01*
X1032018Y49274D01*
X1032412Y49367D01*
X1032810Y49300D01*
X1033151Y49082D01*
X1033380Y48748D01*
X1033436Y48472D01*
X1034948Y46960D01*
X1037738Y46960D01*
X1037738Y52762D01*
X1043540Y52762D01*
X1043540Y54774D01*
X1043603Y55125D01*
X1043815Y55469D01*
X1044145Y55703D01*
X1044540Y55790D01*
X1044937Y55716D01*
X1045274Y55493D01*
X1045316Y55451D01*
X1045534Y55129D01*
X1045614Y54732D01*
X1045614Y39191D01*
X1045546Y38824D01*
X1045328Y38484D01*
X1044994Y38255D01*
X1044598Y38175D01*
X1044049Y38175D01*
X1043156Y37282D01*
X1043156Y30668D01*
X1044206Y29618D01*
X1044417Y29311D01*
X1044503Y28916D01*
X1044429Y28519D01*
X1044206Y28182D01*
X1043156Y27132D01*
X1043156Y20518D01*
X1044049Y19626D01*
X1044598Y19626D01*
X1044964Y19557D01*
X1045305Y19339D01*
X1045534Y19006D01*
X1045614Y18610D01*
X1045614Y15268D01*
X1045540Y14886D01*
X1045316Y14549D01*
X1042439Y11672D01*
X1042117Y11454D01*
G37*
%LPC*%
G36*
X1039262Y46960D02*
X1042052Y46960D01*
X1043540Y48448D01*
X1043540Y51238D01*
X1039262Y51238D01*
X1039262Y46960D01*
G37*
%LPD*%
G36*
X413458Y139070D02*
X413111Y139000D01*
X401368Y139000D01*
X401035Y139065D01*
X400740Y139260D01*
X399029Y140971D01*
X399018Y140980D01*
X398997Y140990D01*
X398933Y141000D01*
X365368Y141000D01*
X365035Y141065D01*
X364740Y141260D01*
X363260Y142740D01*
X363070Y143022D01*
X363000Y143368D01*
X363000Y149632D01*
X363065Y149965D01*
X363260Y150260D01*
X364740Y151740D01*
X365022Y151930D01*
X365368Y152000D01*
X381959Y152000D01*
X381973Y152001D01*
X381995Y152009D01*
X382047Y152047D01*
X387971Y157971D01*
X387980Y157982D01*
X387990Y158003D01*
X388000Y158067D01*
X388000Y169632D01*
X388065Y169965D01*
X388260Y170260D01*
X390740Y172740D01*
X391022Y172930D01*
X391368Y173000D01*
X404632Y173000D01*
X404965Y172935D01*
X405260Y172740D01*
X406740Y171260D01*
X406930Y170979D01*
X407000Y170632D01*
X407000Y159041D01*
X407001Y159027D01*
X407009Y159005D01*
X407047Y158953D01*
X413740Y152260D01*
X413930Y151979D01*
X414000Y151632D01*
X414000Y139889D01*
X413940Y139569D01*
X413750Y139270D01*
X413458Y139070D01*
G37*
G36*
X478939Y35201D02*
X477948Y35000D01*
X438052Y35000D01*
X437099Y35186D01*
X436256Y35744D01*
X434744Y37256D01*
X434201Y38061D01*
X434000Y39052D01*
X434000Y52948D01*
X434186Y53901D01*
X434744Y54744D01*
X439256Y59256D01*
X440061Y59799D01*
X441052Y60000D01*
X476948Y60000D01*
X477901Y59814D01*
X478744Y59256D01*
X482256Y55744D01*
X482799Y54939D01*
X483000Y53948D01*
X483000Y40052D01*
X482814Y39099D01*
X482256Y38256D01*
X479744Y35744D01*
X478939Y35201D01*
G37*
G36*
X479451Y72201D02*
X478460Y72000D01*
X430540Y72000D01*
X429624Y72171D01*
X428773Y72716D01*
X428201Y73549D01*
X428000Y74540D01*
X428000Y76460D01*
X428171Y77376D01*
X428716Y78227D01*
X429549Y78799D01*
X430540Y79000D01*
X440839Y79000D01*
X441010Y79022D01*
X441080Y79080D01*
X448256Y86256D01*
X449061Y86799D01*
X450052Y87000D01*
X472948Y87000D01*
X473901Y86814D01*
X474744Y86256D01*
X480256Y80744D01*
X480799Y79939D01*
X481000Y78948D01*
X481000Y74540D01*
X480829Y73624D01*
X480284Y72773D01*
X479451Y72201D01*
G37*
G36*
X498939Y39201D02*
X497948Y39000D01*
X484052Y39000D01*
X483099Y39186D01*
X482256Y39744D01*
X481744Y40256D01*
X481201Y41061D01*
X481000Y42052D01*
X481000Y52460D01*
X481171Y53376D01*
X481716Y54227D01*
X482549Y54799D01*
X483540Y55000D01*
X486839Y55000D01*
X487010Y55022D01*
X487080Y55080D01*
X492256Y60256D01*
X493061Y60799D01*
X494052Y61000D01*
X498460Y61000D01*
X499376Y60829D01*
X500227Y60284D01*
X500799Y59451D01*
X501000Y58460D01*
X501000Y42052D01*
X500814Y41099D01*
X500256Y40256D01*
X499744Y39744D01*
X498939Y39201D01*
G37*
G36*
X45092Y49676D02*
X44966Y50800D01*
X45092Y51924D01*
X45466Y52991D01*
X46068Y53949D01*
X46867Y54749D01*
X47825Y55350D01*
X48892Y55724D01*
X50013Y55850D01*
X61019Y55850D01*
X62140Y55724D01*
X63207Y55350D01*
X64165Y54749D01*
X64965Y53949D01*
X65566Y52991D01*
X65940Y51924D01*
X66066Y50800D01*
X65940Y49676D01*
X65566Y48609D01*
X64965Y47651D01*
X64165Y46852D01*
X63207Y46250D01*
X62140Y45876D01*
X61019Y45750D01*
X50013Y45750D01*
X48892Y45876D01*
X47825Y46250D01*
X46867Y46852D01*
X46068Y47651D01*
X45466Y48609D01*
X45092Y49676D01*
G37*
G36*
X45092Y49676D02*
X44966Y50800D01*
X45092Y51924D01*
X45466Y52991D01*
X46068Y53949D01*
X46867Y54749D01*
X47825Y55350D01*
X48892Y55724D01*
X50013Y55850D01*
X61019Y55850D01*
X62140Y55724D01*
X63207Y55350D01*
X64165Y54749D01*
X64965Y53949D01*
X65566Y52991D01*
X65940Y51924D01*
X66066Y50800D01*
X65940Y49676D01*
X65566Y48609D01*
X64965Y47651D01*
X64165Y46852D01*
X63207Y46250D01*
X62140Y45876D01*
X61019Y45750D01*
X50013Y45750D01*
X48892Y45876D01*
X47825Y46250D01*
X46867Y46852D01*
X46068Y47651D01*
X45466Y48609D01*
X45092Y49676D01*
G37*
G36*
X45092Y136076D02*
X44966Y137200D01*
X45092Y138324D01*
X45466Y139391D01*
X46068Y140349D01*
X46867Y141149D01*
X47825Y141750D01*
X48892Y142124D01*
X50013Y142250D01*
X61019Y142250D01*
X62140Y142124D01*
X63207Y141750D01*
X64165Y141149D01*
X64965Y140349D01*
X65566Y139391D01*
X65940Y138324D01*
X66066Y137200D01*
X65940Y136076D01*
X65566Y135009D01*
X64965Y134051D01*
X64165Y133252D01*
X63207Y132650D01*
X62140Y132276D01*
X61019Y132150D01*
X50013Y132150D01*
X48892Y132276D01*
X47825Y132650D01*
X46867Y133252D01*
X46068Y134051D01*
X45466Y135009D01*
X45092Y136076D01*
G37*
G36*
X45092Y136076D02*
X44966Y137200D01*
X45092Y138324D01*
X45466Y139391D01*
X46068Y140349D01*
X46867Y141149D01*
X47825Y141750D01*
X48892Y142124D01*
X50013Y142250D01*
X61019Y142250D01*
X62140Y142124D01*
X63207Y141750D01*
X64165Y141149D01*
X64965Y140349D01*
X65566Y139391D01*
X65940Y138324D01*
X66066Y137200D01*
X65940Y136076D01*
X65566Y135009D01*
X64965Y134051D01*
X64165Y133252D01*
X63207Y132650D01*
X62140Y132276D01*
X61019Y132150D01*
X50013Y132150D01*
X48892Y132276D01*
X47825Y132650D01*
X46867Y133252D01*
X46068Y134051D01*
X45466Y135009D01*
X45092Y136076D01*
G37*
G36*
X4792Y49676D02*
X4666Y50800D01*
X4792Y51924D01*
X5166Y52991D01*
X5768Y53949D01*
X6567Y54749D01*
X7525Y55350D01*
X8592Y55724D01*
X9713Y55850D01*
X17719Y55850D01*
X18840Y55724D01*
X19907Y55350D01*
X20865Y54749D01*
X21665Y53949D01*
X22266Y52991D01*
X22640Y51924D01*
X22766Y50800D01*
X22640Y49676D01*
X22266Y48609D01*
X21665Y47651D01*
X20865Y46852D01*
X19907Y46250D01*
X18840Y45876D01*
X17719Y45750D01*
X9713Y45750D01*
X8592Y45876D01*
X7525Y46250D01*
X6567Y46852D01*
X5768Y47651D01*
X5166Y48609D01*
X4792Y49676D01*
G37*
G36*
X4792Y49676D02*
X4666Y50800D01*
X4792Y51924D01*
X5166Y52991D01*
X5768Y53949D01*
X6567Y54749D01*
X7525Y55350D01*
X8592Y55724D01*
X9713Y55850D01*
X17719Y55850D01*
X18840Y55724D01*
X19907Y55350D01*
X20865Y54749D01*
X21665Y53949D01*
X22266Y52991D01*
X22640Y51924D01*
X22766Y50800D01*
X22640Y49676D01*
X22266Y48609D01*
X21665Y47651D01*
X20865Y46852D01*
X19907Y46250D01*
X18840Y45876D01*
X17719Y45750D01*
X9713Y45750D01*
X8592Y45876D01*
X7525Y46250D01*
X6567Y46852D01*
X5768Y47651D01*
X5166Y48609D01*
X4792Y49676D01*
G37*
G36*
X4792Y136076D02*
X4666Y137200D01*
X4792Y138324D01*
X5166Y139391D01*
X5768Y140349D01*
X6567Y141149D01*
X7525Y141750D01*
X8592Y142124D01*
X9713Y142250D01*
X17719Y142250D01*
X18840Y142124D01*
X19907Y141750D01*
X20865Y141149D01*
X21665Y140349D01*
X22266Y139391D01*
X22640Y138324D01*
X22766Y137200D01*
X22640Y136076D01*
X22266Y135009D01*
X21665Y134051D01*
X20865Y133252D01*
X19907Y132650D01*
X18840Y132276D01*
X17719Y132150D01*
X9713Y132150D01*
X8592Y132276D01*
X7525Y132650D01*
X6567Y133252D01*
X5768Y134051D01*
X5166Y135009D01*
X4792Y136076D01*
G37*
G36*
X4792Y136076D02*
X4666Y137200D01*
X4792Y138324D01*
X5166Y139391D01*
X5768Y140349D01*
X6567Y141149D01*
X7525Y141750D01*
X8592Y142124D01*
X9713Y142250D01*
X17719Y142250D01*
X18840Y142124D01*
X19907Y141750D01*
X20865Y141149D01*
X21665Y140349D01*
X22266Y139391D01*
X22640Y138324D01*
X22766Y137200D01*
X22640Y136076D01*
X22266Y135009D01*
X21665Y134051D01*
X20865Y133252D01*
X19907Y132650D01*
X18840Y132276D01*
X17719Y132150D01*
X9713Y132150D01*
X8592Y132276D01*
X7525Y132650D01*
X6567Y133252D01*
X5768Y134051D01*
X5166Y135009D01*
X4792Y136076D01*
G37*
G36*
X390939Y73201D02*
X389948Y73000D01*
X382540Y73000D01*
X381624Y73171D01*
X380773Y73716D01*
X380201Y74549D01*
X380000Y75540D01*
X380000Y80460D01*
X380171Y81376D01*
X380716Y82227D01*
X381549Y82799D01*
X382540Y83000D01*
X397839Y83000D01*
X398010Y83022D01*
X398080Y83080D01*
X398886Y83886D01*
X398992Y84023D01*
X399000Y84113D01*
X399000Y87460D01*
X399171Y88376D01*
X399716Y89227D01*
X400549Y89799D01*
X401540Y90000D01*
X403460Y90000D01*
X404376Y89829D01*
X405227Y89284D01*
X405799Y88451D01*
X406000Y87460D01*
X406000Y79540D01*
X405829Y78624D01*
X405284Y77773D01*
X404451Y77201D01*
X403460Y77000D01*
X395161Y77000D01*
X394990Y76978D01*
X394920Y76920D01*
X391744Y73744D01*
X390939Y73201D01*
G37*
G36*
X363450Y82650D02*
X363450Y72550D01*
X359350Y72550D01*
X359350Y82650D01*
X363450Y82650D01*
G37*
G36*
X363450Y82650D02*
X363450Y72550D01*
X359350Y72550D01*
X359350Y82650D01*
X363450Y82650D01*
G37*
G36*
X363450Y82650D02*
X363450Y72550D01*
X359350Y72550D01*
X359350Y82650D01*
X363450Y82650D01*
G37*
G36*
X363450Y82650D02*
X363450Y72550D01*
X359350Y72550D01*
X359350Y82650D01*
X363450Y82650D01*
G37*
G36*
X493050Y68650D02*
X503150Y68650D01*
X503150Y64550D01*
X493050Y64550D01*
X493050Y68650D01*
G37*
G36*
X493050Y68650D02*
X503150Y68650D01*
X503150Y64550D01*
X493050Y64550D01*
X493050Y68650D01*
G37*
G36*
X493050Y68650D02*
X503150Y68650D01*
X503150Y64550D01*
X493050Y64550D01*
X493050Y68650D01*
G37*
G36*
X493050Y68650D02*
X503150Y68650D01*
X503150Y64550D01*
X493050Y64550D01*
X493050Y68650D01*
G37*
G36*
X884850Y133250D02*
X884850Y123150D01*
X880750Y123150D01*
X880750Y133250D01*
X884850Y133250D01*
G37*
G36*
X884850Y133250D02*
X884850Y123150D01*
X880750Y123150D01*
X880750Y133250D01*
X884850Y133250D01*
G37*
G36*
X884850Y133250D02*
X884850Y123150D01*
X880750Y123150D01*
X880750Y133250D01*
X884850Y133250D01*
G37*
G36*
X884850Y133250D02*
X884850Y123150D01*
X880750Y123150D01*
X880750Y133250D01*
X884850Y133250D01*
G37*
G36*
X407451Y42201D02*
X406460Y42000D01*
X405540Y42000D01*
X404624Y42171D01*
X403773Y42716D01*
X403201Y43549D01*
X403000Y44540D01*
X403000Y52839D01*
X402978Y53010D01*
X402920Y53080D01*
X398744Y57256D01*
X398201Y58061D01*
X398000Y59052D01*
X398000Y66460D01*
X398171Y67376D01*
X398716Y68227D01*
X399549Y68799D01*
X400540Y69000D01*
X403460Y69000D01*
X404376Y68829D01*
X405227Y68284D01*
X405799Y67451D01*
X406000Y66460D01*
X406000Y59161D01*
X406022Y58990D01*
X406080Y58920D01*
X408256Y56744D01*
X408799Y55939D01*
X409000Y54948D01*
X409000Y44540D01*
X408829Y43624D01*
X408284Y42773D01*
X407451Y42201D01*
G37*
D10*
X245750Y112000D03*
D11*
X245750Y95000D03*
D10*
X245750Y78000D03*
D12*
X122750Y95000D03*
D13*
X988200Y160254D03*
X988200Y169946D03*
X944700Y161054D03*
X944700Y170746D03*
X905500Y138146D03*
X905500Y128454D03*
X454500Y28754D03*
X454500Y38446D03*
X471500Y28654D03*
X471500Y38346D03*
X893300Y85046D03*
X893300Y75354D03*
X266300Y66154D03*
X266300Y75846D03*
X334300Y89646D03*
X334300Y79954D03*
X919800Y138046D03*
X919800Y128354D03*
D14*
X1015946Y24700D03*
X1006254Y24700D03*
D13*
X141900Y35754D03*
X141900Y45446D03*
X384900Y89546D03*
X384900Y79854D03*
X127700Y35954D03*
X127700Y45646D03*
X919900Y85146D03*
X919900Y75454D03*
D15*
X874800Y128200D03*
X890800Y128200D03*
D16*
X882800Y132200D03*
X882800Y124200D03*
D17*
X882800Y128200D03*
X882800Y135700D03*
X882800Y120700D03*
D13*
X860094Y137140D03*
X860094Y127448D03*
D14*
X1070646Y23000D03*
X1060954Y23000D03*
D13*
X908100Y84946D03*
X908100Y75254D03*
X154400Y35954D03*
X154400Y45646D03*
D15*
X353400Y77600D03*
X369400Y77600D03*
D16*
X361400Y81600D03*
X361400Y73600D03*
D17*
X361400Y77600D03*
X361400Y85100D03*
X361400Y70100D03*
D15*
X498100Y58600D03*
X498100Y74600D03*
D16*
X494100Y66600D03*
X502100Y66600D03*
D17*
X498100Y66600D03*
X490600Y66600D03*
X505600Y66600D03*
D18*
X280100Y78200D03*
X280100Y63200D03*
D19*
X829446Y48300D03*
X829446Y35600D03*
X816746Y48300D03*
X816746Y35600D03*
X804046Y48300D03*
X804046Y35600D03*
X791346Y48300D03*
X791346Y35600D03*
X778646Y48300D03*
X778646Y35600D03*
D20*
X847900Y127974D03*
X847900Y136614D03*
D21*
X880820Y74900D03*
X872180Y74900D03*
X105080Y46900D03*
X113720Y46900D03*
D22*
X464500Y78000D03*
X464500Y56000D03*
D23*
X317100Y97800D03*
X297900Y97800D03*
X307500Y76800D03*
D24*
X529000Y119500D03*
X529000Y129500D03*
X513000Y124500D03*
X530000Y145500D03*
X530000Y155500D03*
X514000Y150500D03*
X529000Y94000D03*
X529000Y104000D03*
X513000Y99000D03*
D25*
X270400Y33500D03*
X280400Y33500D03*
X275400Y49500D03*
X342100Y128000D03*
X332100Y128000D03*
X337100Y112000D03*
D24*
X301000Y135100D03*
X301000Y125100D03*
X317000Y130100D03*
D26*
X333975Y44100D03*
X323825Y44100D03*
X553075Y93900D03*
X542925Y93900D03*
X554075Y145400D03*
X543925Y145400D03*
D27*
X1047900Y23825D03*
X1047900Y33975D03*
X1032900Y24025D03*
X1032900Y34175D03*
X989200Y23225D03*
X989200Y33375D03*
D26*
X544825Y158000D03*
X554975Y158000D03*
X543825Y132500D03*
X553975Y132500D03*
X543825Y106900D03*
X553975Y106900D03*
X255175Y46100D03*
X245025Y46100D03*
X956325Y30900D03*
X966475Y30900D03*
D28*
X1003348Y35800D03*
X1019652Y35800D03*
D26*
X496075Y150700D03*
X485925Y150700D03*
X495075Y124400D03*
X484925Y124400D03*
X495075Y99200D03*
X484925Y99200D03*
X246225Y33600D03*
X256375Y33600D03*
X316975Y112300D03*
X306825Y112300D03*
D29*
X1146600Y129552D03*
X1146600Y113248D03*
D26*
G36*
X167826Y27921D02*
X164043Y31704D01*
X168596Y36257D01*
X172379Y32474D01*
X167826Y27921D01*
G37*
G36*
X175004Y20743D02*
X171221Y24526D01*
X175774Y29079D01*
X179557Y25296D01*
X175004Y20743D01*
G37*
X553075Y119400D03*
X542925Y119400D03*
G36*
X175808Y35921D02*
X172025Y39704D01*
X176578Y44257D01*
X180361Y40474D01*
X175808Y35921D01*
G37*
G36*
X182986Y28743D02*
X179203Y32526D01*
X183756Y37079D01*
X187539Y33296D01*
X182986Y28743D01*
G37*
D27*
X464200Y164525D03*
X464200Y174675D03*
D30*
X1224350Y62500D03*
X1224350Y127500D03*
X1179350Y62500D03*
X1179350Y127500D03*
D31*
X932200Y10000D03*
X955200Y9906D03*
X977200Y9906D03*
X913600Y180094D03*
X1061700Y10000D03*
X909700Y9906D03*
D32*
X1038500Y140000D03*
X1033000Y131000D03*
X1027500Y140000D03*
X1022000Y131000D03*
X1016500Y140000D03*
X1011000Y131000D03*
X1005500Y140000D03*
X1000000Y131000D03*
X994500Y140000D03*
X989000Y131000D03*
X983500Y140000D03*
X978000Y131000D03*
X972500Y140000D03*
X967000Y131000D03*
X961500Y140000D03*
X950500Y140000D03*
X950500Y129000D03*
X959500Y123500D03*
X950500Y118000D03*
X959500Y112500D03*
X950500Y107000D03*
X959500Y101500D03*
X950500Y96000D03*
X959500Y90500D03*
X950500Y85000D03*
X959500Y79500D03*
X950500Y74000D03*
X959500Y68500D03*
X950500Y63000D03*
X950500Y52000D03*
X961500Y52000D03*
X967000Y61000D03*
X972500Y52000D03*
X978000Y61000D03*
X983500Y52000D03*
X989000Y61000D03*
X994500Y52000D03*
X1000000Y61000D03*
X1005500Y52000D03*
X1011000Y61000D03*
X1016500Y52000D03*
X1022000Y61000D03*
X1027500Y52000D03*
X1033000Y61000D03*
X1038500Y52000D03*
X1038500Y79500D03*
X1038500Y112500D03*
X1027500Y122000D03*
X1016500Y122000D03*
X1005500Y122000D03*
X994500Y122000D03*
X983500Y122000D03*
X968500Y107000D03*
X968500Y96000D03*
X968500Y85000D03*
X983500Y70000D03*
X994500Y70000D03*
X1005500Y70000D03*
X1016500Y70000D03*
X1027500Y70000D03*
X941500Y134500D03*
X941500Y123500D03*
X941500Y112500D03*
X941500Y101500D03*
X941500Y90500D03*
X941500Y79500D03*
X941500Y68500D03*
X941500Y57500D03*
X1055000Y52000D03*
X1066000Y52000D03*
X1077000Y52000D03*
X1077000Y140000D03*
X1066000Y140000D03*
X1055000Y140000D03*
D33*
X959600Y167000D03*
X973600Y167000D03*
D27*
X448000Y123425D03*
X448000Y133575D03*
D14*
X413346Y165000D03*
X403654Y165000D03*
D13*
X393500Y134654D03*
X393500Y144346D03*
D34*
X430000Y146500D03*
X420500Y146500D03*
X411000Y146500D03*
X411000Y121500D03*
X430000Y121500D03*
D35*
X403000Y88000D03*
X403000Y83000D03*
X403000Y78000D03*
X403000Y73000D03*
X403000Y68000D03*
X431000Y68000D03*
X431000Y73000D03*
X431000Y78000D03*
X431000Y83000D03*
X431000Y88000D03*
D36*
X417000Y78000D03*
D37*
X414500Y63500D03*
X419500Y63500D03*
X419500Y92500D03*
X414500Y92500D03*
D14*
X406654Y34500D03*
X416346Y34500D03*
X386654Y20000D03*
X396346Y20000D03*
D29*
X396000Y47652D03*
X396000Y31348D03*
X379500Y31348D03*
X379500Y47652D03*
D27*
X444500Y164425D03*
X444500Y174575D03*
X431000Y174575D03*
X431000Y164425D03*
X454500Y153925D03*
X454500Y164075D03*
D26*
X322925Y59000D03*
X333075Y59000D03*
D38*
X61266Y126000D03*
X61266Y62000D03*
X61266Y118000D03*
X61266Y70000D03*
D39*
X61266Y91500D03*
X61266Y96500D03*
X61266Y86500D03*
X61266Y81500D03*
X61266Y76500D03*
X61266Y101500D03*
X61266Y106500D03*
X61266Y111500D03*
D40*
X60071Y137180D02*
X51181Y137180D01*
X51181Y50820D02*
X60071Y50820D01*
X18161Y137180D02*
X9271Y137180D01*
X9271Y50820D02*
X18161Y50820D01*
D26*
X93575Y47000D03*
X83425Y47000D03*
X93575Y143500D03*
X83425Y143500D03*
D41*
X696400Y106000D03*
X696400Y101000D03*
X696400Y96000D03*
X696400Y91000D03*
D42*
X703000Y89400D03*
X708000Y89400D03*
X713000Y89400D03*
D41*
X719600Y91000D03*
X719600Y96000D03*
X719600Y101000D03*
X719600Y106000D03*
D42*
X713000Y107600D03*
X708000Y107600D03*
X703000Y107600D03*
D13*
X702000Y65154D03*
X702000Y74846D03*
X688500Y74846D03*
X688500Y65154D03*
X748500Y100346D03*
X748500Y90654D03*
X736000Y90154D03*
X736000Y99846D03*
D26*
X296075Y146500D03*
X285925Y146500D03*
D27*
X272500Y132925D03*
X272500Y143075D03*
D26*
X332925Y142000D03*
X343075Y142000D03*
X404925Y45500D03*
X415075Y45500D03*
X426925Y46000D03*
X437075Y46000D03*
X714925Y122500D03*
X725075Y122500D03*
D27*
X678000Y96925D03*
X678000Y107075D03*
D43*
X199500Y17000D03*
D44*
X216500Y17000D03*
X216500Y37000D03*
X197500Y37000D03*
D13*
X1147000Y151154D03*
X1147000Y160846D03*
X308000Y47154D03*
X308000Y56846D03*
D14*
X85040Y19000D03*
X75348Y19000D03*
X82154Y165000D03*
X91846Y165000D03*
D45*
X102000Y144000D03*
X93000Y57000D03*
X135000Y19000D03*
X147000Y19000D03*
X159000Y19000D03*
X295000Y157000D03*
X328000Y166000D03*
X289000Y129000D03*
X280000Y24000D03*
X335000Y34000D03*
X374000Y92000D03*
X335000Y102000D03*
X369000Y174000D03*
X415000Y176000D03*
X478000Y164000D03*
X382000Y134000D03*
X421000Y133000D03*
X460000Y135000D03*
X415000Y54000D03*
X427000Y56056D03*
X364000Y34000D03*
X442000Y26000D03*
X432000Y26000D03*
X485000Y26000D03*
X494000Y26000D03*
X562000Y119000D03*
X563000Y145000D03*
X563000Y100000D03*
X678000Y89000D03*
X721000Y82000D03*
X702000Y55000D03*
X689000Y55000D03*
X735000Y110000D03*
X746000Y110000D03*
X860000Y146000D03*
X892000Y146000D03*
X945000Y149000D03*
X921000Y149000D03*
X929000Y86000D03*
X882000Y88000D03*
X958000Y60944D03*
X1033000Y131000D03*
X1039000Y140000D03*
X1038000Y112000D03*
X1039000Y80000D03*
X941000Y49000D03*
X969000Y123444D03*
X1160000Y108000D03*
X1080000Y23000D03*
X950000Y63000D03*
X951000Y52000D03*
D46*
X989000Y136024D02*
X989000Y148000D01*
X988200Y148800D01*
X988200Y160254D01*
X882800Y135700D02*
X882800Y132200D01*
X882800Y124200D02*
X882800Y120700D01*
X498100Y66600D02*
X490600Y66600D01*
X498100Y66600D02*
X505600Y66600D01*
X361400Y81600D02*
X361400Y85100D01*
X361400Y73600D02*
X361400Y70100D01*
X490600Y66600D02*
X494100Y66600D01*
X498100Y66600D01*
X502100Y66600D02*
X505600Y66600D01*
X1038500Y52000D02*
X1039000Y51500D01*
X1039000Y43000D01*
D45*
X1039000Y43000D03*
D46*
X415000Y54000D02*
X415000Y72000D01*
D45*
X415000Y72000D03*
D46*
X414000Y73000D02*
X403000Y73000D01*
X414000Y73000D02*
X414500Y72500D01*
X415000Y72000D01*
D47*
X68266Y55000D02*
X61266Y62000D01*
X68266Y55000D02*
X69000Y55000D01*
X417000Y78000D02*
X418000Y78000D01*
X422000Y74000D01*
X423500Y75500D01*
X423500Y77500D01*
X418000Y83000D01*
X417000Y78000D02*
X417000Y75000D01*
X414500Y72500D01*
X417000Y74000D02*
X417000Y78000D01*
X417000Y74000D02*
X415000Y72000D01*
X1055000Y140000D02*
X1055000Y153000D01*
X1056000Y153000D01*
X1077000Y154000D02*
X1077000Y140000D01*
X1066000Y59000D02*
X1066000Y52000D01*
X1077000Y52000D02*
X1077000Y39000D01*
X1076000Y38000D01*
D45*
X1016000Y13692D03*
X1069900Y156700D03*
X1079900Y156700D03*
X1089900Y156700D03*
X1099900Y156700D03*
X1109900Y156700D03*
X1119900Y156700D03*
X1119900Y146700D03*
X1119900Y136700D03*
X1119900Y126700D03*
X1119900Y116700D03*
X1119900Y106700D03*
X1119900Y96700D03*
X1119900Y86700D03*
X1119900Y76700D03*
X1119900Y66700D03*
X1119900Y56700D03*
X1119900Y46700D03*
X1119900Y36700D03*
X1109900Y36700D03*
X1089900Y36700D03*
X1079900Y36700D03*
X1065900Y59700D03*
X1099900Y36700D03*
D47*
X1055000Y37634D02*
X1055000Y52000D01*
X1055000Y37634D02*
X1054986Y37620D01*
D48*
X111000Y160000D03*
X140000Y160000D03*
X180000Y160000D03*
X220000Y160000D03*
X260000Y160000D03*
X120000Y140000D03*
X160000Y140000D03*
X200000Y140000D03*
X100000Y120000D03*
X140000Y120000D03*
X180000Y120000D03*
X100000Y100000D03*
X20000Y20000D03*
X110000Y20000D03*
X640000Y120000D03*
X680000Y120000D03*
X600000Y176058D03*
X639000Y176058D03*
X680000Y176058D03*
X720000Y176058D03*
X760000Y176058D03*
X800000Y176058D03*
X840000Y176058D03*
X880000Y176000D03*
X1140000Y176058D03*
X1180000Y176058D03*
X1220000Y176058D03*
X1260000Y176058D03*
X1240000Y160000D03*
X1200000Y160000D03*
X1160000Y160000D03*
X1200000Y140000D03*
X1240000Y140000D03*
X1200000Y100000D03*
X1240000Y100000D03*
X1220000Y80000D03*
X1260000Y80000D03*
X1200000Y40000D03*
X1240000Y40000D03*
X1160000Y40000D03*
X1180000Y20000D03*
X1220000Y20000D03*
X1260000Y20000D03*
X1140000Y20000D03*
X790000Y85000D03*
X737000Y26000D03*
X868000Y49000D03*
X540000Y60000D03*
X580000Y60000D03*
X620000Y60000D03*
X660000Y60000D03*
X640000Y40000D03*
X600000Y40000D03*
X560000Y40000D03*
X660000Y100000D03*
X660000Y140000D03*
D45*
X257300Y22544D03*
D48*
X18000Y170914D03*
D45*
X988886Y147886D03*
D46*
X989000Y148000D01*
D48*
X1047000Y157000D03*
X1047000Y134000D03*
X1047000Y122000D03*
X1033821Y101381D03*
X1024000Y97000D03*
X977317Y100070D03*
X987183Y105592D03*
X998000Y79000D03*
X1009000Y79000D03*
X1022000Y80000D03*
X1045000Y88000D03*
X1054000Y97000D03*
X1061000Y107000D03*
X1064000Y120000D03*
X1065000Y131000D03*
X1064000Y150000D03*
X1046000Y147000D03*
X1028622Y149851D03*
X1034000Y158000D03*
X1013000Y159000D03*
X1011000Y149000D03*
X854000Y84000D03*
X866000Y22000D03*
X796000Y20000D03*
D49*
X1015946Y24700D02*
X1016000Y24646D01*
X1016000Y13692D01*
X1023692Y6000D01*
X1047000Y6000D01*
X1053064Y12064D01*
X1053064Y18064D02*
X1055000Y20000D01*
X1053064Y18064D02*
X1053064Y12064D01*
D45*
X1054310Y40610D03*
D47*
X1055000Y31366D02*
X1055000Y20000D01*
X1055000Y31366D02*
X1054986Y31380D01*
X1054986Y37620D01*
D48*
X66119Y36105D03*
D45*
X42101Y31101D03*
X306000Y39298D03*
D49*
X972500Y140000D02*
X973600Y141100D01*
X973600Y167000D01*
D47*
X982350Y167000D01*
X988200Y169946D01*
D49*
X959600Y167000D02*
X959600Y156628D01*
X967000Y149228D02*
X967000Y131000D01*
X967000Y149228D02*
X959600Y156628D01*
D47*
X959600Y167000D02*
X951350Y167000D01*
X944700Y170746D01*
D45*
X950500Y85000D03*
D49*
X994500Y70000D02*
X995000Y70000D01*
D45*
X995000Y70000D03*
X1147000Y140000D03*
D49*
X1147000Y127300D01*
X1146600Y129552D01*
X1147150Y127450D01*
X1148652Y127500D02*
X1179350Y127500D01*
X1179350Y62500D01*
X1147000Y140000D02*
X1147000Y151154D01*
X1146600Y129552D02*
X1148652Y127500D01*
X1047900Y23825D02*
X1047900Y13900D01*
X1043088Y9088D01*
D45*
X829000Y14088D03*
D49*
X829446Y14534D01*
X829446Y35600D01*
D45*
X1024588Y14088D03*
D49*
X1029588Y9088D02*
X1043088Y9088D01*
X1029588Y9088D02*
X1024588Y14088D01*
D45*
X811000Y16000D03*
D49*
X816746Y21746D01*
X816746Y35600D01*
D45*
X1033176Y14906D03*
D49*
X1032900Y15182D02*
X1032900Y24025D01*
X1032900Y15182D02*
X1033176Y14906D01*
D45*
X974000Y24818D03*
D49*
X976353Y22465D02*
X989200Y23225D01*
X976353Y22465D02*
X974000Y24818D01*
X1005500Y52000D02*
X1006000Y51500D01*
X1003348Y35800D02*
X1006730Y35070D01*
X1006254Y24700D01*
X1006730Y14270D01*
X1007000Y14000D01*
D45*
X1007000Y14000D03*
D49*
X1003348Y49848D02*
X1005500Y52000D01*
X1003348Y49848D02*
X1003348Y35800D01*
X1027500Y45500D02*
X1027500Y52000D01*
X1027500Y45500D02*
X1032900Y40100D01*
X1032900Y34175D01*
D45*
X983500Y69650D03*
D49*
X983500Y70000D01*
X989000Y34000D02*
X989200Y33375D01*
D45*
X976000Y39961D03*
D49*
X981961Y34000D01*
X989000Y34000D01*
D47*
X512800Y99200D02*
X495075Y99200D01*
X512800Y99200D02*
X513000Y99000D01*
X485925Y150700D02*
X483050Y151000D01*
X471000Y151000D01*
D48*
X471000Y151000D03*
D47*
X481600Y124000D02*
X484925Y124400D01*
X481600Y124000D02*
X471000Y124000D01*
D48*
X471000Y124000D03*
X470000Y100068D03*
D47*
X470868Y99200D02*
X484925Y99200D01*
X470868Y99200D02*
X470000Y100068D01*
X495075Y124400D02*
X512900Y124400D01*
X513000Y124500D01*
X513800Y150700D02*
X496075Y150700D01*
X513800Y150700D02*
X514000Y150500D01*
X530000Y145500D02*
X544450Y145500D01*
X543925Y145400D01*
X544400Y145550D01*
X544825Y158000D01*
X543450Y119500D02*
X529000Y119500D01*
X542925Y119400D02*
X543450Y119500D01*
X543400Y119550D02*
X542925Y119400D01*
X543400Y119550D02*
X543825Y132500D01*
X543825Y106900D02*
X543550Y106750D01*
X542925Y93900D01*
X529100Y93900D01*
X529000Y94000D01*
D50*
X280100Y78200D02*
X269200Y78200D01*
X266300Y75846D01*
X248396Y75354D01*
X245750Y78000D01*
X702630Y77000D02*
X702630Y75000D01*
X702000Y74846D01*
X688570Y74370D01*
X688500Y74846D01*
X702000Y74846D02*
X726370Y74370D01*
X736000Y84000D01*
X736000Y90154D01*
X735700Y91000D01*
X736000Y90154D02*
X748070Y90700D01*
X748500Y90654D01*
X757130Y91130D01*
X761000Y95000D01*
X761000Y107000D01*
X743500Y124500D01*
X731000Y124500D01*
X731000Y122500D02*
X725075Y122500D01*
D47*
X703000Y89400D02*
X703000Y77370D01*
X702630Y77000D01*
X719600Y91000D02*
X735700Y91000D01*
D50*
X688500Y74846D02*
X688200Y74600D01*
X516000Y74600D01*
X498100Y74600D01*
D51*
X285800Y78200D02*
X280100Y78200D01*
X285800Y78200D02*
X288000Y76000D01*
D50*
X292000Y72000D01*
X292000Y34000D01*
X303000Y23000D01*
X357000Y23000D01*
D52*
X357000Y23000D03*
X516000Y74600D03*
D50*
X790614Y136614D02*
X847900Y136614D01*
X790614Y136614D02*
X790000Y136000D01*
D52*
X790000Y136000D03*
X731000Y134000D03*
D50*
X731000Y124500D01*
X731000Y122500D01*
D45*
X1011000Y45000D03*
D50*
X1011262Y44190D02*
X1019652Y35800D01*
X1011262Y44190D02*
X1011000Y45000D01*
D47*
X1146600Y42600D02*
X1146600Y113248D01*
X1146600Y42600D02*
X1114000Y10000D01*
X1061700Y10000D01*
X1061700Y22730D01*
X1060954Y23000D01*
X1061326Y23104D01*
D45*
X1061312Y34000D03*
D47*
X1061326Y33986D02*
X1061326Y23104D01*
X1061326Y33986D02*
X1061312Y34000D01*
D50*
X297900Y101000D02*
X297900Y103800D01*
X297900Y101000D02*
X297900Y97800D01*
X297900Y103800D02*
X306825Y112300D01*
D45*
X298000Y79000D03*
D51*
X297900Y79100D01*
X297900Y101000D01*
D52*
X381000Y147000D03*
X393000Y159000D03*
D45*
X967000Y74404D03*
D49*
X961904Y79500D01*
X959500Y79500D01*
D45*
X968500Y107000D03*
D49*
X556218Y157182D02*
X554975Y158000D01*
X556218Y157182D02*
X743750Y157182D01*
X786558Y114374D01*
X912139Y120003D02*
X913590Y121454D01*
D45*
X925914Y113955D03*
D49*
X912139Y120003D02*
X901002Y120003D01*
X913590Y121454D02*
X920736Y121454D01*
X895373Y114374D02*
X786558Y114374D01*
X895373Y114374D02*
X901002Y120003D01*
X925914Y116276D02*
X925914Y113955D01*
X925914Y116276D02*
X920736Y121454D01*
X570500Y132500D02*
X553975Y132500D01*
D45*
X968500Y96000D03*
D49*
X785295Y111326D02*
X742487Y154134D01*
X583134Y154134D01*
X573000Y135000D02*
X570500Y132500D01*
X573000Y135000D02*
X573000Y144000D01*
X583134Y154134D01*
X908091Y116955D02*
X909410Y115636D01*
D45*
X917326Y115636D03*
D49*
X909410Y115636D01*
X908091Y116955D02*
X902264Y116955D01*
X896635Y111326D02*
X785295Y111326D01*
X896635Y111326D02*
X902264Y116955D01*
X569900Y106900D02*
X553975Y106900D01*
D45*
X941500Y136500D03*
D49*
X785263Y107048D02*
X741225Y151086D01*
X578000Y115000D02*
X569900Y106900D01*
X586086Y151086D02*
X741225Y151086D01*
X578000Y143000D02*
X578000Y115000D01*
X578000Y143000D02*
X586086Y151086D01*
D45*
X904674Y111137D03*
D49*
X900585Y107048D02*
X785263Y107048D01*
X900585Y107048D02*
X904674Y111137D01*
D46*
X941500Y134500D02*
X941500Y136500D01*
D50*
X245025Y46100D02*
X235100Y46100D01*
X235000Y46000D01*
D45*
X235000Y46000D03*
X941500Y121818D03*
D46*
X941500Y123500D01*
D49*
X581900Y175100D02*
X464200Y174675D01*
X587000Y170000D02*
X587000Y165000D01*
X587000Y170000D02*
X581900Y175100D01*
D45*
X587000Y165000D03*
X587000Y143000D03*
D49*
X601000Y143000D01*
X933500Y101500D02*
X941500Y101500D01*
X606038Y148038D02*
X601000Y143000D01*
X606038Y148038D02*
X739962Y148038D01*
X784000Y104000D01*
X912590Y109818D02*
X917410Y109818D01*
X919672Y107556D01*
X906772Y104000D02*
X784000Y104000D01*
X906772Y104000D02*
X912590Y109818D01*
X919672Y107556D02*
X927444Y107556D01*
X933500Y101500D01*
D53*
X270300Y33600D02*
X256375Y33600D01*
X270300Y33600D02*
X270400Y33500D01*
X255750Y45950D02*
X255175Y46100D01*
D49*
X255175Y34800D02*
X256375Y33600D01*
X255175Y34800D02*
X255175Y46100D01*
D50*
X444625Y163875D02*
X444500Y164425D01*
X444850Y164075D01*
X454500Y164075D01*
X463750Y164075D01*
X464200Y164525D01*
D53*
X301000Y135100D02*
X286000Y135100D01*
X273950Y135100D01*
X272500Y132925D01*
X286000Y145850D02*
X285925Y146500D01*
X286000Y145850D02*
X286000Y135100D01*
D49*
X272500Y132925D02*
X272500Y107500D01*
X273000Y107000D01*
D45*
X273000Y107000D03*
D49*
X934000Y120000D02*
X941500Y112500D01*
D45*
X932007Y120007D03*
D49*
X932015Y120000D01*
X934000Y120000D01*
D45*
X967000Y61000D03*
D49*
X966900Y38900D02*
X966475Y30900D01*
X966900Y38900D02*
X967000Y39000D01*
D45*
X967000Y40152D03*
D49*
X967000Y39000D01*
X956325Y30900D02*
X955900Y10606D01*
X955200Y9906D01*
X961500Y46500D02*
X961500Y52000D01*
X961500Y46500D02*
X958000Y43000D01*
X943000Y43000D01*
X932200Y32200D01*
X932200Y10000D01*
D50*
X279600Y62700D02*
X275000Y62700D01*
X270300Y62700D01*
X266300Y66154D01*
X279600Y62700D02*
X280100Y63200D01*
X275400Y62300D02*
X275000Y62700D01*
X275400Y62300D02*
X275400Y49500D01*
X266300Y66154D02*
X240598Y66700D01*
X233531Y73767D01*
X233531Y82781D01*
X245750Y95000D01*
D54*
X55626Y137180D02*
X13716Y137180D01*
X13716Y50820D01*
X55626Y50820D01*
X36716Y50820D02*
X68536Y19000D01*
X36716Y50820D02*
X13716Y50820D01*
X13716Y137180D02*
X38647Y137180D01*
X66467Y165000D01*
X82154Y165000D01*
X75348Y19000D02*
X68536Y19000D01*
D50*
X747900Y74900D02*
X872180Y74900D01*
X227000Y55000D02*
X227000Y134000D01*
X235350Y142350D01*
X259000Y142350D01*
X259053Y142403D02*
X272500Y143075D01*
X259053Y142403D02*
X259000Y142350D01*
X154400Y45646D02*
X142100Y45170D01*
X141900Y45446D01*
X127769Y44970D01*
X127700Y45646D01*
X127108Y46900D02*
X113720Y46900D01*
X127108Y46900D02*
X127700Y45646D01*
X154000Y55000D02*
X154400Y54600D01*
X154400Y45646D01*
D45*
X154000Y55000D03*
X227000Y55000D03*
D50*
X367500Y121500D02*
X411000Y121500D01*
X367500Y121500D02*
X367000Y122000D01*
D45*
X367000Y122000D03*
X259000Y142350D03*
D50*
X687491Y14491D02*
X747900Y74900D01*
X249509Y14491D02*
X227000Y37000D01*
X227000Y55000D01*
X197500Y37000D02*
X197000Y37500D01*
X197000Y55000D01*
D48*
X197000Y55000D03*
D50*
X401632Y14491D02*
X687491Y14491D01*
X401632Y14491D02*
X400566Y13426D01*
X382434Y13426D02*
X381368Y14491D01*
X249509Y14491D01*
X382434Y13426D02*
X400566Y13426D01*
D55*
X369400Y77600D02*
X369800Y78000D01*
X383046Y78000D01*
X384900Y79854D01*
X392146Y79854D01*
X394000Y78000D01*
D56*
X403000Y78000D01*
D57*
X307910Y77210D02*
X307500Y76800D01*
X307910Y77210D02*
X331000Y77210D01*
X334300Y79954D01*
X331390Y77600D02*
X331000Y77210D01*
D51*
X334300Y59950D02*
X333075Y59000D01*
X334300Y59950D02*
X334300Y79954D01*
D58*
X337254Y77000D01*
X351772Y77000D01*
D49*
X352800Y77000D02*
X353400Y77600D01*
X352800Y77000D02*
X351772Y77000D01*
D47*
X317000Y112700D02*
X317000Y130100D01*
X317000Y112700D02*
X316975Y112300D01*
X336800Y112300D01*
X337100Y112000D01*
X316975Y112300D02*
X317400Y98100D01*
X317100Y97800D01*
X342350Y128250D02*
X343075Y142000D01*
X342350Y128250D02*
X342100Y128000D01*
D49*
X343350Y141000D02*
X343075Y142000D01*
X343350Y141000D02*
X350000Y141000D01*
X355000Y136000D01*
X355000Y115000D01*
D45*
X355000Y115000D03*
X929000Y156000D03*
D49*
X929000Y178000D01*
D45*
X975000Y182912D03*
X1008000Y113000D03*
D49*
X997500Y113000D01*
X994500Y116000D01*
X994500Y122000D01*
X933912Y182912D02*
X929000Y178000D01*
X933912Y182912D02*
X975000Y182912D01*
D53*
X322925Y59000D02*
X320700Y58950D01*
X320700Y59050D02*
X322925Y59000D01*
D45*
X961000Y147000D03*
D49*
X961000Y140500D01*
X961500Y140000D01*
D45*
X320000Y33818D03*
D49*
X320000Y43400D01*
D45*
X913600Y180094D03*
D49*
X320700Y44100D02*
X320000Y43400D01*
X320700Y44100D02*
X323825Y44100D01*
X323825Y49175D01*
X320700Y52300D01*
X320700Y58950D01*
X316246Y47154D02*
X320000Y43400D01*
X316246Y47154D02*
X308000Y47154D01*
D50*
X933500Y79500D02*
X941500Y79500D01*
X933500Y79500D02*
X929000Y75000D01*
X920550Y75000D01*
X919900Y75454D01*
X908180Y75650D01*
X908100Y75254D01*
X893799Y75254D01*
X893300Y75354D01*
X893207Y74900D02*
X880820Y74900D01*
X893207Y74900D02*
X893300Y75354D01*
D49*
X977200Y9906D02*
X993906Y9906D01*
X997000Y13000D01*
X997000Y43000D01*
X1000000Y46000D01*
X1000000Y61000D01*
X1033000Y61000D02*
X1043000Y61000D01*
X1047900Y56100D01*
X1047900Y33975D01*
D50*
X874800Y128200D02*
X860370Y128200D01*
X860094Y127448D01*
X847950Y127924D01*
X847900Y127974D01*
D49*
X61266Y96500D02*
X51500Y96500D01*
X50000Y95000D01*
X50000Y89000D01*
X52500Y86500D01*
X61266Y86500D01*
X70064Y86500D01*
X71040Y87476D01*
X86524Y87476D01*
X108048Y65952D01*
X152000Y65952D01*
X164000Y53952D01*
X164000Y42689D01*
X166845Y39845D01*
X166845Y33455D02*
X168211Y32089D01*
X166845Y33455D02*
X166845Y39845D01*
X70064Y91500D02*
X61266Y91500D01*
X70064Y91500D02*
X71040Y90524D01*
X78000Y90524D01*
X87787Y90524D01*
X109311Y69000D01*
X153263Y69000D01*
X167048Y55215D01*
X167048Y43952D01*
X169000Y42000D01*
X174282Y42000D02*
X176193Y40089D01*
X174282Y42000D02*
X169000Y42000D01*
X74500Y101500D02*
X61266Y101500D01*
X74500Y101500D02*
X78000Y98000D01*
X78000Y90524D01*
X690000Y10000D02*
X744302Y64302D01*
X931000Y64302D01*
X935198Y68500D01*
X941500Y68500D01*
X189282Y27000D02*
X183371Y32911D01*
X189282Y27000D02*
X216000Y27000D01*
X224311Y27000D01*
X241311Y10000D01*
X216500Y27500D02*
X216500Y37000D01*
X216500Y27500D02*
X216000Y27000D01*
X403068Y10000D02*
X690000Y10000D01*
X403068Y10000D02*
X402302Y9235D01*
X380698Y9235D02*
X379932Y10000D01*
X241311Y10000D01*
X380698Y9235D02*
X402302Y9235D01*
X745670Y61000D02*
X931000Y61000D01*
X745670Y61000D02*
X691368Y6698D01*
X934500Y57500D02*
X941500Y57500D01*
X934500Y57500D02*
X931000Y61000D01*
X180496Y19804D02*
X175389Y24911D01*
X180496Y19804D02*
X186852Y19804D01*
X191000Y23952D01*
X217000Y23952D01*
X223048Y23952D01*
X240302Y6698D01*
X216500Y17000D02*
X216500Y23452D01*
X217000Y23952D01*
X404076Y6698D02*
X691368Y6698D01*
X404076Y6698D02*
X403565Y6187D01*
X379435Y6187D02*
X378924Y6698D01*
X240302Y6698D01*
X379435Y6187D02*
X403565Y6187D01*
D47*
X929000Y129000D02*
X950500Y129000D01*
X929000Y129000D02*
X919970Y129000D01*
X919800Y128354D01*
D50*
X905543Y128833D01*
X905500Y128454D01*
X904187Y128200D01*
X890800Y128200D01*
D47*
X938500Y90500D02*
X941500Y90500D01*
X938500Y90500D02*
X925000Y104000D01*
X915000Y104000D01*
D45*
X915000Y104000D03*
X929000Y129000D03*
D50*
X447000Y121500D02*
X430000Y121500D01*
X447000Y121500D02*
X448000Y123425D01*
D47*
X432500Y34500D02*
X416346Y34500D01*
X432500Y34500D02*
X436350Y38350D01*
X437075Y46000D01*
D51*
X454500Y38446D02*
X471400Y41190D01*
X471500Y38346D01*
X451660Y38350D02*
X436350Y38350D01*
X451660Y38350D02*
X454500Y38446D01*
D49*
X471500Y38346D02*
X483154Y50000D01*
X493000Y50000D01*
X498100Y55100D01*
X498100Y58600D01*
D51*
X406654Y34500D02*
X396125Y34500D01*
X405650Y35550D02*
X404925Y45500D01*
X405650Y35550D02*
X406654Y34500D01*
D49*
X396346Y31002D02*
X396000Y31348D01*
X396346Y31002D02*
X396346Y20000D01*
X396000Y31348D02*
X396000Y34375D01*
X396125Y34500D01*
D51*
X396000Y47652D02*
X379500Y47652D01*
D50*
X438000Y174575D02*
X444500Y174575D01*
X438000Y174575D02*
X431000Y174575D01*
X430000Y163000D02*
X430000Y146500D01*
X430000Y163000D02*
X431000Y164425D01*
D49*
X78500Y106500D02*
X61266Y106500D01*
X84150Y121267D02*
X84366Y121051D01*
X84150Y121267D02*
X83425Y143500D01*
X84366Y112366D02*
X78500Y106500D01*
X84366Y112366D02*
X84366Y121051D01*
X75500Y76500D02*
X61266Y76500D01*
X75500Y76500D02*
X84150Y67850D01*
X83425Y47000D01*
D57*
X105080Y46900D02*
X105080Y33080D01*
X105000Y33000D01*
X79000Y33000D01*
X76000Y36000D01*
X76000Y64000D01*
X70000Y70000D01*
X61266Y70000D01*
X61266Y118000D02*
X76000Y118000D01*
D52*
X76000Y118000D03*
X76000Y64000D03*
D49*
X708000Y107600D02*
X708000Y137000D01*
D45*
X950500Y96000D03*
X862477Y93477D03*
D49*
X861954Y94000D02*
X782000Y94000D01*
X861954Y94000D02*
X862477Y93477D01*
X712366Y141366D02*
X708000Y137000D01*
X712366Y141366D02*
X734634Y141366D01*
X782000Y94000D01*
D45*
X959500Y90818D03*
X870000Y98182D03*
D49*
X864182Y100000D02*
X782000Y100000D01*
X866000Y98182D02*
X870000Y98182D01*
X866000Y98182D02*
X864182Y100000D01*
X703000Y107600D02*
X703000Y136311D01*
X711103Y144414D01*
X737586Y144414D01*
X782000Y100000D01*
D46*
X959500Y90818D02*
X959500Y90500D01*
D47*
X427150Y45500D02*
X426925Y46000D01*
D51*
X427150Y45500D02*
X415075Y45500D01*
D49*
X713000Y107600D02*
X713000Y116000D01*
X714925Y117925D01*
X714925Y122500D01*
X696400Y106000D02*
X678350Y106000D01*
X678000Y107075D01*
M02*
