G04 EAGLE Gerber RS-274X export*
G75*
%MOMM*%
%FSLAX34Y34*%
%LPD*%
%IN*%
%IPPOS*%
%AMOC8*
5,1,8,0,0,1.08239X$1,22.5*%
G01*
G04 Define Apertures*
%ADD10C,0.254000*%
D10*
X0Y0D02*
X1279500Y0D01*
X1279500Y190000D01*
X0Y190000D01*
X0Y0D01*
X47016Y50800D02*
X47027Y50539D01*
X47062Y50279D01*
X47118Y50024D01*
X47197Y49774D01*
X47297Y49532D01*
X47418Y49300D01*
X47559Y49079D01*
X47718Y48872D01*
X47895Y48679D01*
X48088Y48502D01*
X48295Y48343D01*
X48516Y48202D01*
X48748Y48081D01*
X48990Y47981D01*
X49240Y47902D01*
X49495Y47846D01*
X49755Y47811D01*
X50016Y47800D01*
X61016Y47800D01*
X61277Y47811D01*
X61537Y47846D01*
X61792Y47902D01*
X62042Y47981D01*
X62284Y48081D01*
X62516Y48202D01*
X62737Y48343D01*
X62944Y48502D01*
X63137Y48679D01*
X63314Y48872D01*
X63473Y49079D01*
X63614Y49300D01*
X63735Y49532D01*
X63835Y49774D01*
X63914Y50024D01*
X63970Y50279D01*
X64005Y50539D01*
X64016Y50800D01*
X64005Y51061D01*
X63970Y51321D01*
X63914Y51576D01*
X63835Y51826D01*
X63735Y52068D01*
X63614Y52300D01*
X63473Y52521D01*
X63314Y52728D01*
X63137Y52921D01*
X62944Y53098D01*
X62737Y53257D01*
X62516Y53398D01*
X62284Y53519D01*
X62042Y53619D01*
X61792Y53698D01*
X61537Y53754D01*
X61277Y53789D01*
X61016Y53800D01*
X50016Y53800D01*
X49755Y53789D01*
X49495Y53754D01*
X49240Y53698D01*
X48990Y53619D01*
X48748Y53519D01*
X48516Y53398D01*
X48295Y53257D01*
X48088Y53098D01*
X47895Y52921D01*
X47718Y52728D01*
X47559Y52521D01*
X47418Y52300D01*
X47297Y52068D01*
X47197Y51826D01*
X47118Y51576D01*
X47062Y51321D01*
X47027Y51061D01*
X47016Y50800D01*
X47016Y137200D02*
X47027Y136939D01*
X47062Y136679D01*
X47118Y136424D01*
X47197Y136174D01*
X47297Y135932D01*
X47418Y135700D01*
X47559Y135479D01*
X47718Y135272D01*
X47895Y135079D01*
X48088Y134902D01*
X48295Y134743D01*
X48516Y134602D01*
X48748Y134481D01*
X48990Y134381D01*
X49240Y134302D01*
X49495Y134246D01*
X49755Y134211D01*
X50016Y134200D01*
X61016Y134200D01*
X61277Y134211D01*
X61537Y134246D01*
X61792Y134302D01*
X62042Y134381D01*
X62284Y134481D01*
X62516Y134602D01*
X62737Y134743D01*
X62944Y134902D01*
X63137Y135079D01*
X63314Y135272D01*
X63473Y135479D01*
X63614Y135700D01*
X63735Y135932D01*
X63835Y136174D01*
X63914Y136424D01*
X63970Y136679D01*
X64005Y136939D01*
X64016Y137200D01*
X64005Y137461D01*
X63970Y137721D01*
X63914Y137976D01*
X63835Y138226D01*
X63735Y138468D01*
X63614Y138700D01*
X63473Y138921D01*
X63314Y139128D01*
X63137Y139321D01*
X62944Y139498D01*
X62737Y139657D01*
X62516Y139798D01*
X62284Y139919D01*
X62042Y140019D01*
X61792Y140098D01*
X61537Y140154D01*
X61277Y140189D01*
X61016Y140200D01*
X50016Y140200D01*
X49755Y140189D01*
X49495Y140154D01*
X49240Y140098D01*
X48990Y140019D01*
X48748Y139919D01*
X48516Y139798D01*
X48295Y139657D01*
X48088Y139498D01*
X47895Y139321D01*
X47718Y139128D01*
X47559Y138921D01*
X47418Y138700D01*
X47297Y138468D01*
X47197Y138226D01*
X47118Y137976D01*
X47062Y137721D01*
X47027Y137461D01*
X47016Y137200D01*
X6716Y50800D02*
X6727Y50539D01*
X6762Y50279D01*
X6818Y50024D01*
X6897Y49774D01*
X6997Y49532D01*
X7118Y49300D01*
X7259Y49079D01*
X7418Y48872D01*
X7595Y48679D01*
X7788Y48502D01*
X7995Y48343D01*
X8216Y48202D01*
X8448Y48081D01*
X8690Y47981D01*
X8940Y47902D01*
X9195Y47846D01*
X9455Y47811D01*
X9716Y47800D01*
X17716Y47800D01*
X17977Y47811D01*
X18237Y47846D01*
X18492Y47902D01*
X18742Y47981D01*
X18984Y48081D01*
X19216Y48202D01*
X19437Y48343D01*
X19644Y48502D01*
X19837Y48679D01*
X20014Y48872D01*
X20173Y49079D01*
X20314Y49300D01*
X20435Y49532D01*
X20535Y49774D01*
X20614Y50024D01*
X20670Y50279D01*
X20705Y50539D01*
X20716Y50800D01*
X20705Y51061D01*
X20670Y51321D01*
X20614Y51576D01*
X20535Y51826D01*
X20435Y52068D01*
X20314Y52300D01*
X20173Y52521D01*
X20014Y52728D01*
X19837Y52921D01*
X19644Y53098D01*
X19437Y53257D01*
X19216Y53398D01*
X18984Y53519D01*
X18742Y53619D01*
X18492Y53698D01*
X18237Y53754D01*
X17977Y53789D01*
X17716Y53800D01*
X9716Y53800D01*
X9455Y53789D01*
X9195Y53754D01*
X8940Y53698D01*
X8690Y53619D01*
X8448Y53519D01*
X8216Y53398D01*
X7995Y53257D01*
X7788Y53098D01*
X7595Y52921D01*
X7418Y52728D01*
X7259Y52521D01*
X7118Y52300D01*
X6997Y52068D01*
X6897Y51826D01*
X6818Y51576D01*
X6762Y51321D01*
X6727Y51061D01*
X6716Y50800D01*
X6716Y137200D02*
X6727Y136939D01*
X6762Y136679D01*
X6818Y136424D01*
X6897Y136174D01*
X6997Y135932D01*
X7118Y135700D01*
X7259Y135479D01*
X7418Y135272D01*
X7595Y135079D01*
X7788Y134902D01*
X7995Y134743D01*
X8216Y134602D01*
X8448Y134481D01*
X8690Y134381D01*
X8940Y134302D01*
X9195Y134246D01*
X9455Y134211D01*
X9716Y134200D01*
X17716Y134200D01*
X17977Y134211D01*
X18237Y134246D01*
X18492Y134302D01*
X18742Y134381D01*
X18984Y134481D01*
X19216Y134602D01*
X19437Y134743D01*
X19644Y134902D01*
X19837Y135079D01*
X20014Y135272D01*
X20173Y135479D01*
X20314Y135700D01*
X20435Y135932D01*
X20535Y136174D01*
X20614Y136424D01*
X20670Y136679D01*
X20705Y136939D01*
X20716Y137200D01*
X20705Y137461D01*
X20670Y137721D01*
X20614Y137976D01*
X20535Y138226D01*
X20435Y138468D01*
X20314Y138700D01*
X20173Y138921D01*
X20014Y139128D01*
X19837Y139321D01*
X19644Y139498D01*
X19437Y139657D01*
X19216Y139798D01*
X18984Y139919D01*
X18742Y140019D01*
X18492Y140098D01*
X18237Y140154D01*
X17977Y140189D01*
X17716Y140200D01*
X9716Y140200D01*
X9455Y140189D01*
X9195Y140154D01*
X8940Y140098D01*
X8690Y140019D01*
X8448Y139919D01*
X8216Y139798D01*
X7995Y139657D01*
X7788Y139498D01*
X7595Y139321D01*
X7418Y139128D01*
X7259Y138921D01*
X7118Y138700D01*
X6997Y138468D01*
X6897Y138226D01*
X6818Y137976D01*
X6762Y137721D01*
X6727Y137461D01*
X6716Y137200D01*
M02*
