G04 EAGLE Gerber RS-274X export*
G75*
%MOMM*%
%FSLAX34Y34*%
%LPD*%
%INSilkscreen Bottom*%
%IPPOS*%
%AMOC8*
5,1,8,0,0,1.08239X$1,22.5*%
G01*
G04 Define Apertures*
%ADD10C,0.127000*%
%ADD11C,0.200000*%
G36*
X253939Y154000D02*
X246922Y154000D01*
X246194Y154020D01*
X245507Y154080D01*
X244861Y154180D01*
X244256Y154321D01*
X243693Y154501D01*
X243170Y154721D01*
X242688Y154982D01*
X242248Y155282D01*
X241854Y155619D01*
X241512Y155987D01*
X241223Y156388D01*
X240987Y156820D01*
X240803Y157285D01*
X240731Y157529D01*
X240672Y157781D01*
X240626Y158042D01*
X240593Y158310D01*
X240573Y158586D01*
X240567Y158870D01*
X240584Y159294D01*
X240637Y159698D01*
X240724Y160084D01*
X240846Y160451D01*
X241003Y160800D01*
X241195Y161130D01*
X241422Y161442D01*
X241683Y161735D01*
X241841Y161880D01*
X241977Y162005D01*
X242300Y162247D01*
X242653Y162461D01*
X243036Y162647D01*
X243448Y162806D01*
X243889Y162937D01*
X244360Y163040D01*
X244861Y163115D01*
X244479Y163215D01*
X244120Y163336D01*
X243783Y163479D01*
X243468Y163643D01*
X243176Y163828D01*
X242905Y164035D01*
X242797Y164136D01*
X242657Y164264D01*
X242432Y164514D01*
X242230Y164782D01*
X242056Y165066D01*
X241908Y165365D01*
X241787Y165679D01*
X241694Y166009D01*
X241626Y166354D01*
X241586Y166714D01*
X241573Y167090D01*
X241579Y167348D01*
X241597Y167598D01*
X241668Y168073D01*
X241787Y168516D01*
X241953Y168926D01*
X242167Y169303D01*
X242428Y169647D01*
X242737Y169958D01*
X243094Y170237D01*
X243498Y170483D01*
X243950Y170696D01*
X244449Y170876D01*
X244996Y171023D01*
X245590Y171138D01*
X246232Y171220D01*
X246921Y171269D01*
X247658Y171286D01*
X253939Y171286D01*
X253939Y154000D01*
G37*
%LPC*%
G36*
X251596Y155877D02*
X251596Y162109D01*
X247228Y162109D01*
X246708Y162097D01*
X246222Y162061D01*
X245769Y162002D01*
X245350Y161918D01*
X244964Y161811D01*
X244612Y161680D01*
X244293Y161524D01*
X244008Y161346D01*
X243756Y161143D01*
X243538Y160916D01*
X243354Y160665D01*
X243203Y160391D01*
X243085Y160093D01*
X243002Y159770D01*
X242951Y159424D01*
X242935Y159054D01*
X242950Y158671D01*
X242996Y158312D01*
X243073Y157978D01*
X243180Y157668D01*
X243318Y157383D01*
X243487Y157122D01*
X243686Y156886D01*
X243916Y156674D01*
X244180Y156488D01*
X244480Y156326D01*
X244816Y156189D01*
X245189Y156076D01*
X245598Y155989D01*
X246044Y155927D01*
X246526Y155889D01*
X247044Y155877D01*
X251596Y155877D01*
G37*
G36*
X251596Y163937D02*
X251596Y169409D01*
X247658Y169409D01*
X247217Y169399D01*
X246804Y169371D01*
X246417Y169324D01*
X246057Y169258D01*
X245724Y169174D01*
X245417Y169071D01*
X245138Y168948D01*
X244885Y168808D01*
X244661Y168645D01*
X244467Y168457D01*
X244302Y168245D01*
X244167Y168007D01*
X244063Y167745D01*
X243988Y167457D01*
X243943Y167145D01*
X243928Y166808D01*
X243943Y166455D01*
X243986Y166125D01*
X244059Y165819D01*
X244160Y165537D01*
X244290Y165278D01*
X244449Y165042D01*
X244637Y164831D01*
X244854Y164643D01*
X245101Y164477D01*
X245377Y164334D01*
X245683Y164213D01*
X246018Y164113D01*
X246384Y164036D01*
X246779Y163981D01*
X247203Y163948D01*
X247658Y163937D01*
X251596Y163937D01*
G37*
%LPD*%
G36*
X224933Y154000D02*
X222541Y154000D01*
X229485Y171286D01*
X232147Y171286D01*
X239201Y154000D01*
X236772Y154000D01*
X234784Y159054D01*
X226908Y159054D01*
X224933Y154000D01*
G37*
%LPC*%
G36*
X234073Y160882D02*
X231865Y166563D01*
X231337Y168013D01*
X230957Y169176D01*
X230846Y169519D01*
X230515Y168501D01*
X230172Y167489D01*
X229828Y166587D01*
X227608Y160882D01*
X234073Y160882D01*
G37*
%LPD*%
G36*
X202529Y154000D02*
X200198Y154000D01*
X200198Y169372D01*
X194261Y169372D01*
X194261Y171286D01*
X208467Y171286D01*
X208467Y169372D01*
X202529Y169372D01*
X202529Y154000D01*
G37*
G36*
X217873Y154000D02*
X215542Y154000D01*
X215542Y169372D01*
X209604Y169372D01*
X209604Y171286D01*
X223811Y171286D01*
X223811Y169372D01*
X217873Y169372D01*
X217873Y154000D01*
G37*
G36*
X1116726Y40000D02*
X1113904Y40000D01*
X1113904Y57286D01*
X1116014Y57286D01*
X1116014Y45950D01*
X1116005Y45327D01*
X1115978Y44539D01*
X1115867Y42466D01*
X1125215Y57286D01*
X1127939Y57286D01*
X1127939Y40000D01*
X1125853Y40000D01*
X1125853Y51483D01*
X1125915Y53532D01*
X1125976Y54722D01*
X1116726Y40000D01*
G37*
G36*
X1086827Y39755D02*
X1086199Y39773D01*
X1085590Y39828D01*
X1085001Y39919D01*
X1084430Y40046D01*
X1083880Y40210D01*
X1083348Y40410D01*
X1082836Y40647D01*
X1082343Y40920D01*
X1081874Y41228D01*
X1081431Y41570D01*
X1081016Y41944D01*
X1080627Y42352D01*
X1080266Y42794D01*
X1079931Y43269D01*
X1079624Y43777D01*
X1079344Y44318D01*
X1081258Y45275D01*
X1081493Y44840D01*
X1081743Y44433D01*
X1082006Y44054D01*
X1082284Y43703D01*
X1082576Y43380D01*
X1082882Y43085D01*
X1083202Y42818D01*
X1083536Y42579D01*
X1083885Y42369D01*
X1084247Y42186D01*
X1084623Y42032D01*
X1085014Y41905D01*
X1085418Y41807D01*
X1085837Y41737D01*
X1086270Y41695D01*
X1086717Y41681D01*
X1087066Y41688D01*
X1087407Y41711D01*
X1087738Y41749D01*
X1088061Y41801D01*
X1088374Y41869D01*
X1088678Y41952D01*
X1088972Y42051D01*
X1089258Y42164D01*
X1089534Y42292D01*
X1089802Y42435D01*
X1090060Y42594D01*
X1090309Y42768D01*
X1090549Y42956D01*
X1090779Y43160D01*
X1091001Y43379D01*
X1091213Y43613D01*
X1091603Y44115D01*
X1091778Y44381D01*
X1091940Y44657D01*
X1092090Y44942D01*
X1092226Y45237D01*
X1092349Y45542D01*
X1092460Y45856D01*
X1092557Y46181D01*
X1092642Y46515D01*
X1092713Y46858D01*
X1092772Y47212D01*
X1092817Y47575D01*
X1092849Y47948D01*
X1092869Y48330D01*
X1092875Y48723D01*
X1092869Y49119D01*
X1092850Y49505D01*
X1092819Y49880D01*
X1092776Y50244D01*
X1092720Y50598D01*
X1092651Y50941D01*
X1092570Y51273D01*
X1092477Y51595D01*
X1092371Y51906D01*
X1092252Y52206D01*
X1092122Y52496D01*
X1091978Y52775D01*
X1091823Y53043D01*
X1091654Y53300D01*
X1091281Y53783D01*
X1091076Y54007D01*
X1090862Y54216D01*
X1090638Y54411D01*
X1090403Y54591D01*
X1090159Y54757D01*
X1089905Y54908D01*
X1089641Y55045D01*
X1089367Y55168D01*
X1089083Y55276D01*
X1088789Y55370D01*
X1088485Y55449D01*
X1088171Y55514D01*
X1087847Y55565D01*
X1087513Y55601D01*
X1087169Y55622D01*
X1086815Y55630D01*
X1086366Y55617D01*
X1085932Y55580D01*
X1085514Y55517D01*
X1085111Y55430D01*
X1084724Y55318D01*
X1084353Y55181D01*
X1083996Y55019D01*
X1083656Y54832D01*
X1083335Y54622D01*
X1083036Y54389D01*
X1082760Y54134D01*
X1082507Y53857D01*
X1082277Y53557D01*
X1082070Y53236D01*
X1081885Y52892D01*
X1081724Y52526D01*
X1079503Y53262D01*
X1079736Y53776D01*
X1080000Y54258D01*
X1080294Y54707D01*
X1080620Y55123D01*
X1080975Y55507D01*
X1081362Y55859D01*
X1081779Y56178D01*
X1082227Y56464D01*
X1082704Y56717D01*
X1083210Y56936D01*
X1083744Y57122D01*
X1084306Y57273D01*
X1084897Y57392D01*
X1085516Y57476D01*
X1086164Y57526D01*
X1086840Y57543D01*
X1087327Y57534D01*
X1087800Y57507D01*
X1088260Y57461D01*
X1088707Y57397D01*
X1089141Y57315D01*
X1089561Y57214D01*
X1089967Y57095D01*
X1090360Y56958D01*
X1090740Y56802D01*
X1091106Y56628D01*
X1091459Y56436D01*
X1091799Y56225D01*
X1092125Y55996D01*
X1092438Y55749D01*
X1092737Y55484D01*
X1093023Y55200D01*
X1093293Y54900D01*
X1093546Y54586D01*
X1093781Y54258D01*
X1093999Y53917D01*
X1094200Y53561D01*
X1094383Y53191D01*
X1094549Y52807D01*
X1094697Y52409D01*
X1094828Y51997D01*
X1094941Y51571D01*
X1095037Y51132D01*
X1095116Y50678D01*
X1095177Y50210D01*
X1095221Y49728D01*
X1095247Y49232D01*
X1095255Y48723D01*
X1095240Y48044D01*
X1095193Y47389D01*
X1095115Y46757D01*
X1095005Y46148D01*
X1094865Y45562D01*
X1094693Y45000D01*
X1094490Y44460D01*
X1094256Y43944D01*
X1093991Y43454D01*
X1093699Y42993D01*
X1093378Y42562D01*
X1093029Y42159D01*
X1092651Y41786D01*
X1092245Y41441D01*
X1091811Y41126D01*
X1091348Y40840D01*
X1090860Y40586D01*
X1090350Y40365D01*
X1089818Y40179D01*
X1089264Y40026D01*
X1088688Y39907D01*
X1088090Y39823D01*
X1087469Y39772D01*
X1086827Y39755D01*
G37*
G36*
X1109814Y40000D02*
X1107471Y40000D01*
X1107471Y47005D01*
X1097828Y47005D01*
X1097828Y48943D01*
X1107471Y48943D01*
X1107471Y55372D01*
X1097534Y55372D01*
X1097534Y57286D01*
X1109814Y57286D01*
X1109814Y40000D01*
G37*
G36*
X1076465Y183331D02*
X1076260Y183342D01*
X1076067Y183373D01*
X1075886Y183426D01*
X1075718Y183499D01*
X1075561Y183594D01*
X1075416Y183709D01*
X1075284Y183846D01*
X1075164Y184003D01*
X1075057Y184181D01*
X1074964Y184376D01*
X1074885Y184589D01*
X1074821Y184821D01*
X1074771Y185070D01*
X1074735Y185338D01*
X1074714Y185624D01*
X1074707Y185928D01*
X1074713Y186219D01*
X1074733Y186492D01*
X1074765Y186746D01*
X1074811Y186980D01*
X1074870Y187196D01*
X1074941Y187394D01*
X1075026Y187572D01*
X1075124Y187731D01*
X1075234Y187872D01*
X1075357Y187994D01*
X1075492Y188097D01*
X1075640Y188181D01*
X1075799Y188247D01*
X1075971Y188294D01*
X1076155Y188322D01*
X1076352Y188331D01*
X1076537Y188325D01*
X1076712Y188304D01*
X1076876Y188270D01*
X1077030Y188222D01*
X1077174Y188161D01*
X1077307Y188086D01*
X1077429Y187997D01*
X1077541Y187895D01*
X1077642Y187781D01*
X1077728Y187657D01*
X1077802Y187522D01*
X1077862Y187377D01*
X1077909Y187223D01*
X1077942Y187057D01*
X1077962Y186882D01*
X1077969Y186697D01*
X1077963Y186516D01*
X1077944Y186344D01*
X1077871Y186029D01*
X1077748Y185749D01*
X1077576Y185507D01*
X1077363Y185311D01*
X1077244Y185234D01*
X1077117Y185171D01*
X1076982Y185122D01*
X1076839Y185087D01*
X1076687Y185066D01*
X1076528Y185059D01*
X1076332Y185070D01*
X1076144Y185106D01*
X1075964Y185164D01*
X1075793Y185247D01*
X1075638Y185348D01*
X1075508Y185465D01*
X1075402Y185597D01*
X1075321Y185745D01*
X1075345Y185311D01*
X1075404Y184930D01*
X1075498Y184602D01*
X1075627Y184328D01*
X1075789Y184110D01*
X1075881Y184025D01*
X1075981Y183955D01*
X1076088Y183901D01*
X1076203Y183862D01*
X1076325Y183839D01*
X1076455Y183831D01*
X1076607Y183841D01*
X1076744Y183869D01*
X1076868Y183916D01*
X1076978Y183983D01*
X1077073Y184068D01*
X1077155Y184172D01*
X1077222Y184296D01*
X1077276Y184438D01*
X1077869Y184345D01*
X1077783Y184096D01*
X1077672Y183884D01*
X1077537Y183709D01*
X1077378Y183571D01*
X1077192Y183466D01*
X1076978Y183391D01*
X1076736Y183346D01*
X1076465Y183331D01*
G37*
%LPC*%
G36*
X1076379Y185548D02*
X1076589Y185568D01*
X1076775Y185626D01*
X1076939Y185722D01*
X1077079Y185857D01*
X1077192Y186025D01*
X1077273Y186221D01*
X1077322Y186445D01*
X1077338Y186697D01*
X1077322Y186944D01*
X1077273Y187164D01*
X1077192Y187357D01*
X1077079Y187523D01*
X1076938Y187656D01*
X1076773Y187752D01*
X1076585Y187809D01*
X1076372Y187828D01*
X1076158Y187806D01*
X1075966Y187739D01*
X1075798Y187627D01*
X1075652Y187471D01*
X1075534Y187278D01*
X1075450Y187057D01*
X1075399Y186807D01*
X1075383Y186528D01*
X1075391Y186389D01*
X1075416Y186257D01*
X1075457Y186133D01*
X1075515Y186017D01*
X1075588Y185912D01*
X1075673Y185819D01*
X1075770Y185738D01*
X1075879Y185671D01*
X1075997Y185617D01*
X1076120Y185579D01*
X1076247Y185556D01*
X1076379Y185548D01*
G37*
%LPD*%
G36*
X1084572Y183331D02*
X1084225Y183352D01*
X1083899Y183413D01*
X1083594Y183515D01*
X1083312Y183659D01*
X1083055Y183841D01*
X1082829Y184061D01*
X1082634Y184319D01*
X1082469Y184614D01*
X1083007Y184883D01*
X1083143Y184646D01*
X1083295Y184441D01*
X1083463Y184267D01*
X1083647Y184125D01*
X1083847Y184015D01*
X1084063Y183936D01*
X1084294Y183888D01*
X1084541Y183872D01*
X1084735Y183881D01*
X1084919Y183906D01*
X1085092Y183949D01*
X1085256Y184008D01*
X1085408Y184085D01*
X1085551Y184178D01*
X1085683Y184288D01*
X1085805Y184416D01*
X1085915Y184557D01*
X1086010Y184709D01*
X1086090Y184872D01*
X1086156Y185046D01*
X1086207Y185231D01*
X1086243Y185427D01*
X1086265Y185634D01*
X1086272Y185852D01*
X1086265Y186072D01*
X1086244Y186280D01*
X1086209Y186475D01*
X1086160Y186659D01*
X1086097Y186831D01*
X1086020Y186991D01*
X1085929Y187139D01*
X1085824Y187274D01*
X1085706Y187396D01*
X1085578Y187501D01*
X1085437Y187591D01*
X1085286Y187664D01*
X1085124Y187720D01*
X1084950Y187761D01*
X1084765Y187785D01*
X1084569Y187793D01*
X1084321Y187779D01*
X1084090Y187737D01*
X1083877Y187667D01*
X1083681Y187569D01*
X1083507Y187445D01*
X1083358Y187295D01*
X1083235Y187120D01*
X1083138Y186921D01*
X1082514Y187128D01*
X1082653Y187408D01*
X1082827Y187651D01*
X1083036Y187858D01*
X1083279Y188028D01*
X1083555Y188161D01*
X1083864Y188255D01*
X1084204Y188312D01*
X1084576Y188331D01*
X1084846Y188321D01*
X1085101Y188290D01*
X1085341Y188239D01*
X1085565Y188167D01*
X1085775Y188074D01*
X1085970Y187961D01*
X1086149Y187827D01*
X1086314Y187673D01*
X1086461Y187500D01*
X1086588Y187312D01*
X1086696Y187108D01*
X1086784Y186888D01*
X1086853Y186653D01*
X1086902Y186401D01*
X1086932Y186135D01*
X1086941Y185852D01*
X1086924Y185477D01*
X1086871Y185128D01*
X1086783Y184805D01*
X1086660Y184509D01*
X1086504Y184241D01*
X1086315Y184007D01*
X1086095Y183805D01*
X1085843Y183636D01*
X1085563Y183503D01*
X1085257Y183407D01*
X1084927Y183350D01*
X1084572Y183331D01*
G37*
G36*
X1081851Y183400D02*
X1078634Y183400D01*
X1078634Y183928D01*
X1081168Y183928D01*
X1081032Y184174D01*
X1080830Y184429D01*
X1080555Y184706D01*
X1080199Y185014D01*
X1079595Y185523D01*
X1079223Y185879D01*
X1079000Y186159D01*
X1078839Y186438D01*
X1078782Y186578D01*
X1078742Y186718D01*
X1078718Y186859D01*
X1078710Y187000D01*
X1078716Y187155D01*
X1078734Y187301D01*
X1078808Y187565D01*
X1078932Y187793D01*
X1079104Y187985D01*
X1079323Y188136D01*
X1079584Y188245D01*
X1079888Y188310D01*
X1080234Y188331D01*
X1080553Y188310D01*
X1080842Y188245D01*
X1081101Y188137D01*
X1081329Y187986D01*
X1081519Y187799D01*
X1081665Y187582D01*
X1081767Y187335D01*
X1081823Y187059D01*
X1081189Y187000D01*
X1081153Y187184D01*
X1081091Y187346D01*
X1081002Y187487D01*
X1080887Y187605D01*
X1080750Y187700D01*
X1080595Y187767D01*
X1080423Y187807D01*
X1080234Y187821D01*
X1080037Y187807D01*
X1079862Y187766D01*
X1079711Y187697D01*
X1079582Y187600D01*
X1079479Y187479D01*
X1079406Y187335D01*
X1079362Y187168D01*
X1079347Y186980D01*
X1079356Y186835D01*
X1079382Y186698D01*
X1079424Y186570D01*
X1079484Y186448D01*
X1079641Y186219D01*
X1079841Y186000D01*
X1080075Y185786D01*
X1080335Y185573D01*
X1080889Y185109D01*
X1081162Y184844D01*
X1081422Y184550D01*
X1081656Y184218D01*
X1081851Y183838D01*
X1081851Y183400D01*
G37*
G36*
X996645Y182931D02*
X996442Y182941D01*
X996251Y182971D01*
X996074Y183021D01*
X995909Y183091D01*
X995757Y183182D01*
X995618Y183292D01*
X995491Y183422D01*
X995377Y183572D01*
X995277Y183742D01*
X995190Y183929D01*
X995116Y184134D01*
X995055Y184358D01*
X995008Y184599D01*
X994975Y184859D01*
X994955Y185136D01*
X994948Y185431D01*
X994954Y185731D01*
X994974Y186012D01*
X995006Y186274D01*
X995050Y186517D01*
X995108Y186742D01*
X995178Y186947D01*
X995261Y187133D01*
X995357Y187300D01*
X995466Y187448D01*
X995589Y187576D01*
X995726Y187685D01*
X995878Y187774D01*
X996043Y187843D01*
X996223Y187892D01*
X996416Y187921D01*
X996624Y187931D01*
X996837Y187922D01*
X997036Y187892D01*
X997219Y187844D01*
X997388Y187775D01*
X997542Y187688D01*
X997682Y187580D01*
X997806Y187453D01*
X997916Y187307D01*
X998011Y187141D01*
X998094Y186956D01*
X998165Y186751D01*
X998222Y186526D01*
X998267Y186282D01*
X998299Y186018D01*
X998318Y185734D01*
X998324Y185431D01*
X998318Y185134D01*
X998298Y184856D01*
X998265Y184595D01*
X998219Y184354D01*
X998160Y184130D01*
X998087Y183925D01*
X998002Y183738D01*
X997903Y183569D01*
X997792Y183419D01*
X997667Y183290D01*
X997529Y183180D01*
X997378Y183091D01*
X997215Y183021D01*
X997038Y182971D01*
X996848Y182941D01*
X996645Y182931D01*
G37*
%LPC*%
G36*
X996638Y183438D02*
X996771Y183445D01*
X996895Y183468D01*
X997010Y183505D01*
X997115Y183558D01*
X997211Y183625D01*
X997298Y183708D01*
X997443Y183917D01*
X997554Y184192D01*
X997633Y184535D01*
X997681Y184949D01*
X997697Y185431D01*
X997681Y185926D01*
X997634Y186347D01*
X997556Y186692D01*
X997447Y186962D01*
X997379Y187071D01*
X997301Y187166D01*
X997214Y187246D01*
X997116Y187311D01*
X997008Y187362D01*
X996890Y187399D01*
X996762Y187421D01*
X996624Y187428D01*
X996489Y187420D01*
X996364Y187398D01*
X996249Y187361D01*
X996144Y187310D01*
X996049Y187243D01*
X995964Y187162D01*
X995888Y187066D01*
X995822Y186955D01*
X995716Y186683D01*
X995640Y186338D01*
X995594Y185921D01*
X995579Y185431D01*
X995595Y184957D01*
X995643Y184548D01*
X995723Y184205D01*
X995834Y183928D01*
X995980Y183713D01*
X996067Y183629D01*
X996163Y183560D01*
X996268Y183507D01*
X996382Y183469D01*
X996505Y183446D01*
X996638Y183438D01*
G37*
%LPD*%
G36*
X1004872Y182931D02*
X1004525Y182952D01*
X1004199Y183013D01*
X1003894Y183115D01*
X1003612Y183259D01*
X1003355Y183441D01*
X1003129Y183661D01*
X1002934Y183919D01*
X1002769Y184214D01*
X1003307Y184483D01*
X1003443Y184246D01*
X1003595Y184041D01*
X1003763Y183867D01*
X1003947Y183725D01*
X1004147Y183615D01*
X1004363Y183536D01*
X1004594Y183488D01*
X1004841Y183472D01*
X1005035Y183481D01*
X1005219Y183506D01*
X1005392Y183549D01*
X1005556Y183608D01*
X1005708Y183685D01*
X1005851Y183778D01*
X1005983Y183888D01*
X1006105Y184016D01*
X1006215Y184157D01*
X1006310Y184309D01*
X1006390Y184472D01*
X1006456Y184646D01*
X1006507Y184831D01*
X1006543Y185027D01*
X1006565Y185234D01*
X1006572Y185452D01*
X1006565Y185672D01*
X1006544Y185880D01*
X1006509Y186075D01*
X1006460Y186259D01*
X1006397Y186431D01*
X1006320Y186591D01*
X1006229Y186739D01*
X1006124Y186874D01*
X1006006Y186996D01*
X1005878Y187101D01*
X1005737Y187191D01*
X1005586Y187264D01*
X1005424Y187320D01*
X1005250Y187361D01*
X1005065Y187385D01*
X1004869Y187393D01*
X1004621Y187379D01*
X1004390Y187337D01*
X1004177Y187267D01*
X1003981Y187169D01*
X1003807Y187045D01*
X1003658Y186895D01*
X1003535Y186720D01*
X1003438Y186521D01*
X1002814Y186728D01*
X1002953Y187008D01*
X1003127Y187251D01*
X1003336Y187458D01*
X1003579Y187628D01*
X1003855Y187761D01*
X1004164Y187855D01*
X1004504Y187912D01*
X1004876Y187931D01*
X1005146Y187921D01*
X1005401Y187890D01*
X1005641Y187839D01*
X1005865Y187767D01*
X1006075Y187674D01*
X1006270Y187561D01*
X1006449Y187427D01*
X1006614Y187273D01*
X1006761Y187100D01*
X1006888Y186912D01*
X1006996Y186708D01*
X1007084Y186488D01*
X1007153Y186253D01*
X1007202Y186001D01*
X1007232Y185735D01*
X1007241Y185452D01*
X1007224Y185077D01*
X1007171Y184728D01*
X1007083Y184405D01*
X1006960Y184109D01*
X1006804Y183841D01*
X1006615Y183607D01*
X1006395Y183405D01*
X1006143Y183236D01*
X1005863Y183103D01*
X1005557Y183007D01*
X1005227Y182950D01*
X1004872Y182931D01*
G37*
G36*
X1000537Y182931D02*
X1000163Y182954D01*
X999835Y183023D01*
X999553Y183139D01*
X999316Y183300D01*
X999129Y183503D01*
X999056Y183619D01*
X998996Y183745D01*
X998949Y183880D01*
X998916Y184024D01*
X998896Y184178D01*
X998889Y184341D01*
X998908Y184564D01*
X998965Y184767D01*
X999060Y184951D01*
X999192Y185114D01*
X999359Y185252D01*
X999556Y185359D01*
X999783Y185435D01*
X1000041Y185479D01*
X1000041Y185493D01*
X999807Y185557D01*
X999603Y185644D01*
X999429Y185754D01*
X999284Y185888D01*
X999170Y186045D01*
X999088Y186223D01*
X999040Y186423D01*
X999023Y186645D01*
X999030Y186793D01*
X999049Y186932D01*
X999125Y187185D01*
X999251Y187405D01*
X999429Y187592D01*
X999651Y187740D01*
X999915Y187846D01*
X1000220Y187910D01*
X1000565Y187931D01*
X1000884Y187910D01*
X1001173Y187848D01*
X1001432Y187743D01*
X1001660Y187597D01*
X1001850Y187413D01*
X1001996Y187197D01*
X1002098Y186948D01*
X1002155Y186666D01*
X1001530Y186617D01*
X1001496Y186798D01*
X1001436Y186957D01*
X1001349Y187095D01*
X1001236Y187211D01*
X1001099Y187303D01*
X1000943Y187368D01*
X1000767Y187408D01*
X1000572Y187421D01*
X1000360Y187407D01*
X1000176Y187364D01*
X1000019Y187294D01*
X999891Y187195D01*
X999790Y187072D01*
X999719Y186928D01*
X999676Y186764D01*
X999661Y186580D01*
X999679Y186394D01*
X999732Y186229D01*
X999819Y186086D01*
X999942Y185964D01*
X1000097Y185867D01*
X1000281Y185797D01*
X1000493Y185755D01*
X1000734Y185742D01*
X1001072Y185742D01*
X1001072Y185204D01*
X1000720Y185204D01*
X1000449Y185190D01*
X1000212Y185148D01*
X1000008Y185078D01*
X999839Y184981D01*
X999705Y184859D01*
X999610Y184715D01*
X999553Y184550D01*
X999534Y184362D01*
X999550Y184149D01*
X999601Y183963D01*
X999684Y183805D01*
X999801Y183676D01*
X999947Y183575D01*
X1000119Y183503D01*
X1000315Y183459D01*
X1000537Y183445D01*
X1000758Y183458D01*
X1000954Y183499D01*
X1001124Y183566D01*
X1001269Y183660D01*
X1001389Y183782D01*
X1001483Y183930D01*
X1001552Y184105D01*
X1001596Y184307D01*
X1002237Y184248D01*
X1002174Y183942D01*
X1002065Y183676D01*
X1001912Y183450D01*
X1001715Y183264D01*
X1001476Y183118D01*
X1001201Y183014D01*
X1000888Y182952D01*
X1000537Y182931D01*
G37*
G36*
X281921Y95500D02*
X280103Y95500D01*
X279762Y95519D01*
X279441Y95575D01*
X279141Y95669D01*
X278862Y95800D01*
X278608Y95967D01*
X278385Y96166D01*
X278193Y96398D01*
X278031Y96664D01*
X277903Y96958D01*
X277811Y97275D01*
X277756Y97615D01*
X277738Y97979D01*
X277748Y98257D01*
X277780Y98518D01*
X277832Y98762D01*
X277905Y98990D01*
X278000Y99202D01*
X278115Y99398D01*
X278251Y99577D01*
X278408Y99740D01*
X278585Y99885D01*
X278779Y100011D01*
X278991Y100117D01*
X279220Y100204D01*
X279467Y100272D01*
X279732Y100320D01*
X280014Y100349D01*
X280314Y100359D01*
X281921Y100359D01*
X281921Y95500D01*
G37*
%LPC*%
G36*
X281262Y96028D02*
X281262Y99831D01*
X280327Y99831D01*
X280100Y99824D01*
X279886Y99802D01*
X279686Y99765D01*
X279500Y99713D01*
X279328Y99646D01*
X279170Y99565D01*
X279025Y99468D01*
X278895Y99357D01*
X278779Y99232D01*
X278678Y99093D01*
X278593Y98941D01*
X278523Y98776D01*
X278469Y98597D01*
X278431Y98404D01*
X278408Y98199D01*
X278400Y97979D01*
X278413Y97689D01*
X278454Y97419D01*
X278522Y97169D01*
X278617Y96938D01*
X278737Y96730D01*
X278881Y96548D01*
X279049Y96392D01*
X279239Y96262D01*
X279450Y96160D01*
X279677Y96086D01*
X279920Y96042D01*
X280179Y96028D01*
X281262Y96028D01*
G37*
%LPD*%
G36*
X275437Y95431D02*
X275063Y95454D01*
X274735Y95523D01*
X274453Y95639D01*
X274216Y95800D01*
X274029Y96003D01*
X273956Y96119D01*
X273896Y96245D01*
X273849Y96380D01*
X273816Y96524D01*
X273796Y96678D01*
X273789Y96841D01*
X273808Y97064D01*
X273865Y97267D01*
X273960Y97451D01*
X274092Y97614D01*
X274259Y97752D01*
X274456Y97859D01*
X274683Y97935D01*
X274941Y97979D01*
X274941Y97993D01*
X274707Y98057D01*
X274503Y98144D01*
X274329Y98254D01*
X274184Y98388D01*
X274070Y98545D01*
X273988Y98723D01*
X273940Y98923D01*
X273923Y99145D01*
X273930Y99293D01*
X273949Y99432D01*
X274025Y99685D01*
X274151Y99905D01*
X274329Y100092D01*
X274551Y100240D01*
X274815Y100346D01*
X275120Y100410D01*
X275465Y100431D01*
X275784Y100410D01*
X276073Y100348D01*
X276332Y100243D01*
X276560Y100097D01*
X276750Y99913D01*
X276896Y99697D01*
X276998Y99448D01*
X277055Y99166D01*
X276430Y99117D01*
X276396Y99298D01*
X276336Y99457D01*
X276249Y99595D01*
X276136Y99711D01*
X275999Y99803D01*
X275843Y99868D01*
X275667Y99908D01*
X275472Y99921D01*
X275260Y99907D01*
X275076Y99864D01*
X274919Y99794D01*
X274791Y99695D01*
X274690Y99572D01*
X274619Y99428D01*
X274576Y99264D01*
X274561Y99080D01*
X274579Y98894D01*
X274632Y98729D01*
X274719Y98586D01*
X274842Y98464D01*
X274997Y98367D01*
X275181Y98297D01*
X275393Y98255D01*
X275634Y98242D01*
X275972Y98242D01*
X275972Y97704D01*
X275620Y97704D01*
X275349Y97690D01*
X275112Y97648D01*
X274908Y97578D01*
X274739Y97481D01*
X274605Y97359D01*
X274510Y97215D01*
X274453Y97050D01*
X274434Y96862D01*
X274450Y96649D01*
X274501Y96463D01*
X274584Y96305D01*
X274701Y96176D01*
X274847Y96075D01*
X275019Y96003D01*
X275215Y95959D01*
X275437Y95945D01*
X275658Y95958D01*
X275854Y95999D01*
X276024Y96066D01*
X276169Y96160D01*
X276289Y96282D01*
X276383Y96430D01*
X276452Y96605D01*
X276496Y96807D01*
X277137Y96748D01*
X277074Y96442D01*
X276965Y96176D01*
X276812Y95950D01*
X276615Y95764D01*
X276376Y95618D01*
X276101Y95514D01*
X275788Y95452D01*
X275437Y95431D01*
G37*
G36*
X264148Y176181D02*
X263842Y176245D01*
X263576Y176353D01*
X263350Y176506D01*
X263164Y176704D01*
X263018Y176942D01*
X262914Y177218D01*
X262852Y177531D01*
X262831Y177881D01*
X262854Y178255D01*
X262923Y178583D01*
X263039Y178865D01*
X263200Y179102D01*
X263403Y179289D01*
X263519Y179363D01*
X263645Y179423D01*
X263780Y179470D01*
X263924Y179503D01*
X264078Y179523D01*
X264241Y179530D01*
X264464Y179511D01*
X264667Y179454D01*
X264851Y179359D01*
X265014Y179226D01*
X265152Y179059D01*
X265259Y178862D01*
X265335Y178635D01*
X265379Y178378D01*
X265393Y178378D01*
X265457Y178611D01*
X265544Y178815D01*
X265654Y178990D01*
X265788Y179135D01*
X265945Y179249D01*
X266123Y179330D01*
X266323Y179379D01*
X266545Y179395D01*
X266693Y179389D01*
X266832Y179370D01*
X267085Y179294D01*
X267305Y179167D01*
X267492Y178990D01*
X267640Y178767D01*
X267746Y178503D01*
X267810Y178199D01*
X267831Y177854D01*
X267810Y177534D01*
X267748Y177246D01*
X267643Y176987D01*
X267497Y176759D01*
X267313Y176568D01*
X267097Y176422D01*
X266848Y176321D01*
X266566Y176264D01*
X266517Y176888D01*
X266698Y176922D01*
X266857Y176983D01*
X266995Y177070D01*
X267111Y177183D01*
X267203Y177320D01*
X267268Y177476D01*
X267308Y177652D01*
X267321Y177847D01*
X267307Y178059D01*
X267264Y178243D01*
X267194Y178399D01*
X267095Y178528D01*
X266972Y178628D01*
X266828Y178700D01*
X266664Y178743D01*
X266480Y178757D01*
X266294Y178740D01*
X266129Y178687D01*
X265986Y178599D01*
X265864Y178476D01*
X265767Y178321D01*
X265697Y178138D01*
X265655Y177926D01*
X265642Y177685D01*
X265642Y177347D01*
X265104Y177347D01*
X265104Y177699D01*
X265090Y177970D01*
X265048Y178207D01*
X264978Y178410D01*
X264881Y178580D01*
X264759Y178713D01*
X264615Y178809D01*
X264450Y178866D01*
X264262Y178885D01*
X264049Y178868D01*
X263863Y178818D01*
X263705Y178735D01*
X263576Y178618D01*
X263475Y178471D01*
X263403Y178300D01*
X263359Y178103D01*
X263345Y177881D01*
X263358Y177660D01*
X263399Y177465D01*
X263466Y177294D01*
X263560Y177149D01*
X263682Y177030D01*
X263830Y176935D01*
X264005Y176866D01*
X264207Y176823D01*
X264148Y176181D01*
G37*
G36*
X264107Y172491D02*
X263808Y172565D01*
X263549Y172670D01*
X263329Y172806D01*
X263150Y172973D01*
X263010Y173172D01*
X262911Y173402D01*
X262851Y173664D01*
X262831Y173957D01*
X262837Y174119D01*
X262856Y174272D01*
X262888Y174416D01*
X262932Y174552D01*
X263059Y174796D01*
X263236Y175005D01*
X263458Y175173D01*
X263717Y175292D01*
X264014Y175364D01*
X264176Y175382D01*
X264348Y175388D01*
X267759Y175388D01*
X267759Y173798D01*
X267221Y173798D01*
X267221Y174733D01*
X264335Y174733D01*
X264111Y174720D01*
X263916Y174681D01*
X263750Y174617D01*
X263612Y174526D01*
X263504Y174413D01*
X263427Y174281D01*
X263381Y174130D01*
X263366Y173960D01*
X263380Y173804D01*
X263422Y173660D01*
X263492Y173531D01*
X263590Y173416D01*
X263713Y173317D01*
X263858Y173237D01*
X264025Y173177D01*
X264214Y173136D01*
X264107Y172491D01*
G37*
G36*
X1028669Y158200D02*
X1027876Y158200D01*
X1027876Y163059D01*
X1028469Y163059D01*
X1028469Y159873D01*
X1028458Y159476D01*
X1028427Y158893D01*
X1031055Y163059D01*
X1031821Y163059D01*
X1031821Y158200D01*
X1031234Y158200D01*
X1031234Y161428D01*
X1031252Y162004D01*
X1031269Y162338D01*
X1028669Y158200D01*
G37*
G36*
X1020266Y158131D02*
X1019918Y158152D01*
X1019592Y158213D01*
X1019288Y158315D01*
X1019006Y158459D01*
X1018749Y158641D01*
X1018523Y158861D01*
X1018328Y159119D01*
X1018162Y159414D01*
X1018700Y159683D01*
X1018837Y159446D01*
X1018989Y159241D01*
X1019157Y159067D01*
X1019341Y158925D01*
X1019541Y158815D01*
X1019756Y158736D01*
X1019988Y158688D01*
X1020235Y158672D01*
X1020429Y158681D01*
X1020613Y158706D01*
X1020786Y158749D01*
X1020949Y158808D01*
X1021102Y158885D01*
X1021245Y158978D01*
X1021377Y159088D01*
X1021499Y159216D01*
X1021608Y159357D01*
X1021703Y159509D01*
X1021784Y159672D01*
X1021849Y159846D01*
X1021900Y160031D01*
X1021937Y160227D01*
X1021959Y160434D01*
X1021966Y160652D01*
X1021959Y160872D01*
X1021938Y161080D01*
X1021903Y161275D01*
X1021854Y161459D01*
X1021791Y161631D01*
X1021714Y161791D01*
X1021623Y161939D01*
X1021518Y162074D01*
X1021400Y162196D01*
X1021271Y162301D01*
X1021131Y162391D01*
X1020980Y162464D01*
X1020817Y162520D01*
X1020644Y162561D01*
X1020459Y162585D01*
X1020263Y162593D01*
X1020014Y162579D01*
X1019784Y162537D01*
X1019570Y162467D01*
X1019375Y162369D01*
X1019200Y162245D01*
X1019052Y162095D01*
X1018929Y161920D01*
X1018831Y161721D01*
X1018207Y161928D01*
X1018347Y162208D01*
X1018521Y162451D01*
X1018730Y162658D01*
X1018973Y162828D01*
X1019249Y162961D01*
X1019557Y163055D01*
X1019897Y163112D01*
X1020269Y163131D01*
X1020540Y163121D01*
X1020795Y163090D01*
X1021034Y163039D01*
X1021259Y162967D01*
X1021469Y162874D01*
X1021664Y162761D01*
X1021843Y162627D01*
X1022008Y162473D01*
X1022155Y162300D01*
X1022282Y162112D01*
X1022390Y161908D01*
X1022478Y161688D01*
X1022547Y161453D01*
X1022596Y161201D01*
X1022625Y160935D01*
X1022635Y160652D01*
X1022618Y160277D01*
X1022565Y159928D01*
X1022477Y159605D01*
X1022354Y159309D01*
X1022198Y159041D01*
X1022009Y158807D01*
X1021789Y158605D01*
X1021537Y158436D01*
X1021256Y158303D01*
X1020951Y158207D01*
X1020621Y158150D01*
X1020266Y158131D01*
G37*
G36*
X1026727Y158200D02*
X1026068Y158200D01*
X1026068Y160169D01*
X1023358Y160169D01*
X1023358Y160714D01*
X1026068Y160714D01*
X1026068Y162521D01*
X1023275Y162521D01*
X1023275Y163059D01*
X1026727Y163059D01*
X1026727Y158200D01*
G37*
G36*
X1017362Y158200D02*
X1014317Y158200D01*
X1014317Y158728D01*
X1015500Y158728D01*
X1015500Y163059D01*
X1016072Y163059D01*
X1017221Y162269D01*
X1017221Y161683D01*
X1016124Y162466D01*
X1016124Y158728D01*
X1017362Y158728D01*
X1017362Y158200D01*
G37*
G36*
X1061169Y157200D02*
X1060376Y157200D01*
X1060376Y162059D01*
X1060969Y162059D01*
X1060969Y158873D01*
X1060958Y158476D01*
X1060927Y157893D01*
X1063555Y162059D01*
X1064321Y162059D01*
X1064321Y157200D01*
X1063734Y157200D01*
X1063734Y160428D01*
X1063752Y161004D01*
X1063769Y161338D01*
X1061169Y157200D01*
G37*
G36*
X1052766Y157131D02*
X1052418Y157152D01*
X1052092Y157213D01*
X1051788Y157315D01*
X1051506Y157459D01*
X1051249Y157641D01*
X1051023Y157861D01*
X1050828Y158119D01*
X1050662Y158414D01*
X1051200Y158683D01*
X1051337Y158446D01*
X1051489Y158241D01*
X1051657Y158067D01*
X1051841Y157925D01*
X1052041Y157815D01*
X1052256Y157736D01*
X1052488Y157688D01*
X1052735Y157672D01*
X1052929Y157681D01*
X1053113Y157706D01*
X1053286Y157749D01*
X1053449Y157808D01*
X1053602Y157885D01*
X1053745Y157978D01*
X1053877Y158088D01*
X1053999Y158216D01*
X1054108Y158357D01*
X1054203Y158509D01*
X1054284Y158672D01*
X1054349Y158846D01*
X1054400Y159031D01*
X1054437Y159227D01*
X1054459Y159434D01*
X1054466Y159652D01*
X1054459Y159872D01*
X1054438Y160080D01*
X1054403Y160275D01*
X1054354Y160459D01*
X1054291Y160631D01*
X1054214Y160791D01*
X1054123Y160939D01*
X1054018Y161074D01*
X1053900Y161196D01*
X1053771Y161301D01*
X1053631Y161391D01*
X1053480Y161464D01*
X1053317Y161520D01*
X1053144Y161561D01*
X1052959Y161585D01*
X1052763Y161593D01*
X1052514Y161579D01*
X1052284Y161537D01*
X1052070Y161467D01*
X1051875Y161369D01*
X1051700Y161245D01*
X1051552Y161095D01*
X1051429Y160920D01*
X1051331Y160721D01*
X1050707Y160928D01*
X1050847Y161208D01*
X1051021Y161451D01*
X1051230Y161658D01*
X1051473Y161828D01*
X1051749Y161961D01*
X1052057Y162055D01*
X1052397Y162112D01*
X1052769Y162131D01*
X1053040Y162121D01*
X1053295Y162090D01*
X1053534Y162039D01*
X1053759Y161967D01*
X1053969Y161874D01*
X1054164Y161761D01*
X1054343Y161627D01*
X1054508Y161473D01*
X1054655Y161300D01*
X1054782Y161112D01*
X1054890Y160908D01*
X1054978Y160688D01*
X1055047Y160453D01*
X1055096Y160201D01*
X1055125Y159935D01*
X1055135Y159652D01*
X1055118Y159277D01*
X1055065Y158928D01*
X1054977Y158605D01*
X1054854Y158309D01*
X1054698Y158041D01*
X1054509Y157807D01*
X1054289Y157605D01*
X1054037Y157436D01*
X1053756Y157303D01*
X1053451Y157207D01*
X1053121Y157150D01*
X1052766Y157131D01*
G37*
G36*
X1059227Y157200D02*
X1058568Y157200D01*
X1058568Y159169D01*
X1055858Y159169D01*
X1055858Y159714D01*
X1058568Y159714D01*
X1058568Y161521D01*
X1055775Y161521D01*
X1055775Y162059D01*
X1059227Y162059D01*
X1059227Y157200D01*
G37*
G36*
X1050045Y157200D02*
X1046827Y157200D01*
X1046827Y157728D01*
X1049362Y157728D01*
X1049226Y157974D01*
X1049024Y158229D01*
X1048749Y158506D01*
X1048393Y158814D01*
X1047789Y159323D01*
X1047417Y159679D01*
X1047193Y159959D01*
X1047033Y160238D01*
X1046976Y160378D01*
X1046936Y160518D01*
X1046911Y160659D01*
X1046903Y160800D01*
X1046909Y160955D01*
X1046928Y161101D01*
X1047002Y161365D01*
X1047125Y161593D01*
X1047298Y161785D01*
X1047517Y161936D01*
X1047778Y162045D01*
X1048081Y162110D01*
X1048427Y162131D01*
X1048747Y162110D01*
X1049036Y162045D01*
X1049294Y161937D01*
X1049522Y161786D01*
X1049713Y161599D01*
X1049859Y161382D01*
X1049960Y161135D01*
X1050017Y160859D01*
X1049383Y160800D01*
X1049347Y160984D01*
X1049285Y161146D01*
X1049196Y161287D01*
X1049081Y161405D01*
X1048944Y161500D01*
X1048789Y161567D01*
X1048617Y161607D01*
X1048427Y161621D01*
X1048230Y161607D01*
X1048056Y161566D01*
X1047904Y161497D01*
X1047776Y161400D01*
X1047673Y161279D01*
X1047600Y161135D01*
X1047556Y160968D01*
X1047541Y160780D01*
X1047550Y160635D01*
X1047575Y160498D01*
X1047618Y160370D01*
X1047677Y160248D01*
X1047835Y160019D01*
X1048034Y159800D01*
X1048268Y159586D01*
X1048529Y159373D01*
X1049083Y158909D01*
X1049356Y158644D01*
X1049616Y158350D01*
X1049850Y158018D01*
X1050045Y157638D01*
X1050045Y157200D01*
G37*
G36*
X360178Y171665D02*
X359878Y171684D01*
X359564Y171741D01*
X359564Y172203D01*
X359766Y172170D01*
X359960Y172159D01*
X360129Y172171D01*
X360282Y172207D01*
X360419Y172267D01*
X360541Y172352D01*
X360651Y172463D01*
X360749Y172605D01*
X360836Y172777D01*
X360912Y172979D01*
X360688Y173018D01*
X360477Y173073D01*
X360278Y173146D01*
X360092Y173235D01*
X359919Y173342D01*
X359758Y173465D01*
X359610Y173605D01*
X359474Y173762D01*
X359353Y173933D01*
X359248Y174116D01*
X359159Y174310D01*
X359086Y174516D01*
X359030Y174733D01*
X358989Y174961D01*
X358965Y175201D01*
X358957Y175452D01*
X358975Y175822D01*
X359029Y176167D01*
X359119Y176486D01*
X359245Y176780D01*
X359405Y177044D01*
X359597Y177275D01*
X359821Y177472D01*
X360078Y177636D01*
X360362Y177765D01*
X360672Y177858D01*
X361006Y177913D01*
X361364Y177931D01*
X361641Y177921D01*
X361902Y177890D01*
X362147Y177839D01*
X362377Y177767D01*
X362591Y177675D01*
X362790Y177562D01*
X362973Y177428D01*
X363140Y177274D01*
X363289Y177102D01*
X363419Y176914D01*
X363529Y176710D01*
X363618Y176490D01*
X363688Y176255D01*
X363738Y176003D01*
X363768Y175735D01*
X363778Y175452D01*
X363762Y175096D01*
X363713Y174762D01*
X363631Y174450D01*
X363518Y174160D01*
X363373Y173897D01*
X363199Y173665D01*
X362995Y173463D01*
X362762Y173291D01*
X362503Y173153D01*
X362220Y173049D01*
X361914Y172979D01*
X361585Y172945D01*
X361470Y172625D01*
X361340Y172354D01*
X361195Y172132D01*
X361035Y171960D01*
X360855Y171831D01*
X360652Y171739D01*
X360426Y171684D01*
X360178Y171665D01*
G37*
%LPC*%
G36*
X361371Y173466D02*
X361570Y173474D01*
X361757Y173499D01*
X361934Y173541D01*
X362099Y173600D01*
X362253Y173675D01*
X362396Y173767D01*
X362528Y173876D01*
X362648Y174002D01*
X362756Y174142D01*
X362850Y174294D01*
X362929Y174457D01*
X362994Y174632D01*
X363044Y174820D01*
X363080Y175019D01*
X363102Y175229D01*
X363109Y175452D01*
X363102Y175676D01*
X363080Y175887D01*
X363045Y176085D01*
X362995Y176270D01*
X362931Y176443D01*
X362853Y176602D01*
X362760Y176749D01*
X362654Y176883D01*
X362534Y177003D01*
X362402Y177106D01*
X362259Y177194D01*
X362104Y177266D01*
X361936Y177322D01*
X361757Y177361D01*
X361567Y177385D01*
X361364Y177393D01*
X361163Y177385D01*
X360973Y177361D01*
X360796Y177321D01*
X360630Y177264D01*
X360476Y177191D01*
X360333Y177102D01*
X360202Y176997D01*
X360083Y176876D01*
X359977Y176741D01*
X359884Y176593D01*
X359806Y176433D01*
X359743Y176261D01*
X359693Y176077D01*
X359658Y175881D01*
X359636Y175673D01*
X359629Y175452D01*
X359636Y175221D01*
X359657Y175005D01*
X359693Y174801D01*
X359742Y174611D01*
X359805Y174434D01*
X359882Y174271D01*
X359974Y174121D01*
X360079Y173985D01*
X360198Y173863D01*
X360329Y173757D01*
X360472Y173668D01*
X360627Y173595D01*
X360795Y173539D01*
X360975Y173498D01*
X361167Y173474D01*
X361371Y173466D01*
G37*
%LPD*%
G36*
X354699Y173000D02*
X351654Y173000D01*
X351654Y173528D01*
X352837Y173528D01*
X352837Y177859D01*
X353410Y177859D01*
X354558Y177069D01*
X354558Y176483D01*
X353461Y177266D01*
X353461Y173528D01*
X354699Y173528D01*
X354699Y173000D01*
G37*
G36*
X358106Y173000D02*
X355061Y173000D01*
X355061Y173528D01*
X356243Y173528D01*
X356243Y177859D01*
X356816Y177859D01*
X357964Y177069D01*
X357964Y176483D01*
X356868Y177266D01*
X356868Y173528D01*
X358106Y173528D01*
X358106Y173000D01*
G37*
G36*
X1238059Y60277D02*
X1237770Y60371D01*
X1237519Y60512D01*
X1237307Y60699D01*
X1237133Y60933D01*
X1236998Y61214D01*
X1236902Y61541D01*
X1236844Y61915D01*
X1236825Y62336D01*
X1236848Y62787D01*
X1236876Y62992D01*
X1236917Y63184D01*
X1236969Y63362D01*
X1237032Y63527D01*
X1237107Y63679D01*
X1237194Y63817D01*
X1237291Y63940D01*
X1237397Y64047D01*
X1237513Y64138D01*
X1237638Y64212D01*
X1237773Y64269D01*
X1237918Y64310D01*
X1238072Y64335D01*
X1238235Y64343D01*
X1238483Y64324D01*
X1238697Y64269D01*
X1238881Y64180D01*
X1239038Y64064D01*
X1239172Y63921D01*
X1239283Y63755D01*
X1239377Y63571D01*
X1239457Y63374D01*
X1239585Y62948D01*
X1239690Y62501D01*
X1239827Y61944D01*
X1239940Y61608D01*
X1240053Y61410D01*
X1240189Y61265D01*
X1240267Y61213D01*
X1240354Y61176D01*
X1240452Y61154D01*
X1240559Y61146D01*
X1240739Y61165D01*
X1240895Y61223D01*
X1241027Y61319D01*
X1241135Y61453D01*
X1241220Y61624D01*
X1241280Y61829D01*
X1241316Y62069D01*
X1241328Y62343D01*
X1241317Y62594D01*
X1241285Y62816D01*
X1241230Y63009D01*
X1241154Y63174D01*
X1241054Y63312D01*
X1240927Y63426D01*
X1240774Y63515D01*
X1240594Y63581D01*
X1240708Y64229D01*
X1240990Y64125D01*
X1241229Y63988D01*
X1241422Y63818D01*
X1241571Y63615D01*
X1241682Y63372D01*
X1241761Y63080D01*
X1241809Y62739D01*
X1241825Y62350D01*
X1241804Y61931D01*
X1241740Y61563D01*
X1241635Y61247D01*
X1241487Y60982D01*
X1241398Y60870D01*
X1241300Y60773D01*
X1241193Y60691D01*
X1241077Y60624D01*
X1240953Y60572D01*
X1240819Y60535D01*
X1240676Y60512D01*
X1240525Y60505D01*
X1240268Y60528D01*
X1240042Y60596D01*
X1239845Y60708D01*
X1239675Y60860D01*
X1239525Y61064D01*
X1239390Y61331D01*
X1239263Y61698D01*
X1239135Y62205D01*
X1238994Y62808D01*
X1238920Y63062D01*
X1238832Y63277D01*
X1238722Y63452D01*
X1238587Y63583D01*
X1238507Y63630D01*
X1238416Y63664D01*
X1238314Y63684D01*
X1238200Y63691D01*
X1238001Y63670D01*
X1237828Y63605D01*
X1237680Y63496D01*
X1237557Y63345D01*
X1237462Y63153D01*
X1237393Y62925D01*
X1237352Y62661D01*
X1237338Y62360D01*
X1237351Y62068D01*
X1237390Y61807D01*
X1237454Y61580D01*
X1237544Y61384D01*
X1237661Y61220D01*
X1237807Y61088D01*
X1237982Y60986D01*
X1238187Y60915D01*
X1238059Y60277D01*
G37*
G36*
X1237421Y65182D02*
X1236894Y65182D01*
X1236894Y68227D01*
X1237421Y68227D01*
X1237421Y67044D01*
X1241752Y67044D01*
X1241752Y66472D01*
X1240963Y65323D01*
X1240376Y65323D01*
X1241159Y66420D01*
X1237421Y66420D01*
X1237421Y65182D01*
G37*
D10*
X1076900Y180386D02*
X1087900Y180386D01*
X1087900Y167814D02*
X1076900Y167814D01*
X1007800Y168014D02*
X996800Y168014D01*
X996800Y180586D02*
X1007800Y180586D01*
X301300Y102500D02*
X298700Y102500D01*
X298700Y87500D02*
X301300Y87500D01*
D11*
X317000Y100000D02*
X317002Y100063D01*
X317008Y100125D01*
X317018Y100187D01*
X317031Y100249D01*
X317049Y100309D01*
X317070Y100368D01*
X317095Y100426D01*
X317124Y100482D01*
X317156Y100536D01*
X317191Y100588D01*
X317229Y100637D01*
X317271Y100685D01*
X317315Y100729D01*
X317363Y100771D01*
X317412Y100809D01*
X317464Y100844D01*
X317518Y100876D01*
X317574Y100905D01*
X317632Y100930D01*
X317691Y100951D01*
X317751Y100969D01*
X317813Y100982D01*
X317875Y100992D01*
X317937Y100998D01*
X318000Y101000D01*
X318063Y100998D01*
X318125Y100992D01*
X318187Y100982D01*
X318249Y100969D01*
X318309Y100951D01*
X318368Y100930D01*
X318426Y100905D01*
X318482Y100876D01*
X318536Y100844D01*
X318588Y100809D01*
X318637Y100771D01*
X318685Y100729D01*
X318729Y100685D01*
X318771Y100637D01*
X318809Y100588D01*
X318844Y100536D01*
X318876Y100482D01*
X318905Y100426D01*
X318930Y100368D01*
X318951Y100309D01*
X318969Y100249D01*
X318982Y100187D01*
X318992Y100125D01*
X318998Y100063D01*
X319000Y100000D01*
X318998Y99937D01*
X318992Y99875D01*
X318982Y99813D01*
X318969Y99751D01*
X318951Y99691D01*
X318930Y99632D01*
X318905Y99574D01*
X318876Y99518D01*
X318844Y99464D01*
X318809Y99412D01*
X318771Y99363D01*
X318729Y99315D01*
X318685Y99271D01*
X318637Y99229D01*
X318588Y99191D01*
X318536Y99156D01*
X318482Y99124D01*
X318426Y99095D01*
X318368Y99070D01*
X318309Y99049D01*
X318249Y99031D01*
X318187Y99018D01*
X318125Y99008D01*
X318063Y99002D01*
X318000Y99000D01*
X317937Y99002D01*
X317875Y99008D01*
X317813Y99018D01*
X317751Y99031D01*
X317691Y99049D01*
X317632Y99070D01*
X317574Y99095D01*
X317518Y99124D01*
X317464Y99156D01*
X317412Y99191D01*
X317363Y99229D01*
X317315Y99271D01*
X317271Y99315D01*
X317229Y99363D01*
X317191Y99412D01*
X317156Y99464D01*
X317124Y99518D01*
X317095Y99574D01*
X317070Y99632D01*
X317049Y99691D01*
X317031Y99751D01*
X317018Y99813D01*
X317008Y99875D01*
X317002Y99937D01*
X317000Y100000D01*
D10*
X276400Y171340D02*
X276400Y179840D01*
X308900Y179840D01*
X276400Y146340D02*
X276400Y137840D01*
X308900Y137840D01*
X319400Y148840D02*
X319400Y168840D01*
D11*
X270900Y172840D02*
X270902Y172903D01*
X270908Y172965D01*
X270918Y173027D01*
X270931Y173089D01*
X270949Y173149D01*
X270970Y173208D01*
X270995Y173266D01*
X271024Y173322D01*
X271056Y173376D01*
X271091Y173428D01*
X271129Y173477D01*
X271171Y173525D01*
X271215Y173569D01*
X271263Y173611D01*
X271312Y173649D01*
X271364Y173684D01*
X271418Y173716D01*
X271474Y173745D01*
X271532Y173770D01*
X271591Y173791D01*
X271651Y173809D01*
X271713Y173822D01*
X271775Y173832D01*
X271837Y173838D01*
X271900Y173840D01*
X271963Y173838D01*
X272025Y173832D01*
X272087Y173822D01*
X272149Y173809D01*
X272209Y173791D01*
X272268Y173770D01*
X272326Y173745D01*
X272382Y173716D01*
X272436Y173684D01*
X272488Y173649D01*
X272537Y173611D01*
X272585Y173569D01*
X272629Y173525D01*
X272671Y173477D01*
X272709Y173428D01*
X272744Y173376D01*
X272776Y173322D01*
X272805Y173266D01*
X272830Y173208D01*
X272851Y173149D01*
X272869Y173089D01*
X272882Y173027D01*
X272892Y172965D01*
X272898Y172903D01*
X272900Y172840D01*
X272898Y172777D01*
X272892Y172715D01*
X272882Y172653D01*
X272869Y172591D01*
X272851Y172531D01*
X272830Y172472D01*
X272805Y172414D01*
X272776Y172358D01*
X272744Y172304D01*
X272709Y172252D01*
X272671Y172203D01*
X272629Y172155D01*
X272585Y172111D01*
X272537Y172069D01*
X272488Y172031D01*
X272436Y171996D01*
X272382Y171964D01*
X272326Y171935D01*
X272268Y171910D01*
X272209Y171889D01*
X272149Y171871D01*
X272087Y171858D01*
X272025Y171848D01*
X271963Y171842D01*
X271900Y171840D01*
X271837Y171842D01*
X271775Y171848D01*
X271713Y171858D01*
X271651Y171871D01*
X271591Y171889D01*
X271532Y171910D01*
X271474Y171935D01*
X271418Y171964D01*
X271364Y171996D01*
X271312Y172031D01*
X271263Y172069D01*
X271215Y172111D01*
X271171Y172155D01*
X271129Y172203D01*
X271091Y172252D01*
X271056Y172304D01*
X271024Y172358D01*
X270995Y172414D01*
X270970Y172472D01*
X270949Y172531D01*
X270931Y172591D01*
X270918Y172653D01*
X270908Y172715D01*
X270902Y172777D01*
X270900Y172840D01*
X357200Y168500D02*
X360200Y168500D01*
X357200Y168500D02*
X357200Y139500D01*
X360200Y139500D01*
X360200Y168500D01*
X363700Y169350D02*
X374700Y169350D01*
D10*
X1231850Y115000D02*
X1231850Y75000D01*
X1211850Y125000D02*
X1191850Y125000D01*
X1171850Y115000D02*
X1171850Y75000D01*
X1191850Y65000D02*
X1211850Y65000D01*
D11*
X1223350Y51310D02*
X1223352Y51373D01*
X1223358Y51435D01*
X1223368Y51497D01*
X1223381Y51559D01*
X1223399Y51619D01*
X1223420Y51678D01*
X1223445Y51736D01*
X1223474Y51792D01*
X1223506Y51846D01*
X1223541Y51898D01*
X1223579Y51947D01*
X1223621Y51995D01*
X1223665Y52039D01*
X1223713Y52081D01*
X1223762Y52119D01*
X1223814Y52154D01*
X1223868Y52186D01*
X1223924Y52215D01*
X1223982Y52240D01*
X1224041Y52261D01*
X1224101Y52279D01*
X1224163Y52292D01*
X1224225Y52302D01*
X1224287Y52308D01*
X1224350Y52310D01*
X1224413Y52308D01*
X1224475Y52302D01*
X1224537Y52292D01*
X1224599Y52279D01*
X1224659Y52261D01*
X1224718Y52240D01*
X1224776Y52215D01*
X1224832Y52186D01*
X1224886Y52154D01*
X1224938Y52119D01*
X1224987Y52081D01*
X1225035Y52039D01*
X1225079Y51995D01*
X1225121Y51947D01*
X1225159Y51898D01*
X1225194Y51846D01*
X1225226Y51792D01*
X1225255Y51736D01*
X1225280Y51678D01*
X1225301Y51619D01*
X1225319Y51559D01*
X1225332Y51497D01*
X1225342Y51435D01*
X1225348Y51373D01*
X1225350Y51310D01*
X1225348Y51247D01*
X1225342Y51185D01*
X1225332Y51123D01*
X1225319Y51061D01*
X1225301Y51001D01*
X1225280Y50942D01*
X1225255Y50884D01*
X1225226Y50828D01*
X1225194Y50774D01*
X1225159Y50722D01*
X1225121Y50673D01*
X1225079Y50625D01*
X1225035Y50581D01*
X1224987Y50539D01*
X1224938Y50501D01*
X1224886Y50466D01*
X1224832Y50434D01*
X1224776Y50405D01*
X1224718Y50380D01*
X1224659Y50359D01*
X1224599Y50341D01*
X1224537Y50328D01*
X1224475Y50318D01*
X1224413Y50312D01*
X1224350Y50310D01*
X1224287Y50312D01*
X1224225Y50318D01*
X1224163Y50328D01*
X1224101Y50341D01*
X1224041Y50359D01*
X1223982Y50380D01*
X1223924Y50405D01*
X1223868Y50434D01*
X1223814Y50466D01*
X1223762Y50501D01*
X1223713Y50539D01*
X1223665Y50581D01*
X1223621Y50625D01*
X1223579Y50673D01*
X1223541Y50722D01*
X1223506Y50774D01*
X1223474Y50828D01*
X1223445Y50884D01*
X1223420Y50942D01*
X1223399Y51001D01*
X1223381Y51061D01*
X1223368Y51123D01*
X1223358Y51185D01*
X1223352Y51247D01*
X1223350Y51310D01*
M02*
