G04 EAGLE Gerber RS-274X export*
G75*
%MOMM*%
%FSLAX34Y34*%
%LPD*%
%INSoldermask Top*%
%IPPOS*%
%AMOC8*
5,1,8,0,0,1.08239X$1,22.5*%
G01*
G04 Define Apertures*
%ADD10C,1.561200*%
%ADD11C,1.778200*%
%ADD12C,1.853200*%
%ADD13R,0.832300X0.763200*%
%ADD14R,0.763200X0.832300*%
%ADD15R,0.600000X0.600000*%
%ADD16R,0.400000X0.400000*%
%ADD17R,0.623200X0.843200*%
%ADD18C,1.421200*%
%ADD19R,0.803200X0.743200*%
%ADD20R,0.743200X0.803200*%
%ADD21R,3.015000X1.115000*%
%ADD22R,0.853200X1.303200*%
%ADD23R,1.103200X0.603200*%
%ADD24R,0.603200X1.103200*%
%ADD25R,0.738300X0.847200*%
%ADD26R,0.847200X0.738300*%
%ADD27R,1.001900X1.177100*%
%ADD28R,1.177100X1.001900*%
%ADD29C,1.701200*%
%ADD30C,1.473200*%
%ADD31R,0.703200X0.703200*%
%ADD32R,0.803200X1.303200*%
%ADD33R,0.803200X1.603200*%
%ADD34R,0.803200X0.443200*%
%ADD35R,1.853200X2.603200*%
%ADD36R,0.453200X0.703200*%
%ADD37C,0.853200*%
%ADD38R,1.353200X0.803200*%
%ADD39R,1.353200X0.503200*%
%ADD40C,1.346200*%
%ADD41R,0.710000X0.450000*%
%ADD42R,0.450000X0.710000*%
%ADD43R,1.203200X0.903200*%
%ADD44R,0.803200X0.903200*%
G36*
X44082Y49620D02*
X43966Y50800D01*
X44082Y51980D01*
X44426Y53115D01*
X44985Y54161D01*
X45738Y55078D01*
X46655Y55831D01*
X47701Y56390D01*
X48836Y56734D01*
X50014Y56850D01*
X61018Y56850D01*
X62196Y56734D01*
X63331Y56390D01*
X64377Y55831D01*
X65294Y55078D01*
X66047Y54161D01*
X66606Y53115D01*
X66950Y51980D01*
X67066Y50800D01*
X66950Y49620D01*
X66606Y48485D01*
X66047Y47439D01*
X65294Y46522D01*
X64377Y45769D01*
X63331Y45210D01*
X62196Y44866D01*
X61018Y44750D01*
X50014Y44750D01*
X48836Y44866D01*
X47701Y45210D01*
X46655Y45769D01*
X45738Y46522D01*
X44985Y47439D01*
X44426Y48485D01*
X44082Y49620D01*
G37*
G36*
X44082Y136020D02*
X43966Y137200D01*
X44082Y138380D01*
X44426Y139515D01*
X44985Y140561D01*
X45738Y141478D01*
X46655Y142231D01*
X47701Y142790D01*
X48836Y143134D01*
X50014Y143250D01*
X61018Y143250D01*
X62196Y143134D01*
X63331Y142790D01*
X64377Y142231D01*
X65294Y141478D01*
X66047Y140561D01*
X66606Y139515D01*
X66950Y138380D01*
X67066Y137200D01*
X66950Y136020D01*
X66606Y134885D01*
X66047Y133839D01*
X65294Y132922D01*
X64377Y132169D01*
X63331Y131610D01*
X62196Y131266D01*
X61018Y131150D01*
X50014Y131150D01*
X48836Y131266D01*
X47701Y131610D01*
X46655Y132169D01*
X45738Y132922D01*
X44985Y133839D01*
X44426Y134885D01*
X44082Y136020D01*
G37*
G36*
X3782Y49620D02*
X3666Y50800D01*
X3782Y51980D01*
X4126Y53115D01*
X4685Y54161D01*
X5438Y55078D01*
X6355Y55831D01*
X7401Y56390D01*
X8536Y56734D01*
X9714Y56850D01*
X17718Y56850D01*
X18896Y56734D01*
X20031Y56390D01*
X21077Y55831D01*
X21994Y55078D01*
X22747Y54161D01*
X23306Y53115D01*
X23650Y51980D01*
X23766Y50800D01*
X23650Y49620D01*
X23306Y48485D01*
X22747Y47439D01*
X21994Y46522D01*
X21077Y45769D01*
X20031Y45210D01*
X18896Y44866D01*
X17718Y44750D01*
X9714Y44750D01*
X8536Y44866D01*
X7401Y45210D01*
X6355Y45769D01*
X5438Y46522D01*
X4685Y47439D01*
X4126Y48485D01*
X3782Y49620D01*
G37*
G36*
X3782Y136020D02*
X3666Y137200D01*
X3782Y138380D01*
X4126Y139515D01*
X4685Y140561D01*
X5438Y141478D01*
X6355Y142231D01*
X7401Y142790D01*
X8536Y143134D01*
X9714Y143250D01*
X17718Y143250D01*
X18896Y143134D01*
X20031Y142790D01*
X21077Y142231D01*
X21994Y141478D01*
X22747Y140561D01*
X23306Y139515D01*
X23650Y138380D01*
X23766Y137200D01*
X23650Y136020D01*
X23306Y134885D01*
X22747Y133839D01*
X21994Y132922D01*
X21077Y132169D01*
X20031Y131610D01*
X18896Y131266D01*
X17718Y131150D01*
X9714Y131150D01*
X8536Y131266D01*
X7401Y131610D01*
X6355Y132169D01*
X5438Y132922D01*
X4685Y133839D01*
X4126Y134885D01*
X3782Y136020D01*
G37*
D10*
X245750Y112000D03*
D11*
X245750Y95000D03*
D10*
X245750Y78000D03*
D12*
X122750Y95000D03*
D13*
X988200Y160254D03*
X988200Y169946D03*
X944700Y161054D03*
X944700Y170746D03*
X905500Y138146D03*
X905500Y128454D03*
X454500Y28754D03*
X454500Y38446D03*
X471500Y28654D03*
X471500Y38346D03*
X893300Y85046D03*
X893300Y75354D03*
X266300Y66154D03*
X266300Y75846D03*
X334300Y89646D03*
X334300Y79954D03*
X919800Y138046D03*
X919800Y128354D03*
D14*
X1015946Y24700D03*
X1006254Y24700D03*
D13*
X141900Y35754D03*
X141900Y45446D03*
X384900Y89546D03*
X384900Y79854D03*
X127700Y35954D03*
X127700Y45646D03*
X919900Y85146D03*
X919900Y75454D03*
D15*
X874800Y128200D03*
X890800Y128200D03*
D16*
X882800Y124200D03*
X882800Y132200D03*
D13*
X860094Y137140D03*
X860094Y127448D03*
D14*
X1070646Y23000D03*
X1060954Y23000D03*
D13*
X908100Y84946D03*
X908100Y75254D03*
X154400Y35954D03*
X154400Y45646D03*
D15*
X353400Y77600D03*
X369400Y77600D03*
D16*
X361400Y73600D03*
X361400Y81600D03*
D15*
X498100Y58600D03*
X498100Y74600D03*
D16*
X502100Y66600D03*
X494100Y66600D03*
D17*
X280100Y78200D03*
X280100Y63200D03*
D18*
X829446Y48300D03*
X829446Y35600D03*
X816746Y48300D03*
X816746Y35600D03*
X804046Y48300D03*
X804046Y35600D03*
X791346Y48300D03*
X791346Y35600D03*
X778646Y48300D03*
X778646Y35600D03*
D19*
X847900Y127974D03*
X847900Y136614D03*
D20*
X880820Y74900D03*
X872180Y74900D03*
X105080Y46900D03*
X113720Y46900D03*
D21*
X464500Y78000D03*
X464500Y56000D03*
D22*
X317100Y97800D03*
X297900Y97800D03*
X307500Y76800D03*
D23*
X529000Y119500D03*
X529000Y129500D03*
X513000Y124500D03*
X530000Y145500D03*
X530000Y155500D03*
X514000Y150500D03*
X529000Y94000D03*
X529000Y104000D03*
X513000Y99000D03*
D24*
X270400Y33500D03*
X280400Y33500D03*
X275400Y49500D03*
X342100Y128000D03*
X332100Y128000D03*
X337100Y112000D03*
D23*
X301000Y135100D03*
X301000Y125100D03*
X317000Y130100D03*
D25*
X333975Y44100D03*
X323825Y44100D03*
X553075Y93900D03*
X542925Y93900D03*
X554075Y145400D03*
X543925Y145400D03*
D26*
X1047900Y23825D03*
X1047900Y33975D03*
X1032900Y24025D03*
X1032900Y34175D03*
X989200Y23225D03*
X989200Y33375D03*
D25*
X544825Y158000D03*
X554975Y158000D03*
X543825Y132500D03*
X553975Y132500D03*
X543825Y106900D03*
X553975Y106900D03*
X255175Y46100D03*
X245025Y46100D03*
X956325Y30900D03*
X966475Y30900D03*
D27*
X1003348Y35800D03*
X1019652Y35800D03*
D25*
X496075Y150700D03*
X485925Y150700D03*
X495075Y124400D03*
X484925Y124400D03*
X495075Y99200D03*
X484925Y99200D03*
X246225Y33600D03*
X256375Y33600D03*
X316975Y112300D03*
X306825Y112300D03*
D28*
X1146600Y129552D03*
X1146600Y113248D03*
D25*
G36*
X167826Y26484D02*
X162606Y31704D01*
X168596Y37694D01*
X173816Y32474D01*
X167826Y26484D01*
G37*
G36*
X175004Y19306D02*
X169784Y24526D01*
X175774Y30516D01*
X180994Y25296D01*
X175004Y19306D01*
G37*
X553075Y119400D03*
X542925Y119400D03*
G36*
X175808Y34484D02*
X170588Y39704D01*
X176578Y45694D01*
X181798Y40474D01*
X175808Y34484D01*
G37*
G36*
X182986Y27306D02*
X177766Y32526D01*
X183756Y38516D01*
X188976Y33296D01*
X182986Y27306D01*
G37*
D26*
X464200Y164525D03*
X464200Y174675D03*
D29*
X1224350Y62500D03*
X1224350Y127500D03*
X1179350Y62500D03*
X1179350Y127500D03*
D30*
X932200Y10000D03*
X955200Y9906D03*
X977200Y9906D03*
X913600Y180094D03*
X1061700Y10000D03*
X909700Y9906D03*
D31*
X1038500Y140000D03*
X1033000Y131000D03*
X1027500Y140000D03*
X1022000Y131000D03*
X1016500Y140000D03*
X1011000Y131000D03*
X1005500Y140000D03*
X1000000Y131000D03*
X994500Y140000D03*
X989000Y131000D03*
X983500Y140000D03*
X978000Y131000D03*
X972500Y140000D03*
X967000Y131000D03*
X961500Y140000D03*
X950500Y140000D03*
X950500Y129000D03*
X959500Y123500D03*
X950500Y118000D03*
X959500Y112500D03*
X950500Y107000D03*
X959500Y101500D03*
X950500Y96000D03*
X959500Y90500D03*
X950500Y85000D03*
X959500Y79500D03*
X950500Y74000D03*
X959500Y68500D03*
X950500Y63000D03*
X950500Y52000D03*
X961500Y52000D03*
X967000Y61000D03*
X972500Y52000D03*
X978000Y61000D03*
X983500Y52000D03*
X989000Y61000D03*
X994500Y52000D03*
X1000000Y61000D03*
X1005500Y52000D03*
X1011000Y61000D03*
X1016500Y52000D03*
X1022000Y61000D03*
X1027500Y52000D03*
X1033000Y61000D03*
X1038500Y52000D03*
X1038500Y79500D03*
X1038500Y112500D03*
X1027500Y122000D03*
X1016500Y122000D03*
X1005500Y122000D03*
X994500Y122000D03*
X983500Y122000D03*
X968500Y107000D03*
X968500Y96000D03*
X968500Y85000D03*
X983500Y70000D03*
X994500Y70000D03*
X1005500Y70000D03*
X1016500Y70000D03*
X1027500Y70000D03*
X941500Y134500D03*
X941500Y123500D03*
X941500Y112500D03*
X941500Y101500D03*
X941500Y90500D03*
X941500Y79500D03*
X941500Y68500D03*
X941500Y57500D03*
X1055000Y52000D03*
X1066000Y52000D03*
X1077000Y52000D03*
X1077000Y140000D03*
X1066000Y140000D03*
X1055000Y140000D03*
D32*
X959600Y167000D03*
X973600Y167000D03*
D26*
X448000Y123425D03*
X448000Y133575D03*
D14*
X413346Y165000D03*
X403654Y165000D03*
D13*
X393500Y134654D03*
X393500Y144346D03*
D33*
X430000Y146500D03*
X420500Y146500D03*
X411000Y146500D03*
X411000Y121500D03*
X430000Y121500D03*
D34*
X403000Y88000D03*
X403000Y83000D03*
X403000Y78000D03*
X403000Y73000D03*
X403000Y68000D03*
X431000Y68000D03*
X431000Y73000D03*
X431000Y78000D03*
X431000Y83000D03*
X431000Y88000D03*
D35*
X417000Y78000D03*
D36*
X414500Y63500D03*
X419500Y63500D03*
X419500Y92500D03*
X414500Y92500D03*
D14*
X406654Y34500D03*
X416346Y34500D03*
X386654Y20000D03*
X396346Y20000D03*
D28*
X396000Y47652D03*
X396000Y31348D03*
X379500Y31348D03*
X379500Y47652D03*
D26*
X444500Y164425D03*
X444500Y174575D03*
X431000Y174575D03*
X431000Y164425D03*
X454500Y153925D03*
X454500Y164075D03*
D25*
X322925Y59000D03*
X333075Y59000D03*
D37*
X50516Y65100D03*
X50516Y122900D03*
D38*
X61266Y126000D03*
X61266Y62000D03*
X61266Y118000D03*
X61266Y70000D03*
D39*
X61266Y91500D03*
X61266Y96500D03*
X61266Y86500D03*
X61266Y81500D03*
X61266Y76500D03*
X61266Y101500D03*
X61266Y106500D03*
X61266Y111500D03*
D40*
X60071Y137180D02*
X51181Y137180D01*
X51181Y50820D02*
X60071Y50820D01*
X18161Y137180D02*
X9271Y137180D01*
X9271Y50820D02*
X18161Y50820D01*
D25*
X93575Y47000D03*
X83425Y47000D03*
X93575Y143500D03*
X83425Y143500D03*
D41*
X696400Y101000D03*
X696400Y106000D03*
X696400Y96000D03*
X696400Y91000D03*
D42*
X708000Y89350D03*
X703000Y89350D03*
X713000Y89350D03*
D41*
X719600Y96000D03*
X719600Y91000D03*
X719600Y101000D03*
X719600Y106000D03*
D42*
X708000Y107650D03*
X713000Y107650D03*
X703000Y107650D03*
D13*
X702000Y65154D03*
X702000Y74846D03*
X688500Y74846D03*
X688500Y65154D03*
X748500Y100346D03*
X748500Y90654D03*
X736000Y90154D03*
X736000Y99846D03*
D25*
X296075Y146500D03*
X285925Y146500D03*
D26*
X272500Y132925D03*
X272500Y143075D03*
D25*
X332925Y142000D03*
X343075Y142000D03*
X404925Y45500D03*
X415075Y45500D03*
X426925Y46000D03*
X437075Y46000D03*
X714925Y122500D03*
X725075Y122500D03*
D26*
X678000Y96925D03*
X678000Y107075D03*
D43*
X199500Y17000D03*
D44*
X216500Y17000D03*
X216500Y37000D03*
X197500Y37000D03*
D13*
X1147000Y151154D03*
X1147000Y160846D03*
X308000Y47154D03*
X308000Y56846D03*
D14*
X85040Y19000D03*
X75348Y19000D03*
X82154Y165000D03*
X91846Y165000D03*
M02*
